<svg width="579" height="417" viewBox="0 0 579 417" fill="none" xmlns="http://www.w3.org/2000/svg">
<path d="M393.678 170.399C322.593 127.543 289.008 -4.52729 179.395 74.385C69.782 153.297 115.111 315.241 220.191 354.392C325.271 393.543 460.639 371.49 498.55 298.762C563.861 174.314 441.27 199.244 393.678 170.399Z" fill="#757677"/>
<path d="M105.427 323.074C105.427 323.074 166.002 262.292 267.167 291.137C368.332 319.983 427.878 295.258 415.31 142.378C415.31 142.378 557.477 162.157 539.345 263.323C517.298 386.121 231.729 432.893 105.427 323.074Z" fill="#4E4D4F" fill-opacity="0.57"/>
<path d="M290.244 115.386L289.211 112.708L288.177 115.386C287.719 116.609 287.004 117.719 286.081 118.642C285.159 119.566 284.049 120.281 282.827 120.74C284.033 121.229 285.128 121.956 286.048 122.876C286.968 123.796 287.694 124.891 288.184 126.097L289.218 128.775L290.252 126.097C290.71 124.873 291.425 123.762 292.349 122.838C293.273 121.914 294.385 121.198 295.608 120.74C294.384 120.283 293.271 119.568 292.346 118.645C291.42 117.721 290.704 116.61 290.244 115.386Z" fill="white"/>
<path d="M203.502 272.594L202.468 269.916L201.435 272.594C200.977 273.816 200.262 274.927 199.34 275.85C198.417 276.773 197.307 277.489 196.085 277.947C197.291 278.437 198.386 279.163 199.306 280.083C200.226 281.003 200.952 282.099 201.442 283.304L202.476 285.983L203.509 283.304C203.968 282.08 204.683 280.969 205.607 280.045C206.531 279.121 207.642 278.406 208.866 277.947C207.66 277.459 206.563 276.734 205.642 275.814C204.72 274.895 203.993 273.8 203.502 272.594Z" fill="white"/>
<path d="M379.735 340.855L379.117 339L378.499 340.855C377.841 342.438 376.583 343.696 375 344.354C376.542 345.072 377.781 346.311 378.499 347.853L379.117 349.707L379.735 347.853C380.392 346.269 381.651 345.011 383.234 344.354C382.432 344.059 381.703 343.594 381.099 342.99C380.494 342.385 380.029 341.657 379.735 340.855Z" fill="white"/>
<path d="M161.676 164.63L161.058 162.775L160.437 164.63C159.779 166.213 158.521 167.471 156.938 168.129C158.479 168.847 159.719 170.086 160.437 171.628L161.054 173.482L161.672 171.628C162.33 170.045 163.588 168.786 165.171 168.129C164.335 167.899 163.574 167.455 162.961 166.842C162.348 166.228 161.905 165.466 161.676 164.63Z" fill="white"/>
<path d="M426 188.105V284.777C426.007 286.763 425.701 288.731 425.102 290.568C424.503 292.404 423.622 294.073 422.509 295.477C421.396 296.881 420.074 297.994 418.618 298.75C417.163 299.506 415.604 299.891 414.03 299.883H250.97C249.396 299.891 247.837 299.506 246.382 298.75C244.926 297.994 243.604 296.881 242.491 295.477C241.378 294.073 240.497 292.404 239.898 290.568C239.299 288.731 238.993 286.763 239 284.777V188.105C238.993 186.119 239.299 184.151 239.898 182.315C240.497 180.478 241.378 178.81 242.491 177.406C243.604 176.001 244.926 174.889 246.382 174.133C247.837 173.377 249.396 172.992 250.97 173H414.03C415.604 172.992 417.163 173.377 418.618 174.133C420.074 174.889 421.396 176.001 422.509 177.406C423.622 178.81 424.503 180.478 425.102 182.315C425.701 184.151 426.007 186.119 426 188.105Z" fill="#9C9CA1"/>
<path d="M426 188.105V196.497H239V188.105C238.993 186.119 239.299 184.151 239.898 182.315C240.497 180.478 241.378 178.81 242.491 177.406C243.604 176.001 244.926 174.889 246.382 174.133C247.837 173.377 249.396 172.992 250.97 173H414.03C415.604 172.992 417.163 173.377 418.618 174.133C420.074 174.889 421.396 176.001 422.509 177.406C423.622 178.81 424.503 180.478 425.102 182.315C425.701 184.151 426.007 186.119 426 188.105Z" fill="#62BD23"/>
<path d="M249.641 189.113C250.963 189.113 252.035 187.761 252.035 186.092C252.035 184.423 250.963 183.071 249.641 183.071C248.319 183.071 247.247 184.423 247.247 186.092C247.247 187.761 248.319 189.113 249.641 189.113Z" fill="white"/>
<path d="M262.142 186.091C262.142 186.688 262.002 187.272 261.739 187.769C261.476 188.266 261.102 188.653 260.664 188.882C260.227 189.111 259.746 189.17 259.281 189.054C258.817 188.937 258.39 188.65 258.055 188.227C257.72 187.804 257.492 187.266 257.4 186.68C257.308 186.094 257.355 185.487 257.536 184.934C257.717 184.382 258.024 183.911 258.418 183.579C258.812 183.247 259.275 183.069 259.748 183.069C261.078 182.734 262.142 184.075 262.142 186.091Z" fill="white"/>
<path d="M271.985 186.092C271.985 186.689 271.845 187.274 271.582 187.77C271.319 188.267 270.945 188.655 270.507 188.883C270.07 189.112 269.588 189.172 269.124 189.055C268.659 188.939 268.233 188.651 267.898 188.228C267.563 187.806 267.335 187.267 267.243 186.681C267.15 186.095 267.198 185.488 267.379 184.936C267.56 184.384 267.867 183.912 268.261 183.58C268.655 183.248 269.117 183.071 269.591 183.071C269.912 183.04 270.234 183.097 270.535 183.239C270.836 183.38 271.11 183.601 271.338 183.888C271.565 184.175 271.74 184.52 271.852 184.901C271.964 185.281 272.009 185.687 271.985 186.092Z" fill="white"/>
<path d="M302.039 254.568H264.537C264.257 254.573 263.978 254.507 263.718 254.374C263.458 254.241 263.222 254.043 263.023 253.793C262.825 253.543 262.668 253.245 262.563 252.916C262.457 252.588 262.405 252.237 262.409 251.883V213.274C262.406 212.921 262.458 212.57 262.564 212.243C262.67 211.915 262.827 211.618 263.025 211.368C263.224 211.119 263.46 210.922 263.719 210.789C263.979 210.656 264.257 210.59 264.537 210.595H302.039C302.32 210.59 302.598 210.656 302.858 210.789C303.118 210.923 303.354 211.12 303.553 211.371C303.751 211.621 303.908 211.919 304.014 212.247C304.119 212.575 304.171 212.927 304.167 213.281V251.547C304.182 252.297 303.971 253.027 303.576 253.588C303.181 254.149 302.631 254.499 302.039 254.568Z" fill="white"/>
<path d="M400.198 275.044H262.143C261.438 275.041 260.763 274.686 260.264 274.057C259.766 273.428 259.485 272.576 259.482 271.687C259.485 270.798 259.766 269.945 260.264 269.317C260.763 268.688 261.438 268.333 262.143 268.33H400.198C400.903 268.333 401.578 268.688 402.076 269.317C402.575 269.945 402.856 270.798 402.858 271.687C402.856 272.576 402.575 273.428 402.076 274.057C401.578 274.686 400.903 275.041 400.198 275.044Z" fill="white"/>
<path d="M400.195 249.868H316.408C315.703 249.865 315.028 249.51 314.529 248.881C314.031 248.253 313.75 247.401 313.748 246.511C313.75 245.622 314.031 244.77 314.529 244.141C315.028 243.512 315.703 243.157 316.408 243.154H400.195C400.899 243.157 401.575 243.512 402.073 244.141C402.571 244.77 402.852 245.622 402.855 246.511C402.852 247.401 402.571 248.253 402.073 248.881C401.575 249.51 400.899 249.865 400.195 249.868Z" fill="white"/>
<path d="M368.278 226.371H316.408C315.703 226.368 315.028 226.014 314.529 225.385C314.031 224.756 313.75 223.904 313.748 223.015C313.75 222.125 314.031 221.273 314.529 220.644C315.028 220.015 315.703 219.661 316.408 219.658H368.278C368.982 219.662 369.656 220.017 370.154 220.646C370.651 221.275 370.932 222.126 370.934 223.015C370.932 223.903 370.651 224.754 370.154 225.383C369.656 226.012 368.982 226.367 368.278 226.371Z" fill="white"/>
<path d="M311.822 27.818C311.822 27.818 316.561 22.4612 319.24 19.9888C324.39 15.6619 330.16 7.83268 349.115 13.6014C350.591 14.0604 352.036 14.611 353.442 15.2499C355.091 15.8679 360.242 15.8679 365.392 11.7509C373.84 5.15429 376.931 0.209449 388.469 0.00188997C401.862 -0.204079 403.922 16.485 414.224 20.6059C420.817 23.2843 438.124 25.9627 441.833 27.1993L311.822 27.818Z" fill="#E8E9F9"/>
<path d="M0 398.334C0 398.334 4.73888 392.978 7.41727 390.505C12.5681 386.178 18.3376 378.349 37.2931 384.118C38.7683 384.577 40.2134 385.127 41.62 385.766C43.2686 386.384 48.4194 386.384 53.5702 382.267C62.0181 375.671 65.1085 370.726 76.6467 370.518C90.0394 370.312 92.0999 387.001 102.402 391.122C108.995 393.801 126.302 396.479 130.011 397.716L0 398.334Z" fill="#E8E9F9"/>
<path d="M509 416.872C509 416.872 511.534 414.009 512.967 412.685C515.721 410.372 518.806 406.185 528.942 409.27C529.731 409.515 530.504 409.809 531.256 410.151C532.137 410.482 534.892 410.482 537.646 408.278C542.162 404.756 543.816 402.112 549.985 402.001C557.147 401.89 558.249 410.815 563.757 413.018C567.283 414.45 576.538 415.881 578.521 416.544L509 416.872Z" fill="#EAEBFB"/>
<path d="M137.634 194H54.1335C47.9846 194 43 198.475 43 203.995V213.277C43 218.797 47.9846 223.272 54.1335 223.272H137.634C143.783 223.272 148.768 218.797 148.768 213.277V203.995C148.768 198.475 143.783 194 137.634 194Z" fill="#F08F33"/>
<path d="M43 208.993H148.768V271.82C148.768 274.471 147.595 277.013 145.507 278.888C143.419 280.762 140.587 281.815 137.634 281.815H54.1335C51.1807 281.815 48.3488 280.762 46.2609 278.888C44.173 277.013 43 274.471 43 271.82V208.993Z" fill="#9C9CA1"/>
<path d="M51.3623 204.217C52.3865 204.217 53.2168 203.472 53.2168 202.552C53.2168 201.633 52.3865 200.887 51.3623 200.887C50.3381 200.887 49.5078 201.633 49.5078 202.552C49.5078 203.472 50.3381 204.217 51.3623 204.217Z" fill="white"/>
<path d="M61.046 202.552C61.046 202.881 60.9372 203.203 60.7334 203.477C60.5296 203.75 60.24 203.964 59.9011 204.09C59.5623 204.216 59.1894 204.249 58.8296 204.185C58.4699 204.12 58.1395 203.962 57.8801 203.729C57.6207 203.496 57.4441 203.199 57.3725 202.876C57.301 202.553 57.3377 202.219 57.4781 201.914C57.6184 201.61 57.8561 201.35 58.1611 201.167C58.4661 200.984 58.8246 200.887 59.1914 200.887C60.2213 200.702 61.046 201.441 61.046 202.552Z" fill="white"/>
<path d="M68.6701 202.552C68.6701 202.882 68.5613 203.204 68.3575 203.477C68.1537 203.751 67.8641 203.965 67.5252 204.091C67.1863 204.217 66.8134 204.25 66.4537 204.185C66.0939 204.121 65.7635 203.962 65.5041 203.73C65.2448 203.497 65.0681 203.2 64.9966 202.877C64.925 202.554 64.9617 202.219 65.1021 201.915C65.2425 201.611 65.4802 201.351 65.7852 201.168C66.0901 200.985 66.4487 200.887 66.8155 200.887C67.0638 200.871 67.3132 200.902 67.5467 200.98C67.7802 201.058 67.9922 201.18 68.1683 201.338C68.3444 201.496 68.4804 201.686 68.567 201.896C68.6536 202.106 68.6887 202.329 68.6701 202.552Z" fill="white"/>
<path d="M85.2498 243.399H59.7613C59.5707 243.402 59.3815 243.37 59.2049 243.305C59.0283 243.241 58.8678 243.146 58.7331 243.025C58.5983 242.904 58.4919 242.759 58.4202 242.601C58.3485 242.442 58.3129 242.272 58.3156 242.101V223.438C58.3129 223.267 58.3485 223.097 58.4202 222.939C58.4919 222.78 58.5983 222.636 58.7331 222.515C58.8678 222.394 59.0283 222.298 59.2049 222.234C59.3815 222.17 59.5707 222.138 59.7613 222.14H85.249C85.4396 222.138 85.6288 222.17 85.8054 222.234C85.982 222.298 86.1424 222.394 86.2772 222.515C86.412 222.636 86.5184 222.78 86.5901 222.939C86.6618 223.097 86.6974 223.267 86.6947 223.438V241.939C86.7057 242.301 86.5624 242.654 86.294 242.926C86.0257 243.197 85.6523 243.366 85.2498 243.399Z" fill="white"/>
<path d="M133.004 253.752H57.7769C57.0524 253.752 56.3271 253.013 56.3271 251.902C56.3271 250.974 56.9069 250.053 57.7769 250.053H133.007C133.732 250.053 134.457 250.792 134.457 251.902C134.453 253.012 133.729 253.752 133.004 253.752Z" fill="white"/>
<path d="M133.004 265.889H57.7769C57.0524 265.889 56.3271 265.15 56.3271 264.039C56.3271 263.111 56.9069 262.19 57.7769 262.19H133.007C133.732 262.19 134.457 262.929 134.457 264.039C134.453 265.149 133.729 265.889 133.004 265.889Z" fill="white"/>
<path d="M130.262 229.767H95.0107C94.5316 229.766 94.0725 229.595 93.7337 229.291C93.395 228.987 93.2042 228.575 93.2031 228.144C93.2042 227.714 93.395 227.302 93.7337 226.998C94.0725 226.694 94.5316 226.523 95.0107 226.522H130.262C130.741 226.523 131.2 226.694 131.539 226.998C131.877 227.302 132.068 227.714 132.069 228.144C132.068 228.575 131.877 228.987 131.539 229.291C131.2 229.595 130.741 229.766 130.262 229.767Z" fill="white"/>
<path d="M120.841 239.789H94.555C93.8807 239.789 93.2031 239.14 93.2031 238.166C93.2031 237.354 93.7423 236.543 94.555 236.543H120.841C121.516 236.543 122.193 237.192 122.193 238.166C122.19 238.978 121.65 239.789 120.841 239.789Z" fill="white"/>
<path d="M192.139 63H121.362C117.848 63 115 65.8484 115 69.362V89.2431C115 92.7568 117.848 95.6051 121.362 95.6051H192.139C195.653 95.6051 198.501 92.7568 198.501 89.2431V69.362C198.501 65.8484 195.653 63 192.139 63Z" fill="#2D4AFB"/>
<path d="M115 74.9287H198.501V115.486C198.501 116.963 197.914 118.379 196.871 119.423C195.827 120.467 194.411 121.053 192.934 121.053H120.567C119.09 121.053 117.674 120.467 116.63 119.423C115.586 118.379 115 116.963 115 115.486V74.9287Z" fill="#9C9CA1"/>
<path d="M123.258 71.032C124.19 71.032 124.946 70.2761 124.946 69.3437C124.946 68.4113 124.19 67.6554 123.258 67.6554C122.325 67.6554 121.569 68.4113 121.569 69.3437C121.569 70.2761 122.325 71.032 123.258 71.032Z" fill="white"/>
<path d="M132.075 69.3437C132.075 69.6776 131.976 70.004 131.791 70.2817C131.605 70.5593 131.342 70.7757 131.033 70.9035C130.725 71.0313 130.385 71.0647 130.058 70.9996C129.73 70.9344 129.429 70.7736 129.193 70.5375C128.957 70.3014 128.796 70.0006 128.731 69.6731C128.666 69.3456 128.699 69.0061 128.827 68.6976C128.955 68.3891 129.171 68.1254 129.449 67.9399C129.727 67.7544 130.053 67.6554 130.387 67.6554C131.323 67.4677 132.075 68.2184 132.075 69.3437Z" fill="white"/>
<path d="M139.017 69.3437C139.017 69.6776 138.918 70.004 138.733 70.2817C138.547 70.5593 138.284 70.7757 137.975 70.9035C137.667 71.0313 137.327 71.0647 137 70.9995C136.672 70.9344 136.371 70.7736 136.135 70.5375C135.899 70.3014 135.738 70.0006 135.673 69.6731C135.608 69.3456 135.641 69.0061 135.769 68.6976C135.897 68.3891 136.113 68.1254 136.391 67.9399C136.669 67.7544 136.995 67.6554 137.329 67.6554C137.555 67.6384 137.782 67.6704 137.995 67.7492C138.207 67.828 138.4 67.9518 138.56 68.1121C138.721 68.2724 138.845 68.4655 138.923 68.678C139.002 68.8906 139.034 69.1176 139.017 69.3437Z" fill="white"/>
<path d="M140.355 83.9126H125.501C125.062 83.9126 124.706 84.2686 124.706 84.7078V108.294C124.706 108.733 125.062 109.089 125.501 109.089H140.355C140.794 109.089 141.15 108.733 141.15 108.294V84.7078C141.15 84.2686 140.794 83.9126 140.355 83.9126Z" fill="#F4F6FA"/>
<path d="M187.938 84.6275H147.246C146.456 84.6275 145.816 85.2677 145.816 86.0574C145.816 86.8471 146.456 87.4872 147.246 87.4872H187.938C188.728 87.4872 189.368 86.8471 189.368 86.0574C189.368 85.2677 188.728 84.6275 187.938 84.6275Z" fill="#F4F6FA"/>
<path d="M183.71 91.4197H147.246C146.456 91.4197 145.816 92.0599 145.816 92.8496C145.816 93.6393 146.456 94.2794 147.246 94.2794H183.71C184.499 94.2794 185.139 93.6393 185.139 92.8496C185.139 92.0599 184.499 91.4197 183.71 91.4197Z" fill="#F4F6FA"/>
<path d="M184.72 98.2119H147.246C146.456 98.2119 145.816 98.8521 145.816 99.6418C145.816 100.431 146.456 101.072 147.246 101.072H184.72C185.51 101.072 186.15 100.431 186.15 99.6418C186.15 98.8521 185.51 98.2119 184.72 98.2119Z" fill="#F4F6FA"/>
<path d="M175.13 105.004H147.246C146.456 105.004 145.816 105.644 145.816 106.434C145.816 107.224 146.456 107.864 147.246 107.864H175.13C175.919 107.864 176.559 107.224 176.559 106.434C176.559 105.644 175.919 105.004 175.13 105.004Z" fill="#F4F6FA"/>
</svg>
