<svg width="400" height="304" viewBox="0 0 400 304" fill="none" xmlns="http://www.w3.org/2000/svg">
<path opacity="0.1" d="M376.074 164.591C362.012 183.887 366.653 211.43 374.781 233.373C377.504 240.718 380.596 248.488 379.185 256.48C377.461 266.25 369.357 273.57 360.934 277.557C345.579 284.824 327.44 283.663 313.704 274.508C301.851 266.605 293.507 253.473 281.423 245.948C261.201 233.358 234.948 238.983 212.441 248.595C196.518 255.395 179.075 264.152 163.558 257.873C152.639 253.455 145.286 242.209 141.418 230.187C139.55 224.382 138.242 218.082 134.521 213.538C132.308 210.837 129.385 208.955 126.378 207.382C98.9395 193.014 63.6453 201.994 37.0435 185.963C19.0839 175.137 7.90581 154.128 3.26146 132.041C-1.3829 109.954 -0.233483 86.6393 1.61636 63.7228C2.931 47.437 5.01072 30.0342 14.8023 17.2361C25.1578 3.70537 42.514 -1.67174 58.0347 0.447495C73.5554 2.56673 87.4705 11.1873 99.6435 21.4782C114.87 34.3157 128.878 50.4327 147.815 55.3069C160.713 58.6259 174.417 56.2767 187.825 55.2387C210.239 53.5074 232.573 55.5009 254.771 57.753C276.021 59.9082 297.418 62.3148 317.544 69.3801C331.786 74.38 343.075 83.8304 356.484 90.2887C365.223 94.4984 374.839 95.4754 383.064 100.914C393.215 107.612 402.389 119.48 399.411 133.722C396.598 147.26 383.545 154.351 376.074 164.591Z" fill="#C0BCCF"/>
<g opacity="0.5">
<path opacity="0.5" d="M307.105 252.6C307.105 252.6 308.291 217.485 327.288 197.644C335.263 189.318 340.5 178.743 341.886 167.299C342.534 161.868 342.683 156.389 342.331 150.931" stroke="#535461" stroke-miterlimit="10"/>
<path opacity="0.5" d="M311.279 238.067C311.279 238.067 300.504 222.392 302.393 207.644C303.226 201.463 302.031 195.178 298.988 189.734C297.523 187.161 295.825 184.728 293.916 182.464" stroke="#535461" stroke-miterlimit="10"/>
<path opacity="0.5" d="M295.055 173.161C295.748 175.288 293.916 182.709 293.916 182.709C293.916 182.709 288.051 177.802 287.357 175.679C287.024 174.658 287.11 173.547 287.596 172.589C288.082 171.632 288.928 170.907 289.949 170.573C290.97 170.24 292.081 170.326 293.039 170.812C293.996 171.298 294.721 172.144 295.055 173.165V173.161Z" fill="#38D39F"/>
<path opacity="0.5" d="M305.267 182.856C304.696 185.011 299.121 190.252 299.121 190.252C299.121 190.252 296.865 182.946 297.436 180.783C297.711 179.745 298.387 178.858 299.316 178.318C300.244 177.778 301.349 177.63 302.388 177.904C303.426 178.179 304.313 178.855 304.853 179.784C305.393 180.712 305.542 181.817 305.267 182.856Z" fill="#38D39F"/>
<path opacity="0.5" d="M311.567 203.064C309.983 204.641 302.53 206.347 302.53 206.347C302.53 206.347 304.268 198.901 305.856 197.324C306.233 196.949 306.681 196.652 307.173 196.45C307.665 196.248 308.192 196.145 308.724 196.147C309.256 196.148 309.783 196.255 310.274 196.46C310.764 196.665 311.21 196.965 311.585 197.342C311.96 197.719 312.257 198.167 312.459 198.659C312.661 199.151 312.764 199.678 312.763 200.21C312.761 200.742 312.654 201.269 312.449 201.76C312.244 202.25 311.944 202.696 311.567 203.071V203.064Z" fill="#38D39F"/>
<path opacity="0.5" d="M312.893 219.432C311.596 221.253 304.523 224.188 304.523 224.188C304.523 224.188 304.98 216.555 306.276 214.734C306.584 214.301 306.975 213.932 307.425 213.649C307.876 213.367 308.377 213.176 308.902 213.087C309.426 212.998 309.963 213.014 310.481 213.132C310.999 213.251 311.489 213.471 311.923 213.779C312.356 214.087 312.725 214.477 313.007 214.928C313.29 215.378 313.481 215.88 313.57 216.404C313.659 216.928 313.643 217.465 313.525 217.983C313.406 218.502 313.186 218.992 312.878 219.425L312.893 219.432Z" fill="#38D39F"/>
<path opacity="0.5" d="M291.175 193.298C293.183 194.282 300.787 193.492 300.787 193.492C300.787 193.492 296.739 187.004 294.731 186.024C293.767 185.552 292.655 185.483 291.639 185.832C290.624 186.18 289.788 186.918 289.317 187.883C288.845 188.847 288.776 189.96 289.125 190.975C289.473 191.991 290.211 192.826 291.175 193.298Z" fill="#38D39F"/>
<path opacity="0.5" d="M292.968 212.424C295.18 212.762 302.199 209.734 302.199 209.734C302.199 209.734 296.394 204.756 294.185 204.432C293.124 204.271 292.041 204.538 291.176 205.174C290.311 205.811 289.735 206.765 289.573 207.827C289.412 208.889 289.679 209.971 290.315 210.836C290.952 211.701 291.906 212.277 292.968 212.439V212.424Z" fill="#38D39F"/>
<path opacity="0.5" d="M297.257 230.768C299.38 231.487 306.811 229.691 306.811 229.691C306.811 229.691 301.934 223.804 299.811 223.096C298.791 222.757 297.679 222.838 296.719 223.319C295.759 223.8 295.029 224.643 294.69 225.663C294.352 226.682 294.432 227.794 294.913 228.754C295.395 229.714 296.238 230.444 297.257 230.783V230.768Z" fill="#38D39F"/>
<path opacity="0.5" d="M295.055 173.161C295.748 175.288 293.916 182.709 293.916 182.709C293.916 182.709 288.051 177.802 287.357 175.679C287.024 174.658 287.11 173.547 287.596 172.589C288.082 171.632 288.928 170.907 289.949 170.573C290.97 170.24 292.081 170.326 293.039 170.812C293.996 171.298 294.721 172.144 295.055 173.165V173.161Z" fill="white"/>
<path opacity="0.5" d="M305.267 182.856C304.696 185.011 299.121 190.252 299.121 190.252C299.121 190.252 296.865 182.946 297.436 180.783C297.711 179.745 298.387 178.858 299.316 178.318C300.244 177.778 301.349 177.63 302.388 177.904C303.426 178.179 304.313 178.855 304.853 179.784C305.393 180.712 305.542 181.817 305.267 182.856Z" fill="white"/>
<path opacity="0.5" d="M311.567 203.064C309.983 204.641 302.53 206.347 302.53 206.347C302.53 206.347 304.268 198.901 305.856 197.324C306.233 196.949 306.681 196.652 307.173 196.45C307.665 196.248 308.192 196.145 308.724 196.147C309.256 196.148 309.783 196.255 310.274 196.46C310.764 196.665 311.21 196.965 311.585 197.342C311.96 197.719 312.257 198.167 312.459 198.659C312.661 199.151 312.764 199.678 312.763 200.21C312.761 200.742 312.654 201.269 312.449 201.76C312.244 202.25 311.944 202.696 311.567 203.071V203.064Z" fill="white"/>
<path opacity="0.5" d="M312.893 219.432C311.596 221.253 304.523 224.188 304.523 224.188C304.523 224.188 304.98 216.555 306.276 214.734C306.584 214.301 306.975 213.932 307.425 213.649C307.876 213.367 308.377 213.176 308.902 213.087C309.426 212.998 309.963 213.014 310.481 213.132C310.999 213.251 311.489 213.471 311.923 213.779C312.356 214.087 312.725 214.477 313.007 214.928C313.29 215.378 313.481 215.88 313.57 216.404C313.659 216.928 313.643 217.465 313.525 217.983C313.406 218.502 313.186 218.992 312.878 219.425L312.893 219.432Z" fill="white"/>
<path opacity="0.5" d="M291.175 193.298C293.183 194.282 300.787 193.492 300.787 193.492C300.787 193.492 296.739 187.004 294.731 186.024C293.767 185.552 292.655 185.483 291.639 185.832C290.624 186.18 289.788 186.918 289.317 187.883C288.845 188.847 288.776 189.96 289.125 190.975C289.473 191.991 290.211 192.826 291.175 193.298Z" fill="white"/>
<path opacity="0.5" d="M292.968 212.424C295.18 212.762 302.199 209.734 302.199 209.734C302.199 209.734 296.394 204.756 294.185 204.432C293.124 204.271 292.041 204.538 291.176 205.174C290.311 205.811 289.735 206.765 289.573 207.827C289.412 208.889 289.679 209.971 290.315 210.836C290.952 211.701 291.906 212.277 292.968 212.439V212.424Z" fill="white"/>
<path opacity="0.5" d="M297.257 230.768C299.38 231.487 306.811 229.691 306.811 229.691C306.811 229.691 301.934 223.804 299.811 223.096C298.791 222.757 297.679 222.838 296.719 223.319C295.759 223.8 295.029 224.643 294.69 225.663C294.352 226.682 294.432 227.794 294.913 228.754C295.395 229.714 296.238 230.444 297.257 230.783V230.768Z" fill="white"/>
<path opacity="0.5" d="M291.341 280.57H321.991L329.656 233.829H283.679L291.341 280.57Z" fill="#474059"/>
<path opacity="0.1" d="M289.545 233.829L296.704 277.507H322.493L321.991 280.57H291.341L283.679 233.829H289.545Z" fill="black"/>
<path opacity="0.5" d="M354.232 138.363C352.931 142.285 342.062 151.294 342.062 151.294C342.062 151.294 338.732 137.569 340.033 133.65C340.342 132.718 340.832 131.855 341.474 131.112C342.117 130.369 342.899 129.76 343.777 129.32C344.655 128.879 345.611 128.616 346.591 128.545C347.57 128.473 348.554 128.596 349.487 128.905C350.419 129.214 351.281 129.704 352.024 130.347C352.767 130.989 353.376 131.772 353.817 132.649C354.258 133.527 354.521 134.483 354.592 135.463C354.663 136.443 354.541 137.427 354.232 138.359V138.363Z" fill="#62BD23"/>
<path opacity="0.5" d="M358.761 163.973C355.529 166.559 341.52 168.219 341.52 168.219C341.52 168.219 346.19 154.889 349.422 152.307C350.183 151.645 351.069 151.143 352.028 150.833C352.987 150.522 353.999 150.409 355.003 150.499C356.006 150.589 356.982 150.882 357.87 151.359C358.758 151.836 359.54 152.487 360.17 153.274C360.8 154.061 361.265 154.967 361.535 155.938C361.806 156.909 361.878 157.925 361.746 158.924C361.615 159.923 361.283 160.886 360.77 161.753C360.257 162.621 359.573 163.376 358.761 163.973Z" fill="#62BD23"/>
<path opacity="0.5" d="M345.945 200.912C341.858 201.516 328.916 195.884 328.916 195.884C328.916 195.884 339.67 186.731 343.758 186.128C344.73 185.984 345.72 186.034 346.673 186.273C347.625 186.512 348.522 186.936 349.31 187.522C350.099 188.107 350.765 188.843 351.269 189.685C351.774 190.528 352.107 191.462 352.251 192.434C352.395 193.405 352.345 194.396 352.106 195.349C351.867 196.301 351.443 197.197 350.857 197.986C350.272 198.775 349.536 199.44 348.694 199.945C347.851 200.449 346.917 200.783 345.945 200.927V200.912Z" fill="#62BD23"/>
<path opacity="0.5" d="M329.95 226.681C326.024 227.967 312.314 224.59 312.314 224.59C312.314 224.59 321.369 213.753 325.295 212.468C327.18 211.848 329.234 212.003 331.004 212.898C332.775 213.793 334.117 215.355 334.736 217.239C335.356 219.124 335.201 221.178 334.306 222.948C333.411 224.719 331.849 226.062 329.965 226.681H329.95Z" fill="#62BD23"/>
<path opacity="0.5" d="M326.359 164.034C328.266 167.698 340.443 174.871 340.443 174.871C340.443 174.871 341.549 160.794 339.642 157.127C339.188 156.256 338.568 155.482 337.816 154.851C337.064 154.219 336.194 153.742 335.258 153.447C334.321 153.151 333.336 153.043 332.357 153.129C331.379 153.214 330.427 153.491 329.556 153.944C328.684 154.398 327.911 155.018 327.279 155.77C326.648 156.523 326.171 157.392 325.875 158.328C325.58 159.265 325.472 160.251 325.557 161.229C325.643 162.207 325.92 163.159 326.373 164.031L326.359 164.034Z" fill="#62BD23"/>
<path opacity="0.5" d="M308.036 194.404C310.953 197.331 324.703 200.535 324.703 200.535C324.703 200.535 321.545 186.771 318.632 183.844C317.232 182.438 315.332 181.647 313.348 181.643C311.365 181.64 309.461 182.424 308.056 183.824C306.651 185.224 305.859 187.124 305.855 189.108C305.852 191.091 306.636 192.995 308.036 194.4V194.404Z" fill="#62BD23"/>
<path opacity="0.5" d="M294.279 226.368C296.657 229.745 309.67 235.23 309.67 235.23C309.67 235.23 308.887 221.131 306.506 217.751C305.955 216.913 305.241 216.195 304.407 215.638C303.572 215.082 302.635 214.699 301.649 214.512C300.664 214.326 299.651 214.339 298.671 214.552C297.691 214.764 296.764 215.172 295.945 215.75C295.125 216.329 294.431 217.066 293.902 217.918C293.373 218.77 293.022 219.72 292.868 220.711C292.714 221.702 292.76 222.714 293.005 223.686C293.25 224.659 293.688 225.572 294.293 226.372L294.279 226.368Z" fill="#62BD23"/>
</g>
<path d="M297.152 14.1145H72.2979V285.412H297.152V14.1145Z" fill="url(#paint0_linear)"/>
<path d="M294.279 17.5843H75.1719V281.95H294.279V17.5843Z" fill="#29323D"/>
<path d="M248.662 47.3972H160.3V51.7075H248.662V47.3972Z" fill="#BDBDBD"/>
<path d="M248.662 61.0465H160.3V65.3568H248.662V61.0465Z" fill="#BDBDBD"/>
<path d="M227.469 74.6958H181.493V79.0061H227.469V74.6958Z" fill="#FF9029" fill-opacity="0.65"/>
<path opacity="0.5" d="M248.662 133.963H160.3V138.273H248.662V133.963Z" fill="#BDBDBD"/>
<path opacity="0.5" d="M248.662 147.612H160.3V151.922H248.662V147.612Z" fill="#BDBDBD"/>
<path opacity="0.5" d="M227.469 161.261H181.493V165.571H227.469V161.261Z" fill="#F08F33"/>
<path opacity="0.5" d="M248.662 220.528H160.3V224.838H248.662V220.528Z" fill="#BDBDBD"/>
<path opacity="0.5" d="M248.662 234.177H160.3V238.487H248.662V234.177Z" fill="#BDBDBD"/>
<path opacity="0.5" d="M227.469 247.826H181.493V252.137H227.469V247.826Z" fill="#FF9029" fill-opacity="0.46"/>
<g opacity="0.5">
<path opacity="0.5" d="M129.19 158.003L127.337 157.17C127.365 156.888 127.377 156.605 127.373 156.322C127.386 156.083 127.386 155.843 127.373 155.604C127.19 153.714 125.986 152.069 125.135 150.342C124.356 148.765 123.861 147.062 123.673 145.313C123.447 143.158 123.673 140.924 122.883 138.898C122.24 137.263 120.968 135.899 119.607 134.692C118.079 133.258 116.294 132.126 114.345 131.355C112.355 130.636 110.067 130.453 108.077 131.186C106.281 131.847 104.898 133.165 103.562 134.447C102.592 135.302 101.735 136.278 101.012 137.35C100.196 138.686 99.8479 140.223 99.5749 141.739C99.146 144.166 98.851 146.614 98.6912 149.074C98.5512 151.125 98.3321 153.452 96.5792 154.709C95.7243 155.324 94.521 155.668 94.1295 156.599C94.0186 156.878 93.9743 157.179 94.0002 157.479C93.9894 157.728 94.0075 157.977 94.0541 158.222C94.0792 158.366 94.108 158.506 94.1439 158.65C93.6408 159.9 93.2185 161.181 92.8795 162.486C92.6173 163.456 92.3766 164.408 92.1611 165.331H92.743H93.0519L96.3996 165.41H96.4463L100.038 165.492H100.056L103.404 165.571H103.486L104.453 165.64H104.769L118.156 165.949H118.228L119.119 165.97H119.431L122.111 166.031L126.062 166.121H126.09L129.065 166.193H129.381H129.991L129.833 163.075C130.487 158.301 129.19 158.003 129.19 158.003ZM114.151 157.622C114.151 160.266 111.32 163.502 111.32 163.502L108.472 159.623L108.576 159.472L111.32 163.208C111.32 163.208 114.151 159.975 114.151 157.328C114.217 157.193 114.292 157.064 114.377 156.94L114.442 157.141C114.333 157.294 114.236 157.455 114.151 157.622ZM118.504 167.996C118.504 167.863 118.504 167.727 118.479 167.594C118.454 167.461 118.458 167.342 118.44 167.213C118.422 167.084 118.407 166.958 118.389 166.829C118.371 166.699 118.346 166.574 118.321 166.444C118.296 166.315 118.271 166.189 118.242 166.06C118.242 166.017 118.224 165.977 118.213 165.931C118.174 165.762 118.131 165.593 118.084 165.424C118.037 165.255 118.009 165.151 117.966 165.018C117.966 164.957 117.93 164.896 117.908 164.839C117.886 164.781 117.847 164.645 117.815 164.548L117.75 164.361C117.721 164.278 117.693 164.192 117.66 164.109C117.606 163.959 117.549 163.811 117.491 163.66C117.434 163.51 117.373 163.362 117.312 163.215C117.19 162.913 117.057 162.615 116.924 162.314C116.403 161.15 115.818 160.004 115.279 158.869C114.99 158.275 114.733 157.666 114.51 157.044L114.442 157.134C114.333 157.288 114.236 157.45 114.151 157.619C114.151 160.263 111.32 163.499 111.32 163.499L108.472 159.62L105.979 163.211C105.62 163.391 105.261 164.002 104.981 164.871C104.902 165.104 104.826 165.363 104.754 165.632C104.704 165.816 104.657 165.992 104.614 166.196C104.589 166.293 104.568 166.39 104.546 166.491L104.481 166.796V166.843C104.438 167.051 104.395 167.267 104.356 167.486C104.316 167.705 104.27 167.956 104.23 168.204C104.201 168.36 104.176 168.514 104.155 168.668C104.104 168.966 104.061 169.267 104.018 169.569C103.993 169.745 103.968 169.928 103.946 170.09L103.86 170.758C104.043 171.308 104.248 171.836 104.46 172.389C104.595 172.679 104.674 172.992 104.693 173.312C109.112 174.49 113.762 174.49 118.181 173.312C118.18 173.301 118.18 173.29 118.181 173.28C118.115 172.979 118.086 172.671 118.095 172.364C118.167 171.501 118.287 170.642 118.454 169.792C118.507 169.373 118.53 168.95 118.522 168.528V168.377C118.511 168.24 118.508 168.118 118.504 168V167.996ZM118.504 167.996C118.504 167.863 118.504 167.727 118.479 167.594C118.454 167.461 118.458 167.342 118.44 167.213C118.422 167.084 118.407 166.958 118.389 166.829C118.371 166.699 118.346 166.574 118.321 166.444C118.296 166.315 118.271 166.189 118.242 166.06C118.242 166.017 118.224 165.977 118.213 165.931C118.174 165.762 118.131 165.593 118.084 165.424C118.037 165.255 118.009 165.151 117.966 165.018C117.966 164.957 117.93 164.896 117.908 164.839C117.886 164.781 117.847 164.645 117.815 164.548L117.75 164.361C117.721 164.278 117.693 164.192 117.66 164.109C117.606 163.959 117.549 163.811 117.491 163.66C117.434 163.51 117.373 163.362 117.312 163.215C117.19 162.913 117.057 162.615 116.924 162.314C116.403 161.15 115.818 160.004 115.279 158.869C114.99 158.275 114.733 157.666 114.51 157.044L114.442 157.134C114.333 157.288 114.236 157.45 114.151 157.619C114.151 160.263 111.32 163.499 111.32 163.499L108.472 159.62L105.979 163.211C105.62 163.391 105.261 164.002 104.981 164.871C104.902 165.104 104.826 165.363 104.754 165.632C104.704 165.816 104.657 165.992 104.614 166.196C104.589 166.293 104.568 166.39 104.546 166.491L104.481 166.796V166.843C104.438 167.051 104.395 167.267 104.356 167.486C104.316 167.705 104.27 167.956 104.23 168.204C104.201 168.36 104.176 168.514 104.155 168.668C104.104 168.966 104.061 169.267 104.018 169.569C103.993 169.745 103.968 169.928 103.946 170.09L103.86 170.758C104.043 171.308 104.248 171.836 104.46 172.389C104.595 172.679 104.674 172.992 104.693 173.312C109.112 174.49 113.762 174.49 118.181 173.312C118.18 173.301 118.18 173.29 118.181 173.28C118.115 172.979 118.086 172.671 118.095 172.364C118.167 171.501 118.287 170.642 118.454 169.792C118.507 169.373 118.53 168.95 118.522 168.528V168.377C118.511 168.24 118.508 168.118 118.504 168V167.996ZM118.504 167.996C118.504 167.863 118.504 167.727 118.479 167.594C118.454 167.461 118.458 167.342 118.44 167.213C118.422 167.084 118.407 166.958 118.389 166.829C118.371 166.699 118.346 166.574 118.321 166.444C118.296 166.315 118.271 166.189 118.242 166.06C118.242 166.017 118.224 165.977 118.213 165.931C118.174 165.762 118.131 165.593 118.084 165.424C118.037 165.255 118.009 165.151 117.966 165.018C117.966 164.957 117.93 164.896 117.908 164.839C117.886 164.781 117.847 164.645 117.815 164.548L117.75 164.361C117.721 164.278 117.693 164.192 117.66 164.109C117.606 163.959 117.549 163.811 117.491 163.66C117.434 163.51 117.373 163.362 117.312 163.215C117.19 162.913 117.057 162.615 116.924 162.314C116.403 161.15 115.818 160.004 115.279 158.869C114.99 158.275 114.733 157.666 114.51 157.044L114.442 157.134C114.333 157.288 114.236 157.45 114.151 157.619C114.151 160.263 111.32 163.499 111.32 163.499L108.472 159.62L105.979 163.211C105.62 163.391 105.261 164.002 104.981 164.871C104.902 165.104 104.826 165.363 104.754 165.632C104.704 165.816 104.657 165.992 104.614 166.196C104.589 166.293 104.568 166.39 104.546 166.491L104.481 166.796V166.843C104.438 167.051 104.395 167.267 104.356 167.486C104.316 167.705 104.27 167.956 104.23 168.204C104.201 168.36 104.176 168.514 104.155 168.668C104.104 168.966 104.061 169.267 104.018 169.569C103.993 169.745 103.968 169.928 103.946 170.09L103.86 170.758C104.043 171.308 104.248 171.836 104.46 172.389C104.595 172.679 104.674 172.992 104.693 173.312C109.112 174.49 113.762 174.49 118.181 173.312C118.18 173.301 118.18 173.29 118.181 173.28C118.115 172.979 118.086 172.671 118.095 172.364C118.167 171.501 118.287 170.642 118.454 169.792C118.507 169.373 118.53 168.95 118.522 168.528V168.377C118.511 168.24 118.508 168.118 118.504 168V167.996ZM118.504 167.996C118.504 167.863 118.504 167.727 118.479 167.594C118.454 167.461 118.458 167.342 118.44 167.213C118.422 167.084 118.407 166.958 118.389 166.829C118.371 166.699 118.346 166.574 118.321 166.444C118.296 166.315 118.271 166.189 118.242 166.06C118.242 166.017 118.224 165.977 118.213 165.931C118.174 165.762 118.131 165.593 118.084 165.424C118.037 165.255 118.009 165.151 117.966 165.018C117.966 164.957 117.93 164.896 117.908 164.839C117.886 164.781 117.847 164.645 117.815 164.548L117.75 164.361C117.721 164.278 117.693 164.192 117.66 164.109C117.606 163.959 117.549 163.811 117.491 163.66C117.434 163.51 117.373 163.362 117.312 163.215C117.19 162.913 117.057 162.615 116.924 162.314C116.403 161.15 115.818 160.004 115.279 158.869C114.99 158.275 114.733 157.666 114.51 157.044L114.442 157.134C114.333 157.288 114.236 157.45 114.151 157.619C114.151 160.263 111.32 163.499 111.32 163.499L108.472 159.62L105.979 163.211C105.62 163.391 105.261 164.002 104.981 164.871C104.902 165.104 104.826 165.363 104.754 165.632C104.704 165.816 104.657 165.992 104.614 166.196C104.589 166.293 104.568 166.39 104.546 166.491L104.481 166.796V166.843C104.438 167.051 104.395 167.267 104.356 167.486C104.316 167.705 104.27 167.956 104.23 168.204C104.201 168.36 104.176 168.514 104.155 168.668C104.104 168.966 104.061 169.267 104.018 169.569C103.993 169.745 103.968 169.928 103.946 170.09L103.86 170.758C104.043 171.308 104.248 171.836 104.46 172.389C104.595 172.679 104.674 172.992 104.693 173.312C109.112 174.49 113.762 174.49 118.181 173.312C118.18 173.301 118.18 173.29 118.181 173.28C118.115 172.979 118.086 172.671 118.095 172.364C118.167 171.501 118.287 170.642 118.454 169.792C118.507 169.373 118.53 168.95 118.522 168.528V168.377C118.511 168.24 118.508 168.118 118.504 168V167.996Z" fill="url(#paint1_linear)"/>
<path opacity="0.5" d="M118.634 142.942H102.111V154.077H118.634V142.942Z" fill="#493545"/>
<path opacity="0.5" d="M121.378 155.223L114.463 164.964L107.236 164.336C107.236 164.336 97.8075 164.961 104.093 157.737C107.114 154.264 108.102 151.369 108.314 149.304C108.544 147.069 107.865 145.798 107.865 145.798L115.72 144.857C115.366 145.915 115.321 147.053 115.591 148.136C116.575 152.217 121.378 155.223 121.378 155.223Z" fill="#C77485"/>
<path opacity="0.1" d="M115.588 148.125C114.563 148.901 113.364 149.414 112.095 149.618C110.826 149.822 109.527 149.712 108.31 149.296C108.54 147.062 107.861 145.791 107.861 145.791L115.717 144.85C115.363 145.907 115.318 147.043 115.588 148.125Z" fill="black"/>
<path opacity="0.5" d="M110.85 149.404C115.189 149.404 118.706 145.887 118.706 141.549C118.706 137.21 115.189 133.693 110.85 133.693C106.512 133.693 102.995 137.21 102.995 141.549C102.995 145.887 106.512 149.404 110.85 149.404Z" fill="#C77485"/>
<path opacity="0.1" d="M121.091 155.625L120.907 154.907L120.749 154.275L120.516 153.341L120.473 153.169L120.437 153.025C120.437 153.025 120.624 152.461 119.392 152.644L119.162 152.684C118.968 152.723 118.741 152.777 118.483 152.849L118.249 152.921L117.94 153.018C116.962 153.336 116.07 153.874 115.333 154.591C115.002 154.908 114.709 155.262 114.46 155.647C114.435 155.683 114.417 155.715 114.395 155.744C114.31 155.877 114.235 156.017 114.169 156.161C114.169 158.991 111.338 162.446 111.338 162.446L108.576 158.456L108.522 158.377L107.865 157.421L107.632 157.112L107.553 157.005L106.116 155.076L105.757 154.594L105.638 154.433L105.462 154.199L105.049 153.65L103.433 154.594L101.278 155.852L100.02 164.023V164.25L100.06 164.925L100.322 169.364V169.426L99.8623 171.265L99.9306 171.301C101.015 171.886 102.144 172.385 103.307 172.795L103.612 172.903C103.971 173.021 104.309 173.129 104.661 173.233C104.674 173.286 104.684 173.34 104.69 173.395C104.69 173.344 104.69 173.29 104.69 173.24C109.098 174.5 113.77 174.5 118.178 173.24L118.26 173.215C118.465 173.158 118.673 173.096 118.874 173.028L119.201 172.924C120.088 172.628 120.956 172.28 121.802 171.882L122.103 165.453L122.319 160.816V160.55L121.091 155.625Z" fill="black"/>
<path opacity="0.5" d="M118.504 167.569C118.504 167.425 118.504 167.281 118.479 167.138C118.454 166.994 118.458 166.868 118.44 166.732C118.422 166.595 118.407 166.459 118.39 166.322C118.372 166.186 118.346 166.049 118.321 165.913C118.296 165.776 118.271 165.64 118.242 165.503C118.242 165.456 118.224 165.413 118.214 165.367C118.174 165.187 118.131 165.008 118.084 164.824C118.038 164.641 118.009 164.533 117.966 164.39C117.966 164.325 117.93 164.26 117.908 164.199C117.887 164.138 117.847 163.991 117.815 163.887L117.75 163.686C117.721 163.596 117.693 163.506 117.66 163.416C117.606 163.255 117.549 163.097 117.492 162.935C117.434 162.773 117.373 162.615 117.312 162.457C117.19 162.134 117.057 161.814 116.924 161.495C116.403 160.252 115.818 159.027 115.279 157.813C114.989 157.176 114.733 156.525 114.51 155.862L114.442 155.959C114.333 156.125 114.236 156.298 114.151 156.477C114.151 159.304 111.321 162.763 111.321 162.763L108.472 158.614L105.979 162.446C105.62 162.637 105.261 163.291 104.981 164.221C104.902 164.472 104.826 164.745 104.755 165.036C104.704 165.23 104.658 165.435 104.615 165.64C104.589 165.744 104.568 165.848 104.546 165.956L104.482 166.283V166.333C104.438 166.556 104.395 166.786 104.356 167.019C104.316 167.252 104.27 167.522 104.23 167.777C104.201 167.942 104.176 168.107 104.155 168.273C104.104 168.592 104.061 168.916 104.018 169.235C103.993 169.422 103.968 169.594 103.946 169.792L103.86 170.51C104.043 171.099 104.248 171.681 104.46 172.252C104.595 172.565 104.674 172.9 104.694 173.24C109.101 174.5 113.774 174.5 118.181 173.24C118.18 173.228 118.18 173.216 118.181 173.204C118.115 172.882 118.086 172.553 118.095 172.224C118.167 171.302 118.287 170.385 118.454 169.476C118.507 169.028 118.53 168.577 118.522 168.125V167.964C118.512 167.827 118.508 167.698 118.504 167.569ZM118.504 167.569C118.504 167.425 118.504 167.281 118.479 167.138C118.454 166.994 118.458 166.868 118.44 166.732C118.422 166.595 118.407 166.459 118.39 166.322C118.372 166.186 118.346 166.049 118.321 165.913C118.296 165.776 118.271 165.64 118.242 165.503C118.242 165.456 118.224 165.413 118.214 165.367C118.174 165.187 118.131 165.008 118.084 164.824C118.038 164.641 118.009 164.533 117.966 164.39C117.966 164.325 117.93 164.26 117.908 164.199C117.887 164.138 117.847 163.991 117.815 163.887L117.75 163.686C117.721 163.596 117.693 163.506 117.66 163.416C117.606 163.255 117.549 163.097 117.492 162.935C117.434 162.773 117.373 162.615 117.312 162.457C117.19 162.134 117.057 161.814 116.924 161.495C116.403 160.252 115.818 159.027 115.279 157.813C114.989 157.176 114.733 156.525 114.51 155.862L114.442 155.959C114.333 156.125 114.236 156.298 114.151 156.477C114.151 159.304 111.321 162.763 111.321 162.763L108.472 158.614L105.979 162.446C105.62 162.637 105.261 163.291 104.981 164.221C104.902 164.472 104.826 164.745 104.755 165.036C104.704 165.23 104.658 165.435 104.615 165.64C104.589 165.744 104.568 165.848 104.546 165.956L104.482 166.283V166.333C104.438 166.556 104.395 166.786 104.356 167.019C104.316 167.252 104.27 167.522 104.23 167.777C104.201 167.942 104.176 168.107 104.155 168.273C104.104 168.592 104.061 168.916 104.018 169.235C103.993 169.422 103.968 169.594 103.946 169.792L103.86 170.51C104.043 171.099 104.248 171.681 104.46 172.252C104.595 172.565 104.674 172.9 104.694 173.24C109.101 174.5 113.774 174.5 118.181 173.24C118.18 173.228 118.18 173.216 118.181 173.204C118.115 172.882 118.086 172.553 118.095 172.224C118.167 171.302 118.287 170.385 118.454 169.476C118.507 169.028 118.53 168.577 118.522 168.125V167.964C118.512 167.827 118.508 167.698 118.504 167.569ZM118.504 167.569C118.504 167.425 118.504 167.281 118.479 167.138C118.454 166.994 118.458 166.868 118.44 166.732C118.422 166.595 118.407 166.459 118.39 166.322C118.372 166.186 118.346 166.049 118.321 165.913C118.296 165.776 118.271 165.64 118.242 165.503C118.242 165.456 118.224 165.413 118.214 165.367C118.174 165.187 118.131 165.008 118.084 164.824C118.038 164.641 118.009 164.533 117.966 164.39C117.966 164.325 117.93 164.26 117.908 164.199C117.887 164.138 117.847 163.991 117.815 163.887L117.75 163.686C117.721 163.596 117.693 163.506 117.66 163.416C117.606 163.255 117.549 163.097 117.492 162.935C117.434 162.773 117.373 162.615 117.312 162.457C117.19 162.134 117.057 161.814 116.924 161.495C116.403 160.252 115.818 159.027 115.279 157.813C114.989 157.176 114.733 156.525 114.51 155.862L114.442 155.959C114.333 156.125 114.236 156.298 114.151 156.477C114.151 159.304 111.321 162.763 111.321 162.763L108.472 158.614L105.979 162.446C105.62 162.637 105.261 163.291 104.981 164.221C104.902 164.472 104.826 164.745 104.755 165.036C104.704 165.23 104.658 165.435 104.615 165.64C104.589 165.744 104.568 165.848 104.546 165.956L104.482 166.283V166.333C104.438 166.556 104.395 166.786 104.356 167.019C104.316 167.252 104.27 167.522 104.23 167.777C104.201 167.942 104.176 168.107 104.155 168.273C104.104 168.592 104.061 168.916 104.018 169.235C103.993 169.422 103.968 169.594 103.946 169.792L103.86 170.51C104.043 171.099 104.248 171.681 104.46 172.252C104.595 172.565 104.674 172.9 104.694 173.24C109.101 174.5 113.774 174.5 118.181 173.24C118.18 173.228 118.18 173.216 118.181 173.204C118.115 172.882 118.086 172.553 118.095 172.224C118.167 171.302 118.287 170.385 118.454 169.476C118.507 169.028 118.53 168.577 118.522 168.125V167.964C118.512 167.827 118.508 167.698 118.504 167.569ZM122.312 160.826L121.03 155.708L120.81 154.832L120.749 154.591L120.437 153.341C120.438 153.33 120.438 153.319 120.437 153.309C120.444 153.253 120.436 153.197 120.412 153.147C120.365 153.054 120.247 152.957 119.97 152.931C119.865 152.924 119.759 152.924 119.654 152.931C119.342 152.962 119.033 153.02 118.731 153.104C118.583 153.143 118.425 153.186 118.257 153.24L117.948 153.337H117.919C117.092 153.609 116.324 154.035 115.656 154.595C115.215 154.962 114.828 155.39 114.507 155.866L114.438 155.963C114.329 156.128 114.232 156.301 114.147 156.48C114.147 159.307 111.317 162.766 111.317 162.766L108.469 158.617L108.307 158.384L108.278 158.344L107.865 157.737L107.553 157.321L107.47 157.213L105.997 155.248L105.53 154.612V154.591L105.369 154.372L105.06 153.962L103.982 154.591L101.288 156.161L100.046 164.246V164.332L100.081 164.921L100.347 169.422V169.677L99.9414 171.297C101.026 171.882 102.155 172.382 103.318 172.791L103.623 172.899C103.982 173.017 104.32 173.125 104.672 173.229C104.685 173.283 104.695 173.337 104.701 173.391C104.701 173.341 104.701 173.287 104.701 173.237C109.108 174.496 113.781 174.496 118.188 173.237L118.271 173.211C118.476 173.154 118.684 173.093 118.885 173.025L119.212 172.921C120.098 172.624 120.967 172.276 121.813 171.879L122.111 165.456L122.326 160.87L122.312 160.826ZM104.647 173.229C104.66 173.283 104.669 173.337 104.676 173.391C104.676 173.341 104.676 173.287 104.676 173.237L104.647 173.229ZM118.504 167.569C118.504 167.425 118.504 167.281 118.479 167.138C118.454 166.994 118.458 166.868 118.44 166.732C118.422 166.595 118.407 166.459 118.39 166.322C118.372 166.186 118.346 166.049 118.321 165.913C118.296 165.776 118.271 165.64 118.242 165.503C118.242 165.456 118.224 165.413 118.214 165.367C118.174 165.187 118.131 165.008 118.084 164.824C118.038 164.641 118.009 164.533 117.966 164.39C117.966 164.325 117.93 164.26 117.908 164.199C117.887 164.138 117.847 163.991 117.815 163.887L117.75 163.686C117.721 163.596 117.693 163.506 117.66 163.416C117.606 163.255 117.549 163.097 117.492 162.935C117.434 162.773 117.373 162.615 117.312 162.457C117.19 162.134 117.057 161.814 116.924 161.495C116.403 160.252 115.818 159.027 115.279 157.813C114.989 157.176 114.733 156.525 114.51 155.862L114.442 155.959C114.333 156.125 114.236 156.298 114.151 156.477C114.151 159.304 111.321 162.763 111.321 162.763L108.472 158.614L105.979 162.446C105.62 162.637 105.261 163.291 104.981 164.221C104.902 164.472 104.826 164.745 104.755 165.036C104.704 165.23 104.658 165.435 104.615 165.64C104.589 165.744 104.568 165.848 104.546 165.956L104.482 166.283V166.333C104.438 166.556 104.395 166.786 104.356 167.019C104.316 167.252 104.27 167.522 104.23 167.777C104.201 167.942 104.176 168.107 104.155 168.273C104.104 168.592 104.061 168.916 104.018 169.235C103.993 169.422 103.968 169.594 103.946 169.792L103.86 170.51C104.043 171.099 104.248 171.681 104.46 172.252C104.595 172.565 104.674 172.9 104.694 173.24C109.101 174.5 113.774 174.5 118.181 173.24C118.18 173.228 118.18 173.216 118.181 173.204C118.115 172.882 118.086 172.553 118.095 172.224C118.167 171.302 118.287 170.385 118.454 169.476C118.507 169.028 118.53 168.577 118.522 168.125V167.964C118.512 167.827 118.508 167.698 118.504 167.569ZM118.504 167.569C118.504 167.425 118.504 167.281 118.479 167.138C118.454 166.994 118.458 166.868 118.44 166.732C118.422 166.595 118.407 166.459 118.39 166.322C118.372 166.186 118.346 166.049 118.321 165.913C118.296 165.776 118.271 165.64 118.242 165.503C118.242 165.456 118.224 165.413 118.214 165.367C118.174 165.187 118.131 165.008 118.084 164.824C118.038 164.641 118.009 164.533 117.966 164.39C117.966 164.325 117.93 164.26 117.908 164.199C117.887 164.138 117.847 163.991 117.815 163.887L117.75 163.686C117.721 163.596 117.693 163.506 117.66 163.416C117.606 163.255 117.549 163.097 117.492 162.935C117.434 162.773 117.373 162.615 117.312 162.457C117.19 162.134 117.057 161.814 116.924 161.495C116.403 160.252 115.818 159.027 115.279 157.813C114.989 157.176 114.733 156.525 114.51 155.862L114.442 155.959C114.333 156.125 114.236 156.298 114.151 156.477C114.151 159.304 111.321 162.763 111.321 162.763L108.472 158.614L105.979 162.446C105.62 162.637 105.261 163.291 104.981 164.221C104.902 164.472 104.826 164.745 104.755 165.036C104.704 165.23 104.658 165.435 104.615 165.64C104.589 165.744 104.568 165.848 104.546 165.956L104.482 166.283V166.333C104.438 166.556 104.395 166.786 104.356 167.019C104.316 167.252 104.27 167.522 104.23 167.777C104.201 167.942 104.176 168.107 104.155 168.273C104.104 168.592 104.061 168.916 104.018 169.235C103.993 169.422 103.968 169.594 103.946 169.792L103.86 170.51C104.043 171.099 104.248 171.681 104.46 172.252C104.595 172.565 104.674 172.9 104.694 173.24C109.101 174.5 113.774 174.5 118.181 173.24C118.18 173.228 118.18 173.216 118.181 173.204C118.115 172.882 118.086 172.553 118.095 172.224C118.167 171.302 118.287 170.385 118.454 169.476C118.507 169.028 118.53 168.577 118.522 168.125V167.964C118.512 167.827 118.508 167.698 118.504 167.569ZM118.504 167.569C118.504 167.425 118.504 167.281 118.479 167.138C118.454 166.994 118.458 166.868 118.44 166.732C118.422 166.595 118.407 166.459 118.39 166.322C118.372 166.186 118.346 166.049 118.321 165.913C118.296 165.776 118.271 165.64 118.242 165.503C118.242 165.456 118.224 165.413 118.214 165.367C118.174 165.187 118.131 165.008 118.084 164.824C118.038 164.641 118.009 164.533 117.966 164.39C117.966 164.325 117.93 164.26 117.908 164.199C117.887 164.138 117.847 163.991 117.815 163.887L117.75 163.686C117.721 163.596 117.693 163.506 117.66 163.416C117.606 163.255 117.549 163.097 117.492 162.935C117.434 162.773 117.373 162.615 117.312 162.457C117.19 162.134 117.057 161.814 116.924 161.495C116.403 160.252 115.818 159.027 115.279 157.813C114.989 157.176 114.733 156.525 114.51 155.862L114.442 155.959C114.333 156.125 114.236 156.298 114.151 156.477C114.151 159.304 111.321 162.763 111.321 162.763L108.472 158.614L105.979 162.446C105.62 162.637 105.261 163.291 104.981 164.221C104.902 164.472 104.826 164.745 104.755 165.036C104.704 165.23 104.658 165.435 104.615 165.64C104.589 165.744 104.568 165.848 104.546 165.956L104.482 166.283V166.333C104.438 166.556 104.395 166.786 104.356 167.019C104.316 167.252 104.27 167.522 104.23 167.777C104.201 167.942 104.176 168.107 104.155 168.273C104.104 168.592 104.061 168.916 104.018 169.235C103.993 169.422 103.968 169.594 103.946 169.792L103.86 170.51C104.043 171.099 104.248 171.681 104.46 172.252C104.595 172.565 104.674 172.9 104.694 173.24C109.101 174.5 113.774 174.5 118.181 173.24C118.18 173.228 118.18 173.216 118.181 173.204C118.115 172.882 118.086 172.553 118.095 172.224C118.167 171.302 118.287 170.385 118.454 169.476C118.507 169.028 118.53 168.577 118.522 168.125V167.964C118.512 167.827 118.508 167.698 118.504 167.569ZM118.504 167.569C118.504 167.425 118.504 167.281 118.479 167.138C118.454 166.994 118.458 166.868 118.44 166.732C118.422 166.595 118.407 166.459 118.39 166.322C118.372 166.186 118.346 166.049 118.321 165.913C118.296 165.776 118.271 165.64 118.242 165.503C118.242 165.456 118.224 165.413 118.214 165.367C118.174 165.187 118.131 165.008 118.084 164.824C118.038 164.641 118.009 164.533 117.966 164.39C117.966 164.325 117.93 164.26 117.908 164.199C117.887 164.138 117.847 163.991 117.815 163.887L117.75 163.686C117.721 163.596 117.693 163.506 117.66 163.416C117.606 163.255 117.549 163.097 117.492 162.935C117.434 162.773 117.373 162.615 117.312 162.457C117.19 162.134 117.057 161.814 116.924 161.495C116.403 160.252 115.818 159.027 115.279 157.813C114.989 157.176 114.733 156.525 114.51 155.862L114.442 155.959C114.333 156.125 114.236 156.298 114.151 156.477C114.151 159.304 111.321 162.763 111.321 162.763L108.472 158.614L105.979 162.446C105.62 162.637 105.261 163.291 104.981 164.221C104.902 164.472 104.826 164.745 104.755 165.036C104.704 165.23 104.658 165.435 104.615 165.64C104.589 165.744 104.568 165.848 104.546 165.956L104.482 166.283V166.333C104.438 166.556 104.395 166.786 104.356 167.019C104.316 167.252 104.27 167.522 104.23 167.777C104.201 167.942 104.176 168.107 104.155 168.273C104.104 168.592 104.061 168.916 104.018 169.235C103.993 169.422 103.968 169.594 103.946 169.792L103.86 170.51C104.043 171.099 104.248 171.681 104.46 172.252C104.595 172.565 104.674 172.9 104.694 173.24C109.101 174.5 113.774 174.5 118.181 173.24C118.18 173.228 118.18 173.216 118.181 173.204C118.115 172.882 118.086 172.553 118.095 172.224C118.167 171.302 118.287 170.385 118.454 169.476C118.507 169.028 118.53 168.577 118.522 168.125V167.964C118.512 167.827 118.508 167.698 118.504 167.569ZM118.504 167.569C118.504 167.425 118.504 167.281 118.479 167.138C118.454 166.994 118.458 166.868 118.44 166.732C118.422 166.595 118.407 166.459 118.39 166.322C118.372 166.186 118.346 166.049 118.321 165.913C118.296 165.776 118.271 165.64 118.242 165.503C118.242 165.456 118.224 165.413 118.214 165.367C118.174 165.187 118.131 165.008 118.084 164.824C118.038 164.641 118.009 164.533 117.966 164.39C117.966 164.325 117.93 164.26 117.908 164.199C117.887 164.138 117.847 163.991 117.815 163.887L117.75 163.686C117.721 163.596 117.693 163.506 117.66 163.416C117.606 163.255 117.549 163.097 117.492 162.935C117.434 162.773 117.373 162.615 117.312 162.457C117.19 162.134 117.057 161.814 116.924 161.495C116.403 160.252 115.818 159.027 115.279 157.813C114.989 157.176 114.733 156.525 114.51 155.862L114.442 155.959C114.333 156.125 114.236 156.298 114.151 156.477C114.151 159.304 111.321 162.763 111.321 162.763L108.472 158.614L105.979 162.446C105.62 162.637 105.261 163.291 104.981 164.221C104.902 164.472 104.826 164.745 104.755 165.036C104.704 165.23 104.658 165.435 104.615 165.64C104.589 165.744 104.568 165.848 104.546 165.956L104.482 166.283V166.333C104.438 166.556 104.395 166.786 104.356 167.019C104.316 167.252 104.27 167.522 104.23 167.777C104.201 167.942 104.176 168.107 104.155 168.273C104.104 168.592 104.061 168.916 104.018 169.235C103.993 169.422 103.968 169.594 103.946 169.792L103.86 170.51C104.043 171.099 104.248 171.681 104.46 172.252C104.595 172.565 104.674 172.9 104.694 173.24C109.101 174.5 113.774 174.5 118.181 173.24C118.18 173.228 118.18 173.216 118.181 173.204C118.115 172.882 118.086 172.553 118.095 172.224C118.167 171.302 118.287 170.385 118.454 169.476C118.507 169.028 118.53 168.577 118.522 168.125V167.964C118.512 167.827 118.508 167.698 118.504 167.569ZM118.504 167.569C118.504 167.425 118.504 167.281 118.479 167.138C118.454 166.994 118.458 166.868 118.44 166.732C118.422 166.595 118.407 166.459 118.39 166.322C118.372 166.186 118.346 166.049 118.321 165.913C118.296 165.776 118.271 165.64 118.242 165.503C118.242 165.456 118.224 165.413 118.214 165.367C118.174 165.187 118.131 165.008 118.084 164.824C118.038 164.641 118.009 164.533 117.966 164.39C117.966 164.325 117.93 164.26 117.908 164.199C117.887 164.138 117.847 163.991 117.815 163.887L117.75 163.686C117.721 163.596 117.693 163.506 117.66 163.416C117.606 163.255 117.549 163.097 117.492 162.935C117.434 162.773 117.373 162.615 117.312 162.457C117.19 162.134 117.057 161.814 116.924 161.495C116.403 160.252 115.818 159.027 115.279 157.813C114.989 157.176 114.733 156.525 114.51 155.862L114.442 155.959C114.333 156.125 114.236 156.298 114.151 156.477C114.151 159.304 111.321 162.763 111.321 162.763L108.472 158.614L105.979 162.446C105.62 162.637 105.261 163.291 104.981 164.221C104.902 164.472 104.826 164.745 104.755 165.036C104.704 165.23 104.658 165.435 104.615 165.64C104.589 165.744 104.568 165.848 104.546 165.956L104.482 166.283V166.333C104.438 166.556 104.395 166.786 104.356 167.019C104.316 167.252 104.27 167.522 104.23 167.777C104.201 167.942 104.176 168.107 104.155 168.273C104.104 168.592 104.061 168.916 104.018 169.235C103.993 169.422 103.968 169.594 103.946 169.792L103.86 170.51C104.043 171.099 104.248 171.681 104.46 172.252C104.595 172.565 104.674 172.9 104.694 173.24C109.101 174.5 113.774 174.5 118.181 173.24C118.18 173.228 118.18 173.216 118.181 173.204C118.115 172.882 118.086 172.553 118.095 172.224C118.167 171.302 118.287 170.385 118.454 169.476C118.507 169.028 118.53 168.577 118.522 168.125V167.964C118.512 167.827 118.508 167.698 118.504 167.569ZM118.504 167.569C118.504 167.425 118.504 167.281 118.479 167.138C118.454 166.994 118.458 166.868 118.44 166.732C118.422 166.595 118.407 166.459 118.39 166.322C118.372 166.186 118.346 166.049 118.321 165.913C118.296 165.776 118.271 165.64 118.242 165.503C118.242 165.456 118.224 165.413 118.214 165.367C118.174 165.187 118.131 165.008 118.084 164.824C118.038 164.641 118.009 164.533 117.966 164.39C117.966 164.325 117.93 164.26 117.908 164.199C117.887 164.138 117.847 163.991 117.815 163.887L117.75 163.686C117.721 163.596 117.693 163.506 117.66 163.416C117.606 163.255 117.549 163.097 117.492 162.935C117.434 162.773 117.373 162.615 117.312 162.457C117.19 162.134 117.057 161.814 116.924 161.495C116.403 160.252 115.818 159.027 115.279 157.813C114.989 157.176 114.733 156.525 114.51 155.862L114.442 155.959C114.333 156.125 114.236 156.298 114.151 156.477C114.151 159.304 111.321 162.763 111.321 162.763L108.472 158.614L105.979 162.446C105.62 162.637 105.261 163.291 104.981 164.221C104.902 164.472 104.826 164.745 104.755 165.036C104.704 165.23 104.658 165.435 104.615 165.64C104.589 165.744 104.568 165.848 104.546 165.956L104.482 166.283V166.333C104.438 166.556 104.395 166.786 104.356 167.019C104.316 167.252 104.27 167.522 104.23 167.777C104.201 167.942 104.176 168.107 104.155 168.273C104.104 168.592 104.061 168.916 104.018 169.235C103.993 169.422 103.968 169.594 103.946 169.792L103.86 170.51C104.043 171.099 104.248 171.681 104.46 172.252C104.595 172.565 104.674 172.9 104.694 173.24C109.101 174.5 113.774 174.5 118.181 173.24C118.18 173.228 118.18 173.216 118.181 173.204C118.115 172.882 118.086 172.553 118.095 172.224C118.167 171.302 118.287 170.385 118.454 169.476C118.507 169.028 118.53 168.577 118.522 168.125V167.964C118.512 167.827 118.508 167.698 118.504 167.569ZM118.504 167.569C118.504 167.425 118.504 167.281 118.479 167.138C118.454 166.994 118.458 166.868 118.44 166.732C118.422 166.595 118.407 166.459 118.39 166.322C118.372 166.186 118.346 166.049 118.321 165.913C118.296 165.776 118.271 165.64 118.242 165.503C118.242 165.456 118.224 165.413 118.214 165.367C118.174 165.187 118.131 165.008 118.084 164.824C118.038 164.641 118.009 164.533 117.966 164.39C117.966 164.325 117.93 164.26 117.908 164.199C117.887 164.138 117.847 163.991 117.815 163.887L117.75 163.686C117.721 163.596 117.693 163.506 117.66 163.416C117.606 163.255 117.549 163.097 117.492 162.935C117.434 162.773 117.373 162.615 117.312 162.457C117.19 162.134 117.057 161.814 116.924 161.495C116.403 160.252 115.818 159.027 115.279 157.813C114.989 157.176 114.733 156.525 114.51 155.862L114.442 155.959C114.333 156.125 114.236 156.298 114.151 156.477C114.151 159.304 111.321 162.763 111.321 162.763L108.472 158.614L105.979 162.446C105.62 162.637 105.261 163.291 104.981 164.221C104.902 164.472 104.826 164.745 104.755 165.036C104.704 165.23 104.658 165.435 104.615 165.64C104.589 165.744 104.568 165.848 104.546 165.956L104.482 166.283V166.333C104.438 166.556 104.395 166.786 104.356 167.019C104.316 167.252 104.27 167.522 104.23 167.777C104.201 167.942 104.176 168.107 104.155 168.273C104.104 168.592 104.061 168.916 104.018 169.235C103.993 169.422 103.968 169.594 103.946 169.792L103.86 170.51C104.043 171.099 104.248 171.681 104.46 172.252C104.595 172.565 104.674 172.9 104.694 173.24C109.101 174.5 113.774 174.5 118.181 173.24C118.18 173.228 118.18 173.216 118.181 173.204C118.115 172.882 118.086 172.553 118.095 172.224C118.167 171.302 118.287 170.385 118.454 169.476C118.507 169.028 118.53 168.577 118.522 168.125V167.964C118.512 167.827 118.508 167.698 118.504 167.569Z" fill="white"/>
<path opacity="0.1" d="M108.522 158.373L108.282 158.341C107.918 158.292 107.558 158.22 107.204 158.125L107.071 158.09C106.195 157.842 105.236 157.396 105.02 156.613C104.956 156.361 104.963 156.096 105.042 155.848C105.162 155.421 105.326 155.007 105.53 154.613V154.591C105.557 154.536 105.587 154.482 105.62 154.429C105.916 153.85 106.365 153.362 106.917 153.018L106.486 153.086L102.836 153.679L97.179 154.591C97.179 154.591 96.1733 154.39 94.8047 158.161C94.8047 158.208 94.7724 158.251 94.758 158.301C94.4276 159.225 94.0792 160.378 93.72 161.818C93.4721 162.816 93.2458 163.797 93.0375 164.749C92.9764 165.036 92.9154 165.32 92.8579 165.6C93.5055 166.364 94.2027 167.084 94.9448 167.755L95.0633 167.867C96.517 169.183 98.1233 170.32 99.8478 171.254L99.916 171.29C101.001 171.875 102.13 172.375 103.292 172.784L103.598 172.892C103.662 172.227 103.734 171.491 103.82 170.737C103.82 170.661 103.82 170.586 103.849 170.51L103.935 169.792C103.957 169.609 103.982 169.433 104.007 169.235C104.05 168.916 104.093 168.592 104.144 168.273C104.165 168.107 104.19 167.942 104.219 167.777C104.259 167.522 104.302 167.267 104.345 167.019C104.388 166.771 104.427 166.556 104.471 166.333V166.283L104.535 165.956C104.557 165.848 104.578 165.744 104.604 165.64C104.647 165.435 104.693 165.23 104.744 165.036C104.815 164.745 104.891 164.472 104.97 164.221C105.257 163.291 105.591 162.637 105.968 162.446L108.461 158.614L108.565 158.452L108.612 158.38L108.522 158.373Z" fill="black"/>
<path opacity="0.1" d="M103.986 132.932C103.627 133.427 103.655 134.11 103.494 134.728C103.109 136.132 101.586 137.012 101.238 138.427C101.033 139.253 101.27 140.13 101.13 140.97C100.875 142.518 99.4601 143.567 98.6698 144.921C98.2692 145.619 98.0317 146.398 97.9751 147.201C97.9185 148.003 98.0443 148.808 98.343 149.555C98.5278 149.932 98.6804 150.323 98.7992 150.726C98.8898 151.326 98.8518 151.938 98.6878 152.522C98.4184 153.801 98.1418 155.209 98.7596 156.362C99.2805 157.335 100.362 157.906 101.45 158.086C102.549 158.21 103.661 158.159 104.744 157.935C105.933 157.752 107.15 157.54 108.185 156.929L104.295 147.54C103.903 146.592 103.501 145.611 103.505 144.584C103.536 143.826 103.7 143.08 103.989 142.378C104.743 140.347 105.836 138.458 107.222 136.793C107.786 137.447 107.743 138.442 108.214 139.167C108.629 139.704 109.183 140.117 109.816 140.363C111.659 141.262 113.552 142.054 115.487 142.734C115.609 142.749 115.724 142.794 115.824 142.865C115.924 142.936 116.005 143.03 116.06 143.139C116.114 143.249 116.141 143.37 116.138 143.492C116.135 143.614 116.101 143.734 116.04 143.84L114.575 149.889C114.252 151.222 113.968 152.763 114.798 153.84C115.627 154.918 117.499 155.428 117.509 156.818C117.494 157.038 117.494 157.259 117.509 157.479C117.606 158.129 118.379 158.441 119.036 158.474C120.115 158.495 121.167 158.132 122.003 157.45C122.839 156.768 123.406 155.81 123.601 154.749C123.961 152.371 122.387 150.18 121.73 147.863C120.624 143.966 122.089 139.393 119.916 135.97C118.156 133.194 114.948 132.44 111.902 132.095C109.765 131.843 105.491 130.945 103.986 132.932Z" fill="black"/>
<path opacity="0.5" d="M103.986 132.572C103.627 133.068 103.655 133.751 103.494 134.368C103.109 135.773 101.586 136.653 101.238 138.068C101.033 138.894 101.27 139.771 101.13 140.611C100.875 142.159 99.4601 143.208 98.6698 144.562C98.2692 145.26 98.0317 146.039 97.9751 146.842C97.9185 147.644 98.0443 148.449 98.343 149.196C98.5278 149.573 98.6804 149.964 98.7992 150.367C98.8898 150.967 98.8518 151.579 98.6878 152.163C98.4184 153.442 98.1418 154.85 98.7596 156.003C99.2805 156.976 100.362 157.547 101.45 157.727C102.549 157.851 103.661 157.8 104.744 157.576C105.933 157.393 107.15 157.181 108.185 156.57L104.295 147.181C103.903 146.233 103.501 145.252 103.505 144.225C103.536 143.467 103.7 142.72 103.989 142.019C104.743 139.988 105.836 138.099 107.222 136.434C107.786 137.088 107.743 138.082 108.214 138.808C108.629 139.344 109.183 139.758 109.816 140.004C111.659 140.903 113.552 141.695 115.487 142.375C115.609 142.39 115.724 142.435 115.824 142.506C115.924 142.576 116.005 142.671 116.06 142.78C116.114 142.889 116.141 143.011 116.138 143.133C116.135 143.255 116.101 143.375 116.04 143.481L114.575 149.53C114.252 150.863 113.968 152.403 114.798 153.481C115.627 154.559 117.499 155.069 117.509 156.459C117.494 156.679 117.494 156.9 117.509 157.12C117.606 157.77 118.379 158.082 119.036 158.115C120.115 158.136 121.167 157.773 122.003 157.091C122.839 156.408 123.406 155.451 123.601 154.39C123.961 152.012 122.387 149.821 121.73 147.504C120.624 143.607 122.089 139.034 119.916 135.611C118.156 132.835 114.948 132.08 111.902 131.736C109.765 131.484 105.491 130.586 103.986 132.572Z" fill="#493545"/>
</g>
<g opacity="0.5">
<path opacity="0.5" d="M101.777 228.782C101.809 229.985 100.991 231.013 100.34 232.015C99.6903 233.017 99.209 234.386 99.8771 235.388C100.096 235.718 100.427 235.973 100.624 236.318C101.317 237.521 100.164 238.904 99.7442 240.226C99.2592 241.753 99.8232 243.459 100.843 244.698C101.863 245.937 103.271 246.774 104.694 247.51C107.685 249.104 110.895 250.247 114.22 250.901C115.958 251.221 117.812 251.365 119.442 250.668C120.574 250.149 121.498 249.265 122.067 248.157C122.635 247.05 122.815 245.783 122.578 244.561C122.165 242.672 120.782 241.153 120.064 239.368C119.896 239.017 119.815 238.632 119.827 238.243C119.888 237.564 120.408 237.033 120.814 236.483C121.832 234.987 122.248 233.161 121.978 231.372C121.695 229.582 121.009 227.88 119.974 226.394C119.604 225.777 119.116 225.24 118.537 224.813C117.754 224.285 116.784 224.134 115.85 224.001C111.95 223.455 107.909 222.859 103.975 222.658C102.733 222.593 101.82 222.838 101.206 224.001C100.269 225.736 101.73 227.04 101.777 228.782Z" fill="#444176"/>
<path opacity="0.5" d="M121.866 240.998L114.463 251.526L107.237 250.898C107.237 250.898 106.999 253.412 104.094 244.299C102.47 239.202 105.771 240.973 106.421 239.562C107.071 238.15 108.217 236.903 108.314 235.862C108.544 233.628 107.865 232.356 107.865 232.356L115.721 231.415C115.366 232.474 115.321 233.611 115.591 234.694C116.576 238.782 121.866 240.998 121.866 240.998Z" fill="#C77485"/>
<path opacity="0.5" d="M110.732 232.022C115.889 232.022 120.071 228.725 120.071 224.659C120.071 220.592 115.889 217.295 110.732 217.295C105.574 217.295 101.393 220.592 101.393 224.659C101.393 228.725 105.574 232.022 110.732 232.022Z" fill="#444176"/>
<path opacity="0.1" d="M115.588 234.691C114.564 235.467 113.364 235.979 112.095 236.183C110.827 236.388 109.527 236.277 108.311 235.862C108.541 233.628 107.862 232.356 107.862 232.356L115.717 231.415C115.364 232.472 115.319 233.609 115.588 234.691Z" fill="black"/>
<path opacity="0.5" d="M110.85 235.97C115.189 235.97 118.706 232.453 118.706 228.114C118.706 223.776 115.189 220.259 110.85 220.259C106.512 220.259 102.995 223.776 102.995 228.114C102.995 232.453 106.512 235.97 110.85 235.97Z" fill="#C77485"/>
<path opacity="0.1" d="M121.091 242.191L120.907 241.472L120.749 240.84L120.516 239.906L120.473 239.734L120.437 239.59C120.437 239.59 120.624 239.026 119.392 239.209L119.162 239.249C118.968 239.288 118.741 239.342 118.483 239.414L118.249 239.486L117.94 239.583C116.962 239.901 116.07 240.44 115.333 241.156C115.002 241.473 114.709 241.827 114.46 242.212C114.435 242.248 114.417 242.281 114.395 242.309C114.31 242.443 114.235 242.582 114.169 242.726C114.169 245.556 111.338 249.012 111.338 249.012L108.576 245.021L108.522 244.942L107.865 243.987L107.632 243.678L107.553 243.57L106.116 241.641L105.757 241.16L105.638 240.998L105.462 240.765L105.049 240.215L103.433 241.16L101.278 242.417L100.02 250.589V250.815L100.06 251.49L100.322 255.93V255.991L99.8623 257.83L99.9306 257.866C101.015 258.451 102.144 258.951 103.307 259.36L103.612 259.468C103.971 259.586 104.309 259.694 104.661 259.798C104.674 259.852 104.684 259.906 104.69 259.96C104.69 259.91 104.69 259.856 104.69 259.806C109.098 261.065 113.77 261.065 118.178 259.806L118.26 259.78C118.465 259.723 118.673 259.662 118.874 259.594L119.201 259.489C120.088 259.193 120.956 258.845 121.802 258.448L122.103 252.018L122.319 247.381V247.115L121.091 242.191Z" fill="black"/>
<path opacity="0.5" d="M118.504 254.134C118.504 253.99 118.504 253.847 118.479 253.703C118.454 253.559 118.458 253.433 118.44 253.297C118.422 253.161 118.407 253.024 118.39 252.888C118.372 252.751 118.346 252.615 118.321 252.478C118.296 252.342 118.271 252.205 118.242 252.069C118.242 252.022 118.224 251.979 118.214 251.932C118.174 251.752 118.131 251.573 118.084 251.39C118.038 251.207 118.009 251.099 117.966 250.955C117.966 250.89 117.93 250.826 117.908 250.765C117.887 250.704 117.847 250.556 117.815 250.452L117.75 250.251C117.721 250.161 117.693 250.071 117.66 249.982C117.606 249.82 117.549 249.662 117.492 249.5C117.434 249.339 117.373 249.181 117.312 249.023C117.19 248.699 117.057 248.38 116.924 248.06C116.403 246.817 115.818 245.592 115.279 244.378C114.989 243.742 114.733 243.091 114.51 242.428L114.442 242.525C114.333 242.69 114.236 242.863 114.151 243.042C114.151 245.869 111.321 249.328 111.321 249.328L108.472 245.179L105.979 249.012C105.62 249.202 105.261 249.856 104.981 250.786C104.902 251.038 104.826 251.311 104.755 251.602C104.704 251.796 104.658 252 104.615 252.205C104.589 252.309 104.568 252.413 104.546 252.521L104.482 252.848V252.898C104.438 253.121 104.395 253.351 104.356 253.584C104.316 253.818 104.27 254.087 104.23 254.342C104.201 254.507 104.176 254.673 104.155 254.838C104.104 255.158 104.061 255.481 104.018 255.801C103.993 255.987 103.968 256.16 103.946 256.357L103.86 257.076C104.043 257.665 104.248 258.247 104.46 258.818C104.595 259.131 104.674 259.465 104.694 259.806C109.101 261.065 113.774 261.065 118.181 259.806C118.18 259.794 118.18 259.782 118.181 259.77C118.115 259.447 118.086 259.118 118.095 258.789C118.167 257.868 118.287 256.95 118.454 256.041C118.507 255.593 118.53 255.142 118.522 254.691V254.529C118.512 254.393 118.508 254.263 118.504 254.134ZM118.504 254.134C118.504 253.99 118.504 253.847 118.479 253.703C118.454 253.559 118.458 253.433 118.44 253.297C118.422 253.161 118.407 253.024 118.39 252.888C118.372 252.751 118.346 252.615 118.321 252.478C118.296 252.342 118.271 252.205 118.242 252.069C118.242 252.022 118.224 251.979 118.214 251.932C118.174 251.752 118.131 251.573 118.084 251.39C118.038 251.207 118.009 251.099 117.966 250.955C117.966 250.89 117.93 250.826 117.908 250.765C117.887 250.704 117.847 250.556 117.815 250.452L117.75 250.251C117.721 250.161 117.693 250.071 117.66 249.982C117.606 249.82 117.549 249.662 117.492 249.5C117.434 249.339 117.373 249.181 117.312 249.023C117.19 248.699 117.057 248.38 116.924 248.06C116.403 246.817 115.818 245.592 115.279 244.378C114.989 243.742 114.733 243.091 114.51 242.428L114.442 242.525C114.333 242.69 114.236 242.863 114.151 243.042C114.151 245.869 111.321 249.328 111.321 249.328L108.472 245.179L105.979 249.012C105.62 249.202 105.261 249.856 104.981 250.786C104.902 251.038 104.826 251.311 104.755 251.602C104.704 251.796 104.658 252 104.615 252.205C104.589 252.309 104.568 252.413 104.546 252.521L104.482 252.848V252.898C104.438 253.121 104.395 253.351 104.356 253.584C104.316 253.818 104.27 254.087 104.23 254.342C104.201 254.507 104.176 254.673 104.155 254.838C104.104 255.158 104.061 255.481 104.018 255.801C103.993 255.987 103.968 256.16 103.946 256.357L103.86 257.076C104.043 257.665 104.248 258.247 104.46 258.818C104.595 259.131 104.674 259.465 104.694 259.806C109.101 261.065 113.774 261.065 118.181 259.806C118.18 259.794 118.18 259.782 118.181 259.77C118.115 259.447 118.086 259.118 118.095 258.789C118.167 257.868 118.287 256.95 118.454 256.041C118.507 255.593 118.53 255.142 118.522 254.691V254.529C118.512 254.393 118.508 254.263 118.504 254.134ZM118.504 254.134C118.504 253.99 118.504 253.847 118.479 253.703C118.454 253.559 118.458 253.433 118.44 253.297C118.422 253.161 118.407 253.024 118.39 252.888C118.372 252.751 118.346 252.615 118.321 252.478C118.296 252.342 118.271 252.205 118.242 252.069C118.242 252.022 118.224 251.979 118.214 251.932C118.174 251.752 118.131 251.573 118.084 251.39C118.038 251.207 118.009 251.099 117.966 250.955C117.966 250.89 117.93 250.826 117.908 250.765C117.887 250.704 117.847 250.556 117.815 250.452L117.75 250.251C117.721 250.161 117.693 250.071 117.66 249.982C117.606 249.82 117.549 249.662 117.492 249.5C117.434 249.339 117.373 249.181 117.312 249.023C117.19 248.699 117.057 248.38 116.924 248.06C116.403 246.817 115.818 245.592 115.279 244.378C114.989 243.742 114.733 243.091 114.51 242.428L114.442 242.525C114.333 242.69 114.236 242.863 114.151 243.042C114.151 245.869 111.321 249.328 111.321 249.328L108.472 245.179L105.979 249.012C105.62 249.202 105.261 249.856 104.981 250.786C104.902 251.038 104.826 251.311 104.755 251.602C104.704 251.796 104.658 252 104.615 252.205C104.589 252.309 104.568 252.413 104.546 252.521L104.482 252.848V252.898C104.438 253.121 104.395 253.351 104.356 253.584C104.316 253.818 104.27 254.087 104.23 254.342C104.201 254.507 104.176 254.673 104.155 254.838C104.104 255.158 104.061 255.481 104.018 255.801C103.993 255.987 103.968 256.16 103.946 256.357L103.86 257.076C104.043 257.665 104.248 258.247 104.46 258.818C104.595 259.131 104.674 259.465 104.694 259.806C109.101 261.065 113.774 261.065 118.181 259.806C118.18 259.794 118.18 259.782 118.181 259.77C118.115 259.447 118.086 259.118 118.095 258.789C118.167 257.868 118.287 256.95 118.454 256.041C118.507 255.593 118.53 255.142 118.522 254.691V254.529C118.512 254.393 118.508 254.263 118.504 254.134ZM122.312 247.392L121.03 242.273L120.81 241.397L120.749 241.156L120.437 239.906C120.438 239.896 120.438 239.885 120.437 239.874C120.444 239.819 120.436 239.763 120.412 239.712C120.365 239.619 120.247 239.522 119.97 239.497C119.865 239.489 119.759 239.489 119.654 239.497C119.342 239.528 119.033 239.585 118.731 239.669C118.583 239.709 118.425 239.752 118.257 239.806L117.948 239.903H117.919C117.092 240.174 116.324 240.601 115.656 241.16C115.215 241.528 114.828 241.956 114.507 242.431L114.438 242.528C114.329 242.694 114.232 242.867 114.147 243.046C114.147 245.873 111.317 249.332 111.317 249.332L108.469 245.183L108.307 244.949L108.278 244.91L107.865 244.303L107.553 243.886L107.47 243.778L105.997 241.814L105.53 241.178V241.156L105.369 240.937L105.06 240.528L103.982 241.156L101.288 242.726L100.046 250.811V250.898L100.081 251.487L100.347 255.987V256.242L99.9414 257.862C101.026 258.448 102.155 258.947 103.318 259.357L103.623 259.464C103.982 259.583 104.32 259.691 104.672 259.795C104.685 259.848 104.695 259.902 104.701 259.956C104.701 259.906 104.701 259.852 104.701 259.802C109.108 261.062 113.781 261.062 118.188 259.802L118.271 259.777C118.476 259.719 118.684 259.658 118.885 259.59L119.212 259.486C120.098 259.189 120.967 258.842 121.813 258.444L122.111 252.022L122.326 247.435L122.312 247.392ZM104.647 259.795C104.66 259.848 104.669 259.902 104.676 259.956C104.676 259.906 104.676 259.852 104.676 259.802L104.647 259.795ZM118.504 254.134C118.504 253.99 118.504 253.847 118.479 253.703C118.454 253.559 118.458 253.433 118.44 253.297C118.422 253.161 118.407 253.024 118.39 252.888C118.372 252.751 118.346 252.615 118.321 252.478C118.296 252.342 118.271 252.205 118.242 252.069C118.242 252.022 118.224 251.979 118.214 251.932C118.174 251.752 118.131 251.573 118.084 251.39C118.038 251.207 118.009 251.099 117.966 250.955C117.966 250.89 117.93 250.826 117.908 250.765C117.887 250.704 117.847 250.556 117.815 250.452L117.75 250.251C117.721 250.161 117.693 250.071 117.66 249.982C117.606 249.82 117.549 249.662 117.492 249.5C117.434 249.339 117.373 249.181 117.312 249.023C117.19 248.699 117.057 248.38 116.924 248.06C116.403 246.817 115.818 245.592 115.279 244.378C114.989 243.742 114.733 243.091 114.51 242.428L114.442 242.525C114.333 242.69 114.236 242.863 114.151 243.042C114.151 245.869 111.321 249.328 111.321 249.328L108.472 245.179L105.979 249.012C105.62 249.202 105.261 249.856 104.981 250.786C104.902 251.038 104.826 251.311 104.755 251.602C104.704 251.796 104.658 252 104.615 252.205C104.589 252.309 104.568 252.413 104.546 252.521L104.482 252.848V252.898C104.438 253.121 104.395 253.351 104.356 253.584C104.316 253.818 104.27 254.087 104.23 254.342C104.201 254.507 104.176 254.673 104.155 254.838C104.104 255.158 104.061 255.481 104.018 255.801C103.993 255.987 103.968 256.16 103.946 256.357L103.86 257.076C104.043 257.665 104.248 258.247 104.46 258.818C104.595 259.131 104.674 259.465 104.694 259.806C109.101 261.065 113.774 261.065 118.181 259.806C118.18 259.794 118.18 259.782 118.181 259.77C118.115 259.447 118.086 259.118 118.095 258.789C118.167 257.868 118.287 256.95 118.454 256.041C118.507 255.593 118.53 255.142 118.522 254.691V254.529C118.512 254.393 118.508 254.263 118.504 254.134ZM118.504 254.134C118.504 253.99 118.504 253.847 118.479 253.703C118.454 253.559 118.458 253.433 118.44 253.297C118.422 253.161 118.407 253.024 118.39 252.888C118.372 252.751 118.346 252.615 118.321 252.478C118.296 252.342 118.271 252.205 118.242 252.069C118.242 252.022 118.224 251.979 118.214 251.932C118.174 251.752 118.131 251.573 118.084 251.39C118.038 251.207 118.009 251.099 117.966 250.955C117.966 250.89 117.93 250.826 117.908 250.765C117.887 250.704 117.847 250.556 117.815 250.452L117.75 250.251C117.721 250.161 117.693 250.071 117.66 249.982C117.606 249.82 117.549 249.662 117.492 249.5C117.434 249.339 117.373 249.181 117.312 249.023C117.19 248.699 117.057 248.38 116.924 248.06C116.403 246.817 115.818 245.592 115.279 244.378C114.989 243.742 114.733 243.091 114.51 242.428L114.442 242.525C114.333 242.69 114.236 242.863 114.151 243.042C114.151 245.869 111.321 249.328 111.321 249.328L108.472 245.179L105.979 249.012C105.62 249.202 105.261 249.856 104.981 250.786C104.902 251.038 104.826 251.311 104.755 251.602C104.704 251.796 104.658 252 104.615 252.205C104.589 252.309 104.568 252.413 104.546 252.521L104.482 252.848V252.898C104.438 253.121 104.395 253.351 104.356 253.584C104.316 253.818 104.27 254.087 104.23 254.342C104.201 254.507 104.176 254.673 104.155 254.838C104.104 255.158 104.061 255.481 104.018 255.801C103.993 255.987 103.968 256.16 103.946 256.357L103.86 257.076C104.043 257.665 104.248 258.247 104.46 258.818C104.595 259.131 104.674 259.465 104.694 259.806C109.101 261.065 113.774 261.065 118.181 259.806C118.18 259.794 118.18 259.782 118.181 259.77C118.115 259.447 118.086 259.118 118.095 258.789C118.167 257.868 118.287 256.95 118.454 256.041C118.507 255.593 118.53 255.142 118.522 254.691V254.529C118.512 254.393 118.508 254.263 118.504 254.134ZM118.504 254.134C118.504 253.99 118.504 253.847 118.479 253.703C118.454 253.559 118.458 253.433 118.44 253.297C118.422 253.161 118.407 253.024 118.39 252.888C118.372 252.751 118.346 252.615 118.321 252.478C118.296 252.342 118.271 252.205 118.242 252.069C118.242 252.022 118.224 251.979 118.214 251.932C118.174 251.752 118.131 251.573 118.084 251.39C118.038 251.207 118.009 251.099 117.966 250.955C117.966 250.89 117.93 250.826 117.908 250.765C117.887 250.704 117.847 250.556 117.815 250.452L117.75 250.251C117.721 250.161 117.693 250.071 117.66 249.982C117.606 249.82 117.549 249.662 117.492 249.5C117.434 249.339 117.373 249.181 117.312 249.023C117.19 248.699 117.057 248.38 116.924 248.06C116.403 246.817 115.818 245.592 115.279 244.378C114.989 243.742 114.733 243.091 114.51 242.428L114.442 242.525C114.333 242.69 114.236 242.863 114.151 243.042C114.151 245.869 111.321 249.328 111.321 249.328L108.472 245.179L105.979 249.012C105.62 249.202 105.261 249.856 104.981 250.786C104.902 251.038 104.826 251.311 104.755 251.602C104.704 251.796 104.658 252 104.615 252.205C104.589 252.309 104.568 252.413 104.546 252.521L104.482 252.848V252.898C104.438 253.121 104.395 253.351 104.356 253.584C104.316 253.818 104.27 254.087 104.23 254.342C104.201 254.507 104.176 254.673 104.155 254.838C104.104 255.158 104.061 255.481 104.018 255.801C103.993 255.987 103.968 256.16 103.946 256.357L103.86 257.076C104.043 257.665 104.248 258.247 104.46 258.818C104.595 259.131 104.674 259.465 104.694 259.806C109.101 261.065 113.774 261.065 118.181 259.806C118.18 259.794 118.18 259.782 118.181 259.77C118.115 259.447 118.086 259.118 118.095 258.789C118.167 257.868 118.287 256.95 118.454 256.041C118.507 255.593 118.53 255.142 118.522 254.691V254.529C118.512 254.393 118.508 254.263 118.504 254.134ZM118.504 254.134C118.504 253.99 118.504 253.847 118.479 253.703C118.454 253.559 118.458 253.433 118.44 253.297C118.422 253.161 118.407 253.024 118.39 252.888C118.372 252.751 118.346 252.615 118.321 252.478C118.296 252.342 118.271 252.205 118.242 252.069C118.242 252.022 118.224 251.979 118.214 251.932C118.174 251.752 118.131 251.573 118.084 251.39C118.038 251.207 118.009 251.099 117.966 250.955C117.966 250.89 117.93 250.826 117.908 250.765C117.887 250.704 117.847 250.556 117.815 250.452L117.75 250.251C117.721 250.161 117.693 250.071 117.66 249.982C117.606 249.82 117.549 249.662 117.492 249.5C117.434 249.339 117.373 249.181 117.312 249.023C117.19 248.699 117.057 248.38 116.924 248.06C116.403 246.817 115.818 245.592 115.279 244.378C114.989 243.742 114.733 243.091 114.51 242.428L114.442 242.525C114.333 242.69 114.236 242.863 114.151 243.042C114.151 245.869 111.321 249.328 111.321 249.328L108.472 245.179L105.979 249.012C105.62 249.202 105.261 249.856 104.981 250.786C104.902 251.038 104.826 251.311 104.755 251.602C104.704 251.796 104.658 252 104.615 252.205C104.589 252.309 104.568 252.413 104.546 252.521L104.482 252.848V252.898C104.438 253.121 104.395 253.351 104.356 253.584C104.316 253.818 104.27 254.087 104.23 254.342C104.201 254.507 104.176 254.673 104.155 254.838C104.104 255.158 104.061 255.481 104.018 255.801C103.993 255.987 103.968 256.16 103.946 256.357L103.86 257.076C104.043 257.665 104.248 258.247 104.46 258.818C104.595 259.131 104.674 259.465 104.694 259.806C109.101 261.065 113.774 261.065 118.181 259.806C118.18 259.794 118.18 259.782 118.181 259.77C118.115 259.447 118.086 259.118 118.095 258.789C118.167 257.868 118.287 256.95 118.454 256.041C118.507 255.593 118.53 255.142 118.522 254.691V254.529C118.512 254.393 118.508 254.263 118.504 254.134ZM118.504 254.134C118.504 253.99 118.504 253.847 118.479 253.703C118.454 253.559 118.458 253.433 118.44 253.297C118.422 253.161 118.407 253.024 118.39 252.888C118.372 252.751 118.346 252.615 118.321 252.478C118.296 252.342 118.271 252.205 118.242 252.069C118.242 252.022 118.224 251.979 118.214 251.932C118.174 251.752 118.131 251.573 118.084 251.39C118.038 251.207 118.009 251.099 117.966 250.955C117.966 250.89 117.93 250.826 117.908 250.765C117.887 250.704 117.847 250.556 117.815 250.452L117.75 250.251C117.721 250.161 117.693 250.071 117.66 249.982C117.606 249.82 117.549 249.662 117.492 249.5C117.434 249.339 117.373 249.181 117.312 249.023C117.19 248.699 117.057 248.38 116.924 248.06C116.403 246.817 115.818 245.592 115.279 244.378C114.989 243.742 114.733 243.091 114.51 242.428L114.442 242.525C114.333 242.69 114.236 242.863 114.151 243.042C114.151 245.869 111.321 249.328 111.321 249.328L108.472 245.179L105.979 249.012C105.62 249.202 105.261 249.856 104.981 250.786C104.902 251.038 104.826 251.311 104.755 251.602C104.704 251.796 104.658 252 104.615 252.205C104.589 252.309 104.568 252.413 104.546 252.521L104.482 252.848V252.898C104.438 253.121 104.395 253.351 104.356 253.584C104.316 253.818 104.27 254.087 104.23 254.342C104.201 254.507 104.176 254.673 104.155 254.838C104.104 255.158 104.061 255.481 104.018 255.801C103.993 255.987 103.968 256.16 103.946 256.357L103.86 257.076C104.043 257.665 104.248 258.247 104.46 258.818C104.595 259.131 104.674 259.465 104.694 259.806C109.101 261.065 113.774 261.065 118.181 259.806C118.18 259.794 118.18 259.782 118.181 259.77C118.115 259.447 118.086 259.118 118.095 258.789C118.167 257.868 118.287 256.95 118.454 256.041C118.507 255.593 118.53 255.142 118.522 254.691V254.529C118.512 254.393 118.508 254.263 118.504 254.134ZM118.504 254.134C118.504 253.99 118.504 253.847 118.479 253.703C118.454 253.559 118.458 253.433 118.44 253.297C118.422 253.161 118.407 253.024 118.39 252.888C118.372 252.751 118.346 252.615 118.321 252.478C118.296 252.342 118.271 252.205 118.242 252.069C118.242 252.022 118.224 251.979 118.214 251.932C118.174 251.752 118.131 251.573 118.084 251.39C118.038 251.207 118.009 251.099 117.966 250.955C117.966 250.89 117.93 250.826 117.908 250.765C117.887 250.704 117.847 250.556 117.815 250.452L117.75 250.251C117.721 250.161 117.693 250.071 117.66 249.982C117.606 249.82 117.549 249.662 117.492 249.5C117.434 249.339 117.373 249.181 117.312 249.023C117.19 248.699 117.057 248.38 116.924 248.06C116.403 246.817 115.818 245.592 115.279 244.378C114.989 243.742 114.733 243.091 114.51 242.428L114.442 242.525C114.333 242.69 114.236 242.863 114.151 243.042C114.151 245.869 111.321 249.328 111.321 249.328L108.472 245.179L105.979 249.012C105.62 249.202 105.261 249.856 104.981 250.786C104.902 251.038 104.826 251.311 104.755 251.602C104.704 251.796 104.658 252 104.615 252.205C104.589 252.309 104.568 252.413 104.546 252.521L104.482 252.848V252.898C104.438 253.121 104.395 253.351 104.356 253.584C104.316 253.818 104.27 254.087 104.23 254.342C104.201 254.507 104.176 254.673 104.155 254.838C104.104 255.158 104.061 255.481 104.018 255.801C103.993 255.987 103.968 256.16 103.946 256.357L103.86 257.076C104.043 257.665 104.248 258.247 104.46 258.818C104.595 259.131 104.674 259.465 104.694 259.806C109.101 261.065 113.774 261.065 118.181 259.806C118.18 259.794 118.18 259.782 118.181 259.77C118.115 259.447 118.086 259.118 118.095 258.789C118.167 257.868 118.287 256.95 118.454 256.041C118.507 255.593 118.53 255.142 118.522 254.691V254.529C118.512 254.393 118.508 254.263 118.504 254.134ZM118.504 254.134C118.504 253.99 118.504 253.847 118.479 253.703C118.454 253.559 118.458 253.433 118.44 253.297C118.422 253.161 118.407 253.024 118.39 252.888C118.372 252.751 118.346 252.615 118.321 252.478C118.296 252.342 118.271 252.205 118.242 252.069C118.242 252.022 118.224 251.979 118.214 251.932C118.174 251.752 118.131 251.573 118.084 251.39C118.038 251.207 118.009 251.099 117.966 250.955C117.966 250.89 117.93 250.826 117.908 250.765C117.887 250.704 117.847 250.556 117.815 250.452L117.75 250.251C117.721 250.161 117.693 250.071 117.66 249.982C117.606 249.82 117.549 249.662 117.492 249.5C117.434 249.339 117.373 249.181 117.312 249.023C117.19 248.699 117.057 248.38 116.924 248.06C116.403 246.817 115.818 245.592 115.279 244.378C114.989 243.742 114.733 243.091 114.51 242.428L114.442 242.525C114.333 242.69 114.236 242.863 114.151 243.042C114.151 245.869 111.321 249.328 111.321 249.328L108.472 245.179L105.979 249.012C105.62 249.202 105.261 249.856 104.981 250.786C104.902 251.038 104.826 251.311 104.755 251.602C104.704 251.796 104.658 252 104.615 252.205C104.589 252.309 104.568 252.413 104.546 252.521L104.482 252.848V252.898C104.438 253.121 104.395 253.351 104.356 253.584C104.316 253.818 104.27 254.087 104.23 254.342C104.201 254.507 104.176 254.673 104.155 254.838C104.104 255.158 104.061 255.481 104.018 255.801C103.993 255.987 103.968 256.16 103.946 256.357L103.86 257.076C104.043 257.665 104.248 258.247 104.46 258.818C104.595 259.131 104.674 259.465 104.694 259.806C109.101 261.065 113.774 261.065 118.181 259.806C118.18 259.794 118.18 259.782 118.181 259.77C118.115 259.447 118.086 259.118 118.095 258.789C118.167 257.868 118.287 256.95 118.454 256.041C118.507 255.593 118.53 255.142 118.522 254.691V254.529C118.512 254.393 118.508 254.263 118.504 254.134ZM118.504 254.134C118.504 253.99 118.504 253.847 118.479 253.703C118.454 253.559 118.458 253.433 118.44 253.297C118.422 253.161 118.407 253.024 118.39 252.888C118.372 252.751 118.346 252.615 118.321 252.478C118.296 252.342 118.271 252.205 118.242 252.069C118.242 252.022 118.224 251.979 118.214 251.932C118.174 251.752 118.131 251.573 118.084 251.39C118.038 251.207 118.009 251.099 117.966 250.955C117.966 250.89 117.93 250.826 117.908 250.765C117.887 250.704 117.847 250.556 117.815 250.452L117.75 250.251C117.721 250.161 117.693 250.071 117.66 249.982C117.606 249.82 117.549 249.662 117.492 249.5C117.434 249.339 117.373 249.181 117.312 249.023C117.19 248.699 117.057 248.38 116.924 248.06C116.403 246.817 115.818 245.592 115.279 244.378C114.989 243.742 114.733 243.091 114.51 242.428L114.442 242.525C114.333 242.69 114.236 242.863 114.151 243.042C114.151 245.869 111.321 249.328 111.321 249.328L108.472 245.179L105.979 249.012C105.62 249.202 105.261 249.856 104.981 250.786C104.902 251.038 104.826 251.311 104.755 251.602C104.704 251.796 104.658 252 104.615 252.205C104.589 252.309 104.568 252.413 104.546 252.521L104.482 252.848V252.898C104.438 253.121 104.395 253.351 104.356 253.584C104.316 253.818 104.27 254.087 104.23 254.342C104.201 254.507 104.176 254.673 104.155 254.838C104.104 255.158 104.061 255.481 104.018 255.801C103.993 255.987 103.968 256.16 103.946 256.357L103.86 257.076C104.043 257.665 104.248 258.247 104.46 258.818C104.595 259.131 104.674 259.465 104.694 259.806C109.101 261.065 113.774 261.065 118.181 259.806C118.18 259.794 118.18 259.782 118.181 259.77C118.115 259.447 118.086 259.118 118.095 258.789C118.167 257.868 118.287 256.95 118.454 256.041C118.507 255.593 118.53 255.142 118.522 254.691V254.529C118.512 254.393 118.508 254.263 118.504 254.134Z" fill="#444176"/>
<path opacity="0.1" d="M108.523 244.939L108.282 244.906C107.919 244.857 107.559 244.785 107.205 244.691L107.072 244.655C106.195 244.407 105.236 243.962 105.021 243.179C104.956 242.927 104.964 242.662 105.042 242.414C105.163 241.986 105.326 241.572 105.531 241.178V241.156C105.558 241.101 105.588 241.047 105.62 240.995C105.917 240.415 106.365 239.927 106.917 239.583L106.486 239.651L102.837 240.244L97.1795 241.156C97.1795 241.156 96.1737 240.955 94.8052 244.727C94.8052 244.773 94.7729 244.817 94.7585 244.867C94.4281 245.79 94.0796 246.943 93.7205 248.383C93.4726 249.382 93.2463 250.362 93.038 251.314C92.9769 251.602 92.9159 251.885 92.8584 252.166C93.506 252.929 94.2032 253.649 94.9453 254.321L95.0638 254.432C96.5174 255.748 98.1237 256.886 99.8483 257.819L99.9165 257.855C101.001 258.44 102.13 258.94 103.293 259.349L103.598 259.457C103.663 258.793 103.735 258.056 103.821 257.302C103.821 257.227 103.821 257.151 103.85 257.076L103.936 256.357C103.957 256.174 103.983 255.998 104.008 255.801C104.051 255.481 104.094 255.158 104.144 254.838C104.166 254.673 104.191 254.508 104.22 254.342C104.259 254.087 104.302 253.832 104.345 253.584C104.388 253.337 104.428 253.121 104.471 252.898V252.848L104.536 252.521C104.557 252.413 104.579 252.309 104.604 252.205C104.647 252 104.694 251.796 104.744 251.602C104.816 251.311 104.891 251.038 104.97 250.786C105.258 249.856 105.592 249.202 105.969 249.012L108.462 245.179L108.566 245.018L108.613 244.946L108.523 244.939Z" fill="black"/>
<path opacity="0.1" d="M109.122 225.815C110.243 225.625 111.371 225.215 112.484 225.456C113.418 225.65 114.198 226.271 115.053 226.702C115.878 227.118 116.781 227.356 117.703 227.403C118.04 227.447 118.382 227.38 118.677 227.212C119.122 226.904 119.187 226.271 119.111 225.733C118.896 224.202 117.941 222.888 116.956 221.695C116.564 221.186 116.11 220.726 115.606 220.327C114.316 219.375 112.61 219.213 111.012 219.285C109.187 219.368 107.334 219.72 105.75 220.636C104.672 221.253 102.201 223.2 103.059 224.608C103.961 226.081 107.711 226.056 109.122 225.815Z" fill="black"/>
<path opacity="0.5" d="M109.122 225.456C110.243 225.266 111.371 224.856 112.484 225.097C113.418 225.291 114.198 225.912 115.053 226.343C115.878 226.758 116.781 226.997 117.703 227.044C118.04 227.088 118.382 227.021 118.677 226.853C119.122 226.544 119.187 225.912 119.111 225.373C118.896 223.843 117.941 222.529 116.956 221.336C116.564 220.827 116.11 220.367 115.606 219.968C114.316 219.016 112.61 218.854 111.012 218.926C109.187 219.009 107.334 219.361 105.75 220.276C104.672 220.894 102.201 222.841 103.059 224.249C103.961 225.722 107.711 225.697 109.122 225.456Z" fill="#444176"/>
</g>
<path d="M207.76 207.866H207.814C207.893 210.273 208.234 212.45 208.892 213.053C210.458 214.49 216.952 211.616 216.507 209.878C216.417 209.519 216.266 208.93 216.076 208.186C217.828 207.967 219.326 207.468 219.922 206.44L221.05 209.917L221.129 210.165H221.151H221.216C221.959 217.213 223.644 231.846 224.991 233.807C226.787 236.404 228.852 247.658 228.852 247.658L232.713 270.743C232.713 270.743 234.2 284.033 235.091 285.47C235.35 285.744 235.695 285.923 236.068 285.976C235.547 287.535 234.8 289.356 233.913 290.373C232.117 292.391 229.754 296.432 227.674 296.145C225.594 295.858 225.001 300.186 228.863 300.761C231 301.08 234.409 300.692 237.027 300.283C237.027 301.439 237.832 302.768 239.854 303.07C243.715 303.648 251.736 301.917 251.736 301.917C251.736 301.917 258.561 299.044 258.866 297.011C259.082 295.538 258.036 289.626 257.455 286.526C258.532 284.798 257.383 269.888 257.383 269.888L255.303 241.321C255.303 241.321 256.492 225.452 255.303 222.564C254.559 220.769 254.283 212.507 254.179 206.598L255.615 206.692C255.697 206.593 255.772 206.489 255.838 206.379L256.197 206.404C256.197 206.404 257.993 204.386 256.495 201.211C255.393 198.851 255.601 188.197 255.777 182.892L255.989 180.377C256.068 180.301 256.128 180.208 256.165 180.104C258.951 179.728 261.659 178.908 264.186 177.676C264.948 177.359 265.658 176.928 266.291 176.398C267.778 174.961 266.883 166.297 263.913 153.312C260.942 140.327 258.27 141.48 258.27 141.48C258.27 141.48 251.14 140.902 247.871 136.574C244.603 132.246 242.408 132.303 242.408 132.303C242.325 131.736 242.268 131.2 242.228 130.701C242.228 130.514 242.2 130.342 242.189 130.155C243.3 129.122 244.147 127.837 244.66 126.409C245.328 126.05 246.151 125.931 246.79 125.478C246.953 125.36 247.101 125.223 247.232 125.069C247.873 124.478 248.279 123.676 248.378 122.81C248.48 121.864 248.435 120.908 248.245 119.976C248.019 118.596 247.684 117.185 246.88 116.1C246.075 115.015 244.872 114.361 243.712 113.754C240.57 112.105 237.42 110.471 234.261 108.855C233.644 108.478 232.956 108.233 232.239 108.137C230.975 108.065 229.84 108.93 228.82 109.753C228.413 110.073 228.023 110.415 227.652 110.777C227.337 111.056 227.05 111.365 226.794 111.7C225.601 113.298 225.095 116.308 225.619 118.305C225.785 118.938 226.14 119.121 226.578 119.114C225.928 120.406 225.59 121.833 225.591 123.28C225.598 124.864 226.003 126.421 226.769 127.808C227.536 129.194 228.639 130.366 229.976 131.215C229.976 131.416 229.976 131.613 229.994 131.804C230.009 132.541 229.985 133.278 229.922 134.013C229.922 134.013 222.02 138.284 221.133 140.302C220.246 142.321 216.974 143.765 216.974 143.765C216.974 143.765 210.734 146.94 210.734 158.194L207.466 174.063L206.873 204.361C206.873 204.361 207.283 204.001 207.951 203.491C207.929 203.693 207.911 203.901 207.893 204.113C207.804 205.271 207.774 206.432 207.803 207.593L207.76 207.866ZM247.667 286.282C247.544 286.745 247.365 287.359 247.139 288.078C247.038 287.481 246.937 286.892 246.837 286.332C247.095 286.307 247.372 286.292 247.667 286.282Z" fill="url(#paint2_linear)"/>
<path d="M236.877 282.56C236.877 282.56 235.731 287.711 234.003 289.712C232.275 291.713 230.012 295.721 228.015 295.434C226.018 295.146 225.44 299.439 229.161 300.01C232.882 300.581 240.587 298.868 240.587 298.868C240.587 298.868 247.167 295.994 247.451 294.004C247.735 292.014 245.734 281.702 245.734 281.702L236.877 282.56Z" fill="#53526B"/>
<path opacity="0.05" d="M236.877 282.56C236.877 282.56 235.731 287.711 234.003 289.712C232.275 291.713 230.012 295.721 228.015 295.434C226.018 295.146 225.44 299.439 229.161 300.01C232.882 300.581 240.587 298.868 240.587 298.868C240.587 298.868 247.167 295.994 247.451 294.004C247.735 292.014 245.734 281.702 245.734 281.702L236.877 282.56Z" fill="black"/>
<path d="M247.462 284.848C247.462 284.848 246.316 289.999 244.588 292C242.861 294.001 240.587 298.009 238.593 297.722C236.6 297.435 236.018 301.727 239.739 302.298C243.46 302.869 251.183 301.152 251.183 301.152C251.183 301.152 257.764 298.279 258.047 296.289C258.331 294.299 256.33 283.986 256.33 283.986L247.462 284.848Z" fill="#53526B"/>
<path d="M221.428 206.469C221.428 206.469 223.716 231.07 225.433 233.646C227.15 236.221 229.15 247.377 229.15 247.377L232.868 270.262C232.868 270.262 234.305 283.422 235.156 284.852C236.007 286.282 246.625 285.667 246.625 285.667L240.023 209.899L221.428 206.469Z" fill="#5F5D7E"/>
<path opacity="0.05" d="M221.428 206.469C221.428 206.469 223.716 231.07 225.433 233.646C227.15 236.221 229.15 247.377 229.15 247.377L232.868 270.262C232.868 270.262 234.305 283.422 235.156 284.852C236.007 286.282 246.625 285.667 246.625 285.667L240.023 209.899L221.428 206.469Z" fill="black"/>
<path d="M216.852 194.734L217.599 197.109L221.64 209.935L221.719 210.18H221.74C222.283 210.302 233.734 212.935 236.205 213.743C236.338 213.784 236.469 213.833 236.596 213.89C237.742 214.461 239.172 235.057 239.172 235.057C239.172 235.057 240.03 254.511 240.609 255.941C241.187 257.37 243.482 286.831 244.901 285.976C246.32 285.121 256.628 285.976 256.628 285.976C257.774 284.83 256.628 269.385 256.628 269.385L254.595 241.07C254.595 241.07 255.741 225.337 254.595 222.475C253.45 219.612 253.45 200.449 253.45 200.449L230.034 196.789L227.771 196.43L216.852 194.734Z" fill="#5F5D7E"/>
<path opacity="0.02" d="M217.599 197.112L221.64 209.939L221.737 210.19C222.279 210.312 233.73 212.945 236.201 213.754H236.449L230.052 196.792L229.869 196.304L227.789 196.437L217.599 197.112Z" fill="black"/>
<path opacity="0.1" d="M244.316 137.526C244.316 137.526 233.73 148.97 227.15 139.526L220.857 143.819L222.002 150.399L218.281 200.172C218.281 200.172 228.008 199.885 234.872 202.173C236.784 202.851 238.85 202.969 240.826 202.513C242.803 202.057 244.608 201.045 246.029 199.598L244.897 155.834L247.473 142.389L244.316 137.526Z" fill="black"/>
<path d="M244.316 136.667C244.316 136.667 233.73 148.111 227.15 138.668L220.857 142.96L222.002 149.541L218.281 199.314C218.281 199.314 228.008 199.027 234.872 201.315C236.784 201.993 238.85 202.111 240.826 201.654C242.803 201.198 244.608 200.187 246.029 198.739L244.897 154.975L247.473 141.531L244.316 136.667Z" fill="#53526B"/>
<path d="M223.184 187.629V189.433H222.609V188.233H220.508V189.433H219.93V187.633L223.184 187.629Z" fill="#E82127"/>
<path d="M222.67 187.048H220.451C220.305 187.013 220.172 186.939 220.066 186.834C219.959 186.729 219.884 186.596 219.847 186.451H223.27C223.233 186.596 223.158 186.728 223.051 186.833C222.945 186.938 222.812 187.012 222.667 187.048" fill="#E82127"/>
<path d="M242.742 186.473C242.704 186.616 242.628 186.747 242.523 186.851C242.417 186.955 242.286 187.029 242.142 187.066H241.208L241.161 187.083V189.44H240.587V187.083L240.533 187.066H239.599C239.456 187.028 239.325 186.954 239.219 186.85C239.114 186.746 239.038 186.616 238.999 186.473H242.742Z" fill="#E82127"/>
<path d="M222.286 195.884C222.286 195.884 222.286 203.323 220.569 206.469C218.853 209.616 208.842 207.906 208.842 207.906L210.843 197.32L222.286 195.884Z" fill="#9C9CA1"/>
<path d="M209.93 213.053C211.439 214.49 217.692 211.616 217.261 209.907C216.96 208.696 215.904 204.364 215.304 201.907L214.887 200.18C214.887 200.18 211.223 199.034 209.93 200.18C209.46 200.596 209.129 202.238 208.975 204.221C208.709 207.665 208.978 212.141 209.93 213.053Z" fill="#E5CFBB"/>
<path d="M223.705 141.814L233.716 149.537C233.716 149.537 248.59 148.679 244.872 141.527C243.254 138.382 242.277 134.946 241.999 131.419C241.878 130.118 241.878 128.809 241.999 127.508C241.999 127.508 228.267 114.936 229.984 129.225C230.119 130.322 230.198 131.424 230.221 132.529C230.426 143.255 223.705 141.814 223.705 141.814Z" fill="#E6CFBB"/>
<path opacity="0.1" d="M230.012 129.228C230.147 130.325 230.226 131.428 230.249 132.533C231.79 133.554 233.598 134.096 235.446 134.092C238.008 134.092 239.893 131.599 241.596 129.943C241.406 127.569 242.023 127.511 242.023 127.511C242.023 127.511 228.295 114.925 230.012 129.228Z" fill="black"/>
<path d="M235.447 133.521C240.66 133.521 244.886 129.294 244.886 124.081C244.886 118.868 240.66 114.642 235.447 114.642C230.234 114.642 226.007 118.868 226.007 124.081C226.007 129.294 230.234 133.521 235.447 133.521Z" fill="#E6CFBB"/>
<path opacity="0.1" d="M242.167 133.09C242.167 133.09 243.74 133.233 246.887 137.522C250.033 141.811 256.898 142.386 256.898 142.386C256.898 142.386 259.473 141.24 262.332 154.113C265.191 166.987 266.05 175.568 264.62 176.997C263.191 178.427 257.469 180.435 254.595 180.435C254.595 180.435 253.737 198.456 255.166 201.602C256.596 204.749 254.879 206.753 254.879 206.753L242.307 205.894C242.307 205.894 238.015 200.46 237.156 191.02C236.298 181.581 233.439 154.688 234.868 151.541C236.298 148.395 242.591 140.385 242.307 139.526C242.023 138.668 242.167 133.09 242.167 133.09Z" fill="black"/>
<path d="M242.2 133.004C242.2 133.004 244.315 132.946 247.462 137.238C250.608 141.531 257.469 142.102 257.469 142.102C257.469 142.102 260.044 140.956 262.903 153.829C265.763 166.703 266.621 175.284 265.191 176.714C263.762 178.143 258.04 180.147 255.181 180.147C255.181 180.147 254.322 198.168 255.752 201.315C257.181 204.461 255.464 206.465 255.464 206.465L242.893 205.607C242.893 205.607 238.6 200.172 237.742 190.733C236.883 181.293 234.017 154.404 235.447 151.272C236.876 148.14 243.169 140.116 242.886 139.257C242.602 138.399 242.2 133.004 242.2 133.004Z" fill="#9C9CA1"/>
<path opacity="0.1" d="M208.978 204.217C210.347 203.172 212.929 201.545 215.307 201.904L214.89 200.176C214.89 200.176 211.227 199.03 209.933 200.176C209.456 200.593 209.129 202.231 208.978 204.217Z" fill="black"/>
<path opacity="0.1" d="M230.17 134.807C230.17 134.807 222.875 139.526 222.017 141.531C221.158 143.535 218.012 144.965 218.012 144.965C218.012 144.965 212.006 148.111 212.006 159.268L208.859 175L223.162 195.025C223.162 195.025 224.879 175 225.738 170.137C226.596 165.273 227.739 156.128 227.739 156.128C227.739 156.128 232.031 150.694 231.456 149.264C230.881 147.835 230.17 134.807 230.17 134.807Z" fill="black"/>
<path d="M230.17 134.72C230.17 134.72 222.563 138.955 221.708 140.956C220.853 142.957 217.703 144.39 217.703 144.39C217.703 144.39 211.697 147.536 211.697 158.693L208.551 174.426L207.979 204.461C207.979 204.461 213.13 199.598 216.848 201.886C220.566 204.174 222.854 194.447 222.854 194.447C222.854 194.447 224.571 174.422 225.429 169.558C226.288 164.695 227.43 155.55 227.43 155.55C227.43 155.55 231.722 150.115 231.147 148.686C230.573 147.256 230.17 134.72 230.17 134.72Z" fill="#9C9CA1"/>
<path opacity="0.1" d="M227.16 112.598C227.644 111.982 228.204 111.429 228.827 110.953C229.811 110.134 230.899 109.279 232.12 109.351C232.811 109.443 233.475 109.68 234.067 110.048C237.108 111.65 240.141 113.268 243.166 114.904C244.283 115.507 245.436 116.147 246.215 117.231C246.995 118.316 247.311 119.71 247.53 121.075C247.713 121.999 247.757 122.946 247.659 123.884C247.57 124.803 247.124 125.65 246.416 126.244C245.601 126.836 244.484 126.84 243.801 127.616C243.406 128.065 243.234 128.693 242.954 129.239C242.673 129.785 242.189 130.317 241.635 130.22C241.082 130.123 240.748 129.537 240.669 128.945C240.634 128.344 240.669 127.741 240.773 127.149C240.881 126.071 240.745 124.929 240.12 124.128C239.689 123.582 239.071 123.251 238.654 122.691C237.656 121.341 238.112 119.099 237.016 117.831C236.698 117.5 236.298 117.259 235.856 117.133C235.414 117.006 234.947 117 234.502 117.113C233.615 117.3 232.803 117.781 231.988 118.19C230.886 118.746 229.732 119.191 228.543 119.519C227.544 119.792 226.388 120.446 226.047 119.117C225.526 117.167 226.011 114.182 227.16 112.598Z" fill="black"/>
<path d="M227.448 112.314C227.932 111.698 228.492 111.145 229.114 110.669C230.099 109.85 231.187 108.995 232.408 109.067C233.099 109.159 233.763 109.396 234.355 109.764C237.394 111.366 239.919 109.85 243.453 114.62C244.208 115.64 245.723 115.863 246.503 116.948C247.282 118.032 247.598 119.426 247.817 120.791C248.001 121.716 248.044 122.662 247.947 123.6C247.858 124.519 247.411 125.366 246.704 125.96C245.889 126.552 244.772 126.556 244.089 127.332C243.694 127.781 243.522 128.409 243.241 128.955C242.961 129.501 242.476 130.033 241.923 129.936C241.37 129.839 241.036 129.254 240.957 128.661C240.922 128.06 240.957 127.458 241.061 126.865C241.169 125.787 241.032 124.645 240.407 123.844C239.976 123.298 239.359 122.968 238.942 122.407C237.943 121.057 238.399 118.815 237.304 117.548C236.986 117.216 236.586 116.975 236.144 116.849C235.702 116.723 235.235 116.716 234.79 116.829C233.902 117.016 233.091 117.497 232.275 117.907C231.174 118.462 230.02 118.908 228.831 119.236C227.832 119.509 226.675 120.162 226.334 118.833C225.81 116.883 226.298 113.895 227.448 112.314Z" fill="#865A61"/>
<path opacity="0.1" d="M253.231 155.974C253.231 155.974 257.045 165.701 254.183 169.706L247.89 168.269C247.89 168.269 253.612 169.986 252.753 166.552C251.895 163.118 253.231 155.974 253.231 155.974Z" fill="black"/>
<path opacity="0.1" d="M255.314 180.007C255.314 180.007 247.017 180.578 244.729 178.862C247.742 181.162 251.3 182.64 255.055 183.154L255.314 180.007Z" fill="black"/>
<path opacity="0.1" d="M219.571 161.689C219.571 161.689 215.278 174.849 215.566 176.85C215.853 178.851 216.424 200.88 216.424 200.88L217.283 200.593L216.995 176.563L219.571 161.689Z" fill="black"/>
<path d="M256.323 177.773L158.264 98.751C157.693 98.1805 157.015 97.7282 156.27 97.42C155.524 97.1118 154.724 96.9538 153.918 96.955H149.751C158.077 86.2847 162.02 72.8404 160.776 59.3632C159.532 45.886 153.193 33.3909 143.054 24.4256C132.915 15.4604 119.738 10.7001 106.209 11.1154C92.6812 11.5307 79.8209 17.0903 70.2505 26.6607C60.6802 36.231 55.1205 49.0914 54.7052 62.6195C54.2899 76.1477 59.0502 89.3249 68.0155 99.4643C76.9807 109.604 89.4758 115.942 102.953 117.186C116.43 118.43 129.875 114.487 140.545 106.161V110.324C140.544 111.131 140.702 111.93 141.01 112.676C141.318 113.422 141.77 114.1 142.341 114.67L240.4 193.693C240.968 194.265 241.643 194.719 242.387 195.029C243.131 195.339 243.93 195.499 244.736 195.499C245.542 195.499 246.34 195.339 247.084 195.029C247.828 194.719 248.503 194.265 249.071 193.693L256.298 186.473C257.451 185.321 258.101 183.758 258.106 182.128C258.111 180.498 257.47 178.932 256.323 177.773ZM107.808 96.955C101.333 96.955 95.004 95.035 89.6205 91.4378C84.2369 87.8407 80.041 82.7279 77.5632 76.746C75.0854 70.7642 74.4371 64.1819 75.7003 57.8316C76.9634 51.4813 80.0813 45.6481 84.6596 41.0698C89.238 36.4915 95.0711 33.3736 101.421 32.1104C107.772 30.8473 114.354 31.4956 120.336 33.9734C126.318 36.4511 131.431 40.6471 135.028 46.0306C138.625 51.4142 140.545 57.7435 140.545 64.2182C140.548 68.5185 139.704 72.7773 138.06 76.751C136.416 80.7247 134.005 84.3354 130.964 87.3765C127.924 90.4176 124.314 92.8296 120.34 94.4744C116.367 96.1192 112.108 96.9645 107.808 96.9622V96.955Z" fill="url(#paint3_linear)"/>
<path d="M257.041 177.055L158.982 98.0325C158.411 97.4621 157.734 97.0098 156.988 96.7016C156.242 96.3934 155.443 96.2354 154.636 96.2366H150.469C158.796 85.5663 162.739 72.122 161.494 58.6448C160.25 45.1676 153.912 32.6725 143.772 23.7072C133.633 14.742 120.456 9.98169 106.928 10.397C93.3995 10.8123 80.5391 16.372 70.9688 25.9423C61.3984 35.5127 55.8388 48.373 55.4235 61.9012C55.0082 75.4293 59.7685 88.6065 68.7337 98.7459C77.699 108.885 90.1941 115.223 103.671 116.468C117.148 117.712 130.593 113.769 141.263 105.443V109.606C141.262 110.413 141.42 111.212 141.728 111.958C142.036 112.704 142.489 113.381 143.059 113.952L241.118 192.974C241.686 193.547 242.362 194.001 243.106 194.311C243.85 194.621 244.648 194.78 245.454 194.78C246.26 194.78 247.058 194.621 247.802 194.311C248.546 194.001 249.222 193.547 249.789 192.974L257.016 185.754C258.169 184.602 258.819 183.04 258.824 181.41C258.829 179.78 258.188 178.214 257.041 177.055ZM108.526 96.2366C102.052 96.2366 95.7223 94.3166 90.3387 90.7194C84.9552 87.1223 80.7592 82.0095 78.2815 76.0276C75.8037 70.0458 75.1554 63.4635 76.4186 57.1132C77.6817 50.7629 80.7996 44.9297 85.3779 40.3514C89.9562 35.7731 95.7894 32.6552 102.14 31.3921C108.49 30.1289 115.072 30.7772 121.054 33.255C127.036 35.7327 132.149 39.9287 135.746 45.3122C139.343 50.6958 141.263 57.0251 141.263 63.4998C141.266 67.8001 140.422 72.0589 138.778 76.0326C137.134 80.0063 134.723 83.617 131.683 86.6581C128.642 89.6992 125.032 92.1112 121.059 93.756C117.085 95.4007 112.827 96.2461 108.526 96.2438V96.2366Z" fill="#E3E829"/>
<path d="M249.75 169.849C249.75 169.849 235.436 153.434 237.448 164.699C238.884 172.709 244.312 177.001 246.887 177.859C249.463 178.718 249.75 169.849 249.75 169.849Z" fill="#E6CFBB"/>
<path d="M253.184 154.688C253.184 154.688 253.471 165.273 254.901 166.703C256.33 168.132 254.042 169.849 254.042 169.849L248.32 168.413C248.32 168.413 249.757 177.852 243.744 176.71C243.744 176.71 247.749 180.428 251.754 181.002C255.759 181.577 255.472 180.144 255.472 180.144L261.477 172.992L253.184 154.688Z" fill="#9C9CA1"/>
<path d="M254.768 180.298L260.572 179.023L259.797 176.347L256.205 174.91L251.535 177.066L254.768 180.298Z" fill="#9C9CA1"/>
<path d="M112.107 77.0665L119.834 71.1075C119.834 71.1075 114.658 72.2174 114.805 63.9452C114.803 63.9177 114.803 63.8901 114.805 63.8626C114.805 63.1155 114.877 62.2965 114.984 61.3949C116.31 50.357 105.714 60.0695 105.714 60.0695C105.805 61.0468 105.805 62.0304 105.714 63.0077C105.714 63.0329 105.714 63.0616 105.714 63.0867C105.504 65.8068 104.754 68.4579 103.508 70.8848C100.631 76.402 112.107 77.0665 112.107 77.0665Z" fill="#CBADA0"/>
<path opacity="0.1" d="M106.702 61.474C108.013 62.7491 108.814 65.0659 110.786 65.0659C112.212 65.069 113.608 64.6504 114.798 63.8626C114.798 63.1155 114.87 62.2965 114.977 61.395C116.303 50.357 105.707 60.0695 105.707 60.0695C105.707 60.0695 106.842 59.678 106.702 61.474Z" fill="black"/>
<path d="M110.785 64.7067C114.808 64.7067 118.07 61.4454 118.07 57.4223C118.07 53.3992 114.808 50.1379 110.785 50.1379C106.762 50.1379 103.501 53.3992 103.501 57.4223C103.501 61.4454 106.762 64.7067 110.785 64.7067Z" fill="#CBADA0"/>
<path opacity="0.1" d="M117.772 48.0941C117.354 47.5661 116.871 47.093 116.335 46.686C115.495 45.9856 114.561 45.2493 113.515 45.3139C112.924 45.3926 112.356 45.5958 111.849 45.9102C109.245 47.2823 107.086 45.9856 104.058 50.066C103.411 50.9389 102.115 51.1436 101.447 52.0595C100.778 52.9755 100.509 54.1788 100.319 55.3497C100.161 56.1418 100.124 56.9531 100.207 57.7563C100.287 58.5447 100.674 59.2699 101.285 59.775C101.982 60.2814 102.941 60.285 103.526 60.9495C103.821 61.3824 104.062 61.8491 104.245 62.3396C104.482 62.8066 104.898 63.2484 105.373 63.1801C105.847 63.1119 106.13 62.5982 106.199 62.1026C106.228 61.5895 106.198 61.0748 106.109 60.5688C106.019 59.66 106.134 58.6687 106.669 57.9826C107.028 57.5121 107.567 57.2319 107.923 56.7542C108.778 55.6012 108.39 53.6651 109.327 52.5947C109.601 52.3132 109.945 52.1094 110.324 52.004C110.702 51.8986 111.102 51.8955 111.482 51.9949C112.237 52.2104 112.962 52.5218 113.638 52.9216C114.581 53.3976 115.568 53.779 116.587 54.0602C117.441 54.2937 118.433 54.8541 118.724 53.701C119.18 52.0057 118.752 49.4482 117.772 48.0941Z" fill="black"/>
<path d="M117.772 47.7349C117.354 47.2069 116.871 46.7338 116.335 46.3269C115.495 45.6265 114.561 44.8901 113.515 44.9548C112.924 45.0335 112.356 45.2367 111.849 45.551C109.245 46.9232 107.086 45.6265 104.058 49.7069C103.411 50.5797 102.115 50.7845 101.447 51.7004C100.778 52.6163 100.509 53.8196 100.319 54.9906C100.161 55.7827 100.124 56.5939 100.207 57.3972C100.287 58.1856 100.674 58.9108 101.285 59.4159C101.982 59.9223 102.941 59.9259 103.526 60.5904C103.821 61.0233 104.062 61.49 104.245 61.9805C104.482 62.4474 104.898 62.8892 105.373 62.821C105.847 62.7528 106.13 62.2391 106.199 61.7434C106.228 61.2304 106.198 60.7157 106.109 60.2097C106.019 59.3009 106.134 58.3095 106.669 57.6235C107.028 57.1529 107.567 56.8728 107.923 56.3951C108.778 55.242 108.39 53.306 109.327 52.2356C109.601 51.9541 109.945 51.7503 110.324 51.6449C110.702 51.5395 111.102 51.5364 111.482 51.6358C112.237 51.8513 112.962 52.1627 113.638 52.5625C114.581 53.0385 115.568 53.4199 116.587 53.7011C117.441 53.9346 118.433 54.4949 118.724 53.3419C119.18 51.6465 118.752 49.0891 117.772 47.7349Z" fill="#413E3F"/>
<path opacity="0.1" d="M103.501 80.8991L103.357 86.4127C105.445 86.98 107.599 87.2663 109.762 87.264C110.121 87.264 110.498 87.264 110.864 87.2388C112.783 87.1562 114.684 86.8451 116.529 86.3121H116.565C116.906 86.2115 117.244 86.1074 117.578 85.9924H117.614L117.919 85.8847C119.082 85.4752 120.21 84.9756 121.295 84.3904L121.364 84.3545C121.482 84.2899 121.601 84.2252 121.723 84.1569L121.166 76.7253L122.053 71.6283L117.197 68.3202C116.924 68.7138 116.619 69.0839 116.285 69.4265C115.805 69.9272 115.244 70.3426 114.625 70.6549C111.141 72.3719 107.175 69.642 105.204 67.9538L104.755 67.5551C104.244 67.0917 103.954 66.7756 103.954 66.7756L101.525 70.5256L103.501 80.8991Z" fill="black"/>
<path d="M103.501 81.2583L103.357 86.7719C105.445 87.3392 107.599 87.6255 109.762 87.6232C110.121 87.6232 110.498 87.6232 110.864 87.598C112.783 87.5154 114.684 87.2043 116.529 86.6713H116.565C116.906 86.5707 117.244 86.4666 117.578 86.3516H117.614L117.919 86.2439C119.082 85.8344 120.21 85.3348 121.295 84.7496L121.364 84.7137C121.482 84.6491 121.601 84.5844 121.723 84.5161L121.166 77.0845L122.053 71.9875L117.197 68.6794C116.924 69.073 116.619 69.4431 116.285 69.7857C115.805 70.2864 115.244 70.7018 114.625 71.0141C111.141 72.731 107.175 70.0012 105.204 68.313L104.755 67.9143C104.244 67.4509 103.954 67.1348 103.954 67.1348L101.525 70.8848L103.501 81.2583Z" fill="#1B1597"/>
<path d="M116.964 81.7001C116.964 81.7001 117.229 83.8157 117.578 86.3444H117.614L117.919 86.2367C119.082 85.8272 120.211 85.3276 121.295 84.7424L121.364 84.7065C121.482 84.6419 121.601 84.5772 121.723 84.509C123.315 83.6152 124.802 82.5453 126.155 81.3193L126.274 81.208C127.016 80.5361 127.713 79.8162 128.361 79.0528L128.436 78.963C127.154 74.5126 124.485 73.1118 124.485 73.1118C124.485 73.1118 122.057 72.0055 121.392 70.4609C120.728 68.9164 114.862 65.6514 114.862 65.6514V65.6765C114.862 65.9531 114.769 68.4854 114.629 71.0321C114.539 72.6879 114.428 74.351 114.298 75.407C114.27 75.7501 114.208 76.0895 114.112 76.4199C113.655 77.5083 116.964 81.7001 116.964 81.7001Z" fill="#1B1597"/>
<defs>
<linearGradient id="paint0_linear" x1="184.725" y1="285.416" x2="184.725" y2="14.1145" gradientUnits="userSpaceOnUse">
<stop stop-color="#808080" stop-opacity="0.25"/>
<stop offset="0.54" stop-color="#808080" stop-opacity="0.12"/>
<stop offset="1" stop-color="#808080" stop-opacity="0.1"/>
</linearGradient>
<linearGradient id="paint1_linear" x1="13435" y1="22252" x2="13435" y2="16991.2" gradientUnits="userSpaceOnUse">
<stop stop-color="#808080" stop-opacity="0.25"/>
<stop offset="0.54" stop-color="#808080" stop-opacity="0.12"/>
<stop offset="1" stop-color="#808080" stop-opacity="0.1"/>
</linearGradient>
<linearGradient id="paint2_linear" x1="-62808" y1="169417" x2="-62808" y2="63501.3" gradientUnits="userSpaceOnUse">
<stop stop-color="#808080" stop-opacity="0.25"/>
<stop offset="0.54" stop-color="#808080" stop-opacity="0.12"/>
<stop offset="1" stop-color="#808080" stop-opacity="0.1"/>
</linearGradient>
<linearGradient id="paint3_linear" x1="97395.9" y1="104783" x2="97395.9" y2="10074.3" gradientUnits="userSpaceOnUse">
<stop stop-color="#808080" stop-opacity="0.25"/>
<stop offset="0.54" stop-color="#808080" stop-opacity="0.12"/>
<stop offset="1" stop-color="#808080" stop-opacity="0.1"/>
</linearGradient>
</defs>
</svg>
