<svg width="579" height="428" viewBox="0 0 579 428" fill="none" xmlns="http://www.w3.org/2000/svg">
<path d="M393.678 189.399C322.593 146.543 289.008 14.4727 179.395 93.385C69.782 172.297 115.111 334.241 220.191 373.392C325.271 412.543 460.639 390.49 498.55 317.762C563.861 193.314 441.27 218.244 393.678 189.399Z" fill="#757677"/>
<path d="M105.427 342.074C105.427 342.074 166.002 281.292 267.167 310.137C368.332 338.983 427.878 314.258 415.31 161.378C415.31 161.378 557.477 181.157 539.345 282.323C517.298 405.121 231.729 451.893 105.427 342.074Z" fill="#4E4D4F" fill-opacity="0.57"/>
<path d="M290.244 134.386L289.211 131.708L288.177 134.386C287.719 135.609 287.004 136.719 286.081 137.642C285.159 138.566 284.049 139.281 282.827 139.74C284.033 140.229 285.128 140.956 286.048 141.876C286.968 142.796 287.694 143.891 288.184 145.097L289.218 147.775L290.252 145.097C290.71 143.873 291.425 142.762 292.349 141.838C293.273 140.914 294.385 140.198 295.608 139.74C294.384 139.283 293.271 138.568 292.346 137.645C291.42 136.721 290.704 135.61 290.244 134.386Z" fill="white"/>
<path d="M203.502 291.594L202.468 288.916L201.435 291.594C200.977 292.816 200.262 293.927 199.34 294.85C198.417 295.773 197.307 296.489 196.085 296.947C197.291 297.437 198.386 298.163 199.306 299.083C200.226 300.003 200.952 301.099 201.442 302.304L202.476 304.983L203.509 302.304C203.968 301.08 204.683 299.969 205.607 299.045C206.531 298.121 207.642 297.406 208.866 296.947C207.66 296.459 206.563 295.734 205.642 294.814C204.72 293.895 203.993 292.8 203.502 291.594Z" fill="white"/>
<path d="M463.523 274.906L462.906 273.051L462.288 274.906C461.63 276.489 460.372 277.747 458.789 278.405C460.331 279.123 461.57 280.362 462.288 281.904L462.906 283.758L463.523 281.904C464.181 280.321 465.439 279.062 467.023 278.405C466.22 278.111 465.492 277.645 464.887 277.041C464.283 276.437 463.818 275.708 463.523 274.906Z" fill="white"/>
<path d="M161.676 183.63L161.058 181.775L160.437 183.63C159.779 185.213 158.521 186.471 156.938 187.129C158.479 187.847 159.719 189.086 160.437 190.628L161.054 192.482L161.672 190.628C162.33 189.045 163.588 187.786 165.171 187.129C164.335 186.899 163.574 186.455 162.961 185.842C162.348 185.228 161.905 184.466 161.676 183.63Z" fill="white"/>
<path opacity="0.62" d="M308.663 427.525C347.313 427.525 378.645 422.896 378.645 417.186C378.645 411.477 347.313 406.848 308.663 406.848C270.014 406.848 238.682 411.477 238.682 417.186C238.682 422.896 270.014 427.525 308.663 427.525Z" fill="#9C9CA1"/>
<path d="M238.116 92.3544V151.693C238.121 152.912 237.885 154.12 237.421 155.248C236.957 156.375 236.274 157.399 235.412 158.261C234.55 159.123 233.526 159.806 232.399 160.27C231.271 160.734 230.063 160.97 228.844 160.965H102.542C101.323 160.97 100.115 160.734 98.9881 160.27C97.8609 159.806 96.8367 159.123 95.9747 158.261C95.1127 157.399 94.43 156.375 93.9659 155.248C93.5017 154.12 93.2654 152.912 93.2706 151.693V92.3544C93.2654 91.1354 93.5017 89.9274 93.9659 88.8001C94.43 87.6729 95.1127 86.6487 95.9747 85.7867C96.8367 84.9248 97.8609 84.242 98.9881 83.7779C100.115 83.3137 101.323 83.0774 102.542 83.0826H228.844C230.063 83.0774 231.271 83.3137 232.399 83.7779C233.526 84.242 234.55 84.9248 235.412 85.7867C236.274 86.6487 236.957 87.6729 237.421 88.8001C237.885 89.9274 238.121 91.1354 238.116 92.3544Z" fill="#9C9CA1"/>
<path d="M238.116 92.3544V97.5052H93.2706V92.3544C93.2654 91.1354 93.5017 89.9274 93.9659 88.8001C94.43 87.6729 95.1127 86.6487 95.9747 85.7868C96.8367 84.9248 97.8609 84.242 98.9881 83.7779C100.115 83.3137 101.323 83.0774 102.542 83.0826H228.844C230.063 83.0774 231.271 83.3137 232.399 83.7779C233.526 84.242 234.55 84.9248 235.412 85.7868C236.274 86.6487 236.957 87.6729 237.421 88.8001C237.885 89.9274 238.121 91.1354 238.116 92.3544Z" fill="#2D4AFB"/>
<path d="M101.513 92.9731C102.537 92.9731 103.367 92.1428 103.367 91.1186C103.367 90.0943 102.537 89.264 101.513 89.264C100.488 89.264 99.6582 90.0943 99.6582 91.1186C99.6582 92.1428 100.488 92.9731 101.513 92.9731Z" fill="white"/>
<path d="M111.196 91.1178C111.196 91.4846 111.088 91.8431 110.884 92.1481C110.68 92.453 110.39 92.6907 110.052 92.8311C109.713 92.9715 109.34 93.0082 108.98 92.9366C108.62 92.8651 108.29 92.6885 108.03 92.4291C107.771 92.1697 107.594 91.8393 107.523 91.4796C107.451 91.1198 107.488 90.7469 107.628 90.4081C107.769 90.0692 108.007 89.7796 108.312 89.5758C108.616 89.372 108.975 89.2633 109.342 89.2633C110.372 89.0573 111.196 89.8804 111.196 91.1178Z" fill="white"/>
<path d="M118.82 91.1185C118.82 91.4853 118.712 91.8439 118.508 92.1489C118.304 92.4538 118.014 92.6915 117.676 92.8319C117.337 92.9723 116.964 93.009 116.604 92.9374C116.244 92.8659 115.914 92.6892 115.655 92.4299C115.395 92.1705 115.219 91.8401 115.147 91.4803C115.075 91.1206 115.112 90.7477 115.252 90.4089C115.393 90.07 115.631 89.7803 115.936 89.5766C116.241 89.3728 116.599 89.264 116.966 89.264C117.214 89.2454 117.464 89.2805 117.697 89.3671C117.931 89.4537 118.143 89.5897 118.319 89.7658C118.495 89.9418 118.631 90.1539 118.717 90.3873C118.804 90.6208 118.839 90.8702 118.82 91.1185Z" fill="white"/>
<path d="M142.099 133.151H113.051C112.834 133.154 112.618 133.113 112.417 133.031C112.215 132.95 112.032 132.828 111.878 132.675C111.725 132.521 111.603 132.338 111.522 132.137C111.44 131.935 111.399 131.719 111.403 131.502V107.804C111.4 107.587 111.441 107.371 111.523 107.17C111.605 106.969 111.726 106.787 111.88 106.634C112.034 106.48 112.216 106.359 112.417 106.278C112.619 106.196 112.834 106.156 113.051 106.159H142.099C142.316 106.156 142.532 106.197 142.734 106.278C142.935 106.36 143.118 106.481 143.272 106.635C143.425 106.789 143.547 106.972 143.628 107.173C143.71 107.375 143.751 107.59 143.748 107.808V131.296C143.759 131.757 143.595 132.204 143.289 132.549C142.983 132.893 142.558 133.108 142.099 133.151Z" fill="white"/>
<path d="M218.131 145.719H111.196C110.65 145.717 110.127 145.499 109.741 145.113C109.355 144.727 109.138 144.204 109.136 143.658C109.138 143.112 109.355 142.589 109.741 142.203C110.127 141.817 110.65 141.6 111.196 141.598H218.131C218.677 141.6 219.2 141.817 219.586 142.203C219.972 142.589 220.189 143.112 220.191 143.658C220.189 144.204 219.972 144.727 219.586 145.113C219.2 145.499 218.677 145.717 218.131 145.719Z" fill="white"/>
<path d="M218.127 130.265H153.228C152.682 130.263 152.159 130.046 151.773 129.66C151.387 129.274 151.169 128.751 151.167 128.205C151.169 127.659 151.387 127.136 151.773 126.75C152.159 126.364 152.682 126.146 153.228 126.144H218.127C218.673 126.146 219.196 126.364 219.582 126.75C219.968 127.136 220.186 127.659 220.188 128.205C220.186 128.751 219.968 129.274 219.582 129.66C219.196 130.046 218.673 130.263 218.127 130.265Z" fill="white"/>
<path d="M193.405 115.843H153.228C152.682 115.841 152.159 115.623 151.773 115.237C151.387 114.851 151.169 114.328 151.167 113.782C151.169 113.236 151.387 112.713 151.773 112.327C152.159 111.941 152.682 111.724 153.228 111.722H193.405C193.951 111.725 194.473 111.943 194.858 112.329C195.244 112.714 195.461 113.237 195.463 113.782C195.461 114.328 195.244 114.85 194.858 115.236C194.473 115.622 193.951 115.84 193.405 115.843Z" fill="white"/>
<path d="M280.823 27.818C280.823 27.818 285.562 22.4612 288.24 19.9888C293.391 15.6619 299.16 7.83268 318.116 13.6014C319.591 14.0604 321.036 14.611 322.443 15.2499C324.091 15.8679 329.242 15.8679 334.393 11.7509C342.841 5.15429 345.931 0.209449 357.469 0.00188997C370.862 -0.204079 372.923 16.485 383.224 20.6059C389.818 23.2843 407.125 25.9627 410.834 27.1993L280.823 27.818Z" fill="#E8E9F9"/>
<path d="M0 385.334C0 385.334 4.73888 379.978 7.41727 377.505C12.5681 373.178 18.3376 365.349 37.2931 371.118C38.7683 371.577 40.2134 372.127 41.62 372.766C43.2686 373.384 48.4194 373.384 53.5702 369.267C62.0181 362.671 65.1085 357.726 76.6467 357.518C90.0394 357.312 92.0999 374.001 102.402 378.122C108.995 380.801 126.302 383.479 130.011 384.716L0 385.334Z" fill="#E8E9F9"/>
<path d="M508.983 160.963C508.983 160.963 511.517 158.1 512.95 156.776C515.705 154.462 518.79 150.275 528.926 153.36C529.714 153.605 530.487 153.9 531.239 154.241C532.12 154.572 534.875 154.572 537.629 152.368C542.145 148.846 543.799 146.202 549.969 146.092C557.13 145.981 558.232 154.905 563.741 157.109C567.266 158.54 576.521 159.972 578.505 160.634L508.983 160.963Z" fill="#EAEBFB"/>
<path d="M329.804 313.847H399.446C406.182 313.87 412.688 311.399 417.71 306.91C422.732 302.42 425.914 296.231 426.643 289.534L436.739 185.072H367.097L365.655 245.648L329.804 313.847Z" fill="#9C9CA1"/>
<path d="M329.804 312.61C347.73 311.992 365.654 311.576 383.374 311.373L396.767 311.167H400.06C401.094 311.167 402.121 310.961 403.15 310.961C405.15 310.728 407.098 310.172 408.919 309.313C412.658 307.722 415.947 305.236 418.499 302.074C421.051 298.912 422.786 295.171 423.552 291.181C423.954 289.07 424.229 286.937 424.376 284.794L424.993 278.2L426.23 264.808C427.054 255.948 428.085 247.088 428.908 238.023C430.763 220.303 432.823 202.378 434.884 184.662C434.97 184.24 435.204 183.862 435.544 183.598C435.884 183.333 436.308 183.199 436.738 183.219C437.144 183.257 437.52 183.449 437.789 183.756C438.057 184.062 438.198 184.461 438.181 184.868C436.944 202.793 435.503 220.512 433.854 238.438C433.03 247.298 432.411 256.364 431.382 265.223L430.145 278.615L429.527 285.209C429.321 287.475 429.115 289.536 428.703 292.214C426.849 301.898 420.049 310.552 410.778 314.054C408.56 315.053 406.193 315.68 403.772 315.909C402.544 316.08 401.303 316.149 400.063 316.115H396.564L383.171 315.909C365.246 315.703 347.321 315.291 329.601 314.672C329.302 314.642 329.026 314.495 328.833 314.264C328.639 314.033 328.544 313.736 328.567 313.435C328.773 313.229 329.185 312.61 329.804 312.61Z" fill="#3D415B"/>
<path d="M369.569 315.701V389.669" stroke="#3D415B" stroke-width="2.496" stroke-miterlimit="10"/>
<path d="M158.327 250.061L382.704 250.061V246.559L158.327 246.559V250.061Z" fill="#3D415B"/>
<path d="M356.383 403.474L358.649 412.128L347.111 415.627L343.402 405.123L356.383 403.474Z" fill="#E3BC9A"/>
<path d="M286.329 397.293V404.298H296.631L297.665 397.293H286.329Z" fill="#E3BC9A"/>
<path d="M365.241 198.878L349.788 237.201L349.376 238.024C348.96 239.11 348.227 240.045 347.271 240.707C346.315 241.368 345.182 241.726 344.019 241.733L299.927 241.322C299.493 241.327 299.061 241.246 298.659 241.082C298.256 240.918 297.891 240.676 297.583 240.369C297.276 240.061 297.034 239.696 296.87 239.293C296.706 238.891 296.625 238.46 296.631 238.025C296.63 237.274 296.901 236.548 297.393 235.98C297.885 235.412 298.565 235.041 299.309 234.935L342.99 228.547L337.221 233.08L347.729 193.109C348.033 191.924 348.569 190.811 349.305 189.834C350.041 188.857 350.963 188.035 352.018 187.416C353.073 186.797 354.24 186.393 355.452 186.227C356.664 186.061 357.896 186.137 359.079 186.449C360.262 186.762 361.371 187.305 362.342 188.049C363.314 188.792 364.129 189.72 364.74 190.78C365.351 191.839 365.747 193.009 365.904 194.222C366.061 195.435 365.976 196.668 365.655 197.848C365.463 198.167 365.323 198.514 365.241 198.878Z" fill="#D8AC89"/>
<path d="M304.46 234.315L289.419 233.904C285.71 233.904 282.62 237.2 282.62 241.321H304.666L304.46 234.315Z" fill="#D8AC89"/>
<path d="M340.723 203.617L364.829 209.592L368.744 188.164C368.994 186.781 368.96 185.361 368.646 183.991C368.331 182.621 367.742 181.329 366.915 180.193C366.087 179.057 365.038 178.1 363.83 177.381C362.623 176.661 361.282 176.194 359.889 176.007C354.944 175.389 349.999 178.068 348.35 182.807L340.723 203.617Z" fill="#4860FF" fill-opacity="0.61"/>
<path d="M365.653 245.442L291.273 283.147C287.865 284.846 285.033 287.51 283.128 290.808C281.223 294.105 280.329 297.889 280.559 301.69L286.125 397.293H297.458L312.909 295.097L370.803 254.508L365.653 245.442Z" fill="#303348"/>
<path d="M352.674 114.813C352.674 114.813 373.278 107.808 384.198 127.378C384.76 128.598 385.526 129.713 386.464 130.674C388.731 133.353 393.264 138.091 398.415 139.534C418.607 145.715 431.179 183.829 391.203 187.129C341.136 191.456 326.919 181.562 333.924 161.58C338.869 147.363 334.336 137.268 334.336 137.268L352.674 114.813Z" fill="#282C3C"/>
<path d="M369.157 165.911L358.442 170.65C355.337 172.021 352.704 174.276 350.872 177.134C349.04 179.992 348.09 183.326 348.141 186.721C348.347 200.731 351.437 235.549 363.388 248.945H399.651C405.218 224.22 402.123 186.309 402.123 186.309C402.305 181.82 400.798 177.426 397.9 173.993C395.002 170.561 390.923 168.338 386.467 167.765L369.157 165.911Z" fill="#2945FF"/>
<path d="M369.981 177.445C368.181 177.645 366.374 177.131 364.949 176.014C363.524 174.897 362.593 173.265 362.358 171.469L359.473 148.397L373.278 146.748L376.162 169.619C376.277 170.54 376.208 171.474 375.958 172.368C375.709 173.262 375.284 174.097 374.709 174.825C374.134 175.553 373.419 176.16 372.608 176.61C371.796 177.059 370.903 177.343 369.981 177.445Z" fill="#DDB28D"/>
<path d="M358.648 165.705H358.03C355.852 165.989 353.64 165.841 351.518 165.27C349.397 164.699 347.41 163.716 345.668 162.377C343.927 161.038 342.467 159.369 341.371 157.465C340.275 155.561 339.565 153.46 339.281 151.282L336.603 131.296L370.393 126.969L373.071 146.955C373.36 149.134 373.216 151.348 372.646 153.471C372.077 155.594 371.094 157.584 369.754 159.326C368.414 161.068 366.743 162.528 364.838 163.623C362.932 164.718 360.828 165.425 358.648 165.705Z" fill="#E3BC9A"/>
<path d="M374.307 139.125L371.423 145.101C371.423 145.101 367.508 148.397 366.478 140.156C365.654 133.151 360.503 134.387 360.503 134.387C360.503 134.387 342.989 147.783 332.481 138.507C324.243 131.296 337.426 118.109 352.674 115.019L372.453 123.673L374.307 139.125Z" fill="#282C3C"/>
<path d="M369.362 145.513C369.485 146.613 369.931 147.652 370.644 148.499C371.356 149.345 372.305 149.962 373.368 150.27C374.431 150.578 375.562 150.564 376.617 150.229C377.672 149.895 378.604 149.255 379.296 148.39C379.987 147.526 380.407 146.476 380.501 145.373C380.596 144.27 380.362 143.164 379.828 142.194C379.294 141.225 378.484 140.435 377.502 139.925C376.519 139.416 375.407 139.209 374.307 139.331C373.569 139.393 372.851 139.605 372.198 139.954C371.544 140.302 370.969 140.781 370.506 141.359C370.043 141.937 369.703 142.604 369.507 143.318C369.31 144.032 369.261 144.779 369.362 145.513Z" fill="#E3BC9A"/>
<path d="M373.895 147.367C373.895 147.985 374.513 148.401 374.929 148.191C375.547 148.191 375.963 147.573 375.753 147.157C375.753 146.539 375.135 146.123 374.719 146.333C374.474 146.363 374.25 146.488 374.096 146.682C373.941 146.875 373.869 147.121 373.895 147.367Z" fill="white"/>
<path d="M345.462 156.021L354.94 153.961C354.94 153.961 355.352 158.082 350.201 158.905C346.08 159.317 345.462 156.021 345.462 156.021Z" fill="white"/>
<path d="M399.445 249.151H363.181L305.287 284.177C301.998 286.185 299.543 289.31 298.37 292.98C297.197 296.651 297.385 300.621 298.9 304.164L343.402 405.122L356.176 403.68L332.276 306.223C352.262 305.399 389.555 302.308 399.235 291.591C415.928 273.051 399.445 249.151 399.445 249.151Z" fill="#3D415B"/>
<path d="M276.027 185.896L296.631 241.321H229.668L210.503 188.987C210.362 188.62 210.313 188.223 210.36 187.833C210.407 187.442 210.547 187.068 210.77 186.744C210.993 186.42 211.292 186.154 211.64 185.971C211.988 185.787 212.376 185.691 212.769 185.691H276.023L276.027 185.896Z" fill="#9C9CA1"/>
<path d="M276.027 185.896H279.323C280.169 185.899 280.994 186.157 281.692 186.634C282.39 187.112 282.929 187.787 283.238 188.574L302.606 241.321H296.63L276.027 185.896Z" fill="#AFADAD"/>
<path d="M234.613 246.678H296.631V241.321H229.874V241.733C229.86 242.369 229.972 243.001 230.202 243.594C230.433 244.187 230.778 244.728 231.218 245.188C231.659 245.647 232.185 246.015 232.767 246.271C233.35 246.526 233.977 246.665 234.613 246.678Z" fill="#BDBDBD"/>
<path d="M296.631 246.678H338.045C338.752 246.665 339.426 246.379 339.925 245.879C340.425 245.38 340.711 244.706 340.724 243.999C340.711 243.293 340.425 242.619 339.925 242.119C339.426 241.62 338.752 241.333 338.045 241.321H296.631V246.678Z" fill="#9C9C9C"/>
<path d="M259.132 213.299C260.369 217.214 258.926 221.128 255.633 222.159C252.543 223.192 248.834 220.922 247.601 217.214C246.364 213.299 247.807 209.384 251.1 208.354C254.393 207.323 257.895 209.59 259.132 213.299Z" fill="#ECF2F5"/>
<path d="M393.469 197.847L378.013 236.789L377.601 237.612C377.164 238.726 376.396 239.679 375.401 240.342C374.405 241.005 373.23 241.347 372.035 241.322L327.942 241.116C327.508 241.121 327.076 241.04 326.674 240.876C326.271 240.713 325.906 240.47 325.599 240.163C325.291 239.855 325.049 239.49 324.885 239.087C324.722 238.685 324.64 238.254 324.646 237.819C324.68 237.024 324.984 236.263 325.508 235.664C326.033 235.065 326.746 234.662 327.53 234.523L371.211 228.136L365.442 232.668L375.95 192.079C376.562 189.686 378.096 187.631 380.217 186.366C382.338 185.1 384.875 184.726 387.271 185.325C389.668 185.924 391.73 187.448 393.006 189.563C394.282 191.678 394.669 194.212 394.082 196.612C393.676 197.229 393.676 197.641 393.469 197.847Z" fill="#E3BC9A"/>
<path d="M332.687 233.904L317.647 233.492C313.938 233.492 310.848 236.991 310.848 241.115H332.893L332.687 233.904Z" fill="#E3BC9A"/>
<path d="M368.951 202.789L393.057 208.765L396.972 186.925C397.238 185.528 397.218 184.092 396.912 182.703C396.606 181.315 396.022 180.003 395.193 178.847C394.365 177.691 393.311 176.715 392.094 175.979C390.878 175.243 389.524 174.762 388.116 174.565C385.701 174.169 383.224 174.633 381.116 175.875C379.008 177.117 377.402 179.06 376.578 181.364L368.951 202.789Z" fill="#4860FF" fill-opacity="0.61"/>
<path d="M339.487 407.388L333.92 412.955L321.355 416.045C320.733 416.243 320.157 416.564 319.662 416.989C319.166 417.413 318.761 417.933 318.471 418.518L317.853 420.372C317.781 420.576 317.757 420.794 317.784 421.009C317.811 421.223 317.888 421.429 318.008 421.609C318.127 421.788 318.288 421.938 318.475 422.045C318.663 422.153 318.873 422.215 319.089 422.227L359.885 421.193C360.505 421.141 361.082 420.857 361.502 420.399C361.922 419.941 362.154 419.342 362.152 418.72L358.854 407.182L352.673 408.625C351.653 408.936 350.581 409.042 349.52 408.936C348.459 408.83 347.429 408.514 346.491 408.007L344.225 406.77C343.469 406.366 342.606 406.208 341.756 406.319C340.907 406.429 340.113 406.803 339.487 407.388Z" fill="#29323D"/>
<path d="M280.972 399.353L275.405 404.92L262.84 408.01C262.218 408.208 261.642 408.529 261.147 408.954C260.651 409.378 260.246 409.898 259.956 410.483L259.338 412.337C259.266 412.541 259.242 412.759 259.269 412.974C259.296 413.188 259.372 413.393 259.492 413.573C259.612 413.753 259.773 413.903 259.96 414.01C260.148 414.117 260.358 414.18 260.574 414.192L297.455 413.368C298.075 413.316 298.652 413.032 299.072 412.574C299.491 412.116 299.724 411.517 299.722 410.895L298.688 399.151L294.155 400.594C293.135 400.905 292.064 401.011 291.002 400.904C289.941 400.798 288.912 400.483 287.974 399.976L285.707 398.739C284.952 398.335 284.09 398.176 283.241 398.286C282.392 398.397 281.598 398.77 280.972 399.353Z" fill="#29323D"/>
<path d="M195.878 229.782C195.878 229.782 212.976 229.782 209.477 212.269C209.477 212.269 191.551 214.123 195.878 229.782Z" fill="#1DB88D"/>
<path d="M193.816 228.959C193.816 228.959 176.509 228.959 180.217 211.239C180.013 211.239 198.144 212.887 193.816 228.959Z" fill="#1DB88D"/>
<path d="M194.641 228.958C194.641 228.958 182.076 216.184 196.908 205.057C196.702 205.057 208.652 219.892 194.641 228.958Z" fill="#2D8A70"/>
<path d="M208.446 227.516H180.836L185.163 246.682H203.707L208.446 227.516Z" fill="#F6CA07"/>
<path d="M263.253 250.181V385.342" stroke="#3D415B" stroke-width="2" stroke-miterlimit="10"/>
<path d="M559.166 246.208H475.665C469.516 246.208 464.532 251.193 464.532 257.342V267.68C464.532 273.829 469.516 278.813 475.665 278.813H559.166C565.315 278.813 570.3 273.829 570.3 267.68V257.342C570.3 251.193 565.315 246.208 559.166 246.208Z" fill="#62BD23"/>
<path d="M464.532 262.909H570.3V332.89C570.3 335.843 569.127 338.675 567.039 340.763C564.951 342.851 562.119 344.024 559.166 344.024H475.665C472.712 344.024 469.881 342.851 467.793 340.763C465.705 338.675 464.532 335.843 464.532 332.89V262.909Z" fill="#9C9CA1"/>
<path d="M472.894 257.589C473.918 257.589 474.748 256.759 474.748 255.735C474.748 254.71 473.918 253.88 472.894 253.88C471.869 253.88 471.039 254.71 471.039 255.735C471.039 256.759 471.869 257.589 472.894 257.589Z" fill="white"/>
<path d="M482.577 255.734C482.577 256.101 482.468 256.459 482.265 256.764C482.061 257.069 481.771 257.307 481.432 257.447C481.094 257.588 480.721 257.624 480.361 257.553C480.001 257.481 479.671 257.305 479.411 257.045C479.152 256.786 478.975 256.455 478.904 256.096C478.832 255.736 478.869 255.363 479.009 255.024C479.15 254.685 479.387 254.396 479.692 254.192C479.997 253.988 480.356 253.879 480.723 253.879C481.753 253.673 482.577 254.496 482.577 255.734Z" fill="white"/>
<path d="M490.201 255.735C490.201 256.101 490.093 256.46 489.889 256.765C489.685 257.07 489.395 257.308 489.056 257.448C488.718 257.588 488.345 257.625 487.985 257.554C487.625 257.482 487.295 257.305 487.035 257.046C486.776 256.787 486.599 256.456 486.528 256.096C486.456 255.737 486.493 255.364 486.633 255.025C486.774 254.686 487.011 254.396 487.316 254.193C487.621 253.989 487.98 253.88 488.347 253.88C488.595 253.861 488.844 253.897 489.078 253.983C489.311 254.07 489.523 254.206 489.7 254.382C489.876 254.558 490.012 254.77 490.098 255.003C490.185 255.237 490.22 255.486 490.201 255.735Z" fill="white"/>
<path d="M506.781 301.233H481.293C481.102 301.236 480.913 301.2 480.737 301.128C480.56 301.057 480.4 300.95 480.265 300.816C480.13 300.681 480.024 300.52 479.952 300.344C479.88 300.167 479.845 299.978 479.847 299.787V278.999C479.845 278.808 479.88 278.619 479.952 278.442C480.024 278.266 480.13 278.105 480.265 277.97C480.4 277.836 480.56 277.729 480.737 277.658C480.913 277.586 481.102 277.55 481.293 277.553H506.781C506.971 277.55 507.161 277.586 507.337 277.658C507.514 277.729 507.674 277.836 507.809 277.97C507.944 278.105 508.05 278.266 508.122 278.442C508.194 278.619 508.229 278.808 508.226 278.999V299.606C508.237 300.01 508.094 300.403 507.826 300.705C507.557 301.008 507.184 301.196 506.781 301.233Z" fill="white"/>
<path d="M554.536 312.765H479.309C478.585 312.765 477.859 311.941 477.859 310.704C477.859 309.671 478.439 308.644 479.309 308.644H554.539C555.264 308.644 555.989 309.468 555.989 310.704C555.985 311.94 555.261 312.765 554.536 312.765Z" fill="white"/>
<path d="M554.536 326.284H479.309C478.585 326.284 477.859 325.46 477.859 324.224C477.859 323.19 478.439 322.163 479.309 322.163H554.539C555.264 322.163 555.989 322.987 555.989 324.224C555.985 325.459 555.261 326.284 554.536 326.284Z" fill="white"/>
<path d="M551.793 286.049H516.542C516.063 286.048 515.604 285.857 515.265 285.518C514.927 285.179 514.736 284.72 514.735 284.241C514.736 283.762 514.927 283.303 515.265 282.964C515.604 282.625 516.063 282.434 516.542 282.433H551.793C552.272 282.434 552.732 282.625 553.07 282.964C553.409 283.303 553.6 283.762 553.601 284.241C553.6 284.72 553.409 285.179 553.07 285.518C552.732 285.857 552.272 286.048 551.793 286.049Z" fill="white"/>
<path d="M542.373 297.212H516.087C515.412 297.212 514.735 296.489 514.735 295.404C514.735 294.5 515.274 293.596 516.087 293.596H542.373C543.047 293.596 543.725 294.319 543.725 295.404C543.722 296.308 543.182 297.212 542.373 297.212Z" fill="white"/>
<path d="M255.464 66.71C257.408 66.71 258.983 65.1342 258.983 63.1903C258.983 61.2464 257.408 59.6705 255.464 59.6705C253.52 59.6705 251.944 61.2464 251.944 63.1903C251.944 65.1342 253.52 66.71 255.464 66.71Z" fill="white"/>
<path d="M273.064 63.1903C273.064 63.8864 272.858 64.5669 272.471 65.1458C272.084 65.7246 271.534 66.1757 270.891 66.4421C270.248 66.7085 269.54 66.7782 268.858 66.6424C268.175 66.5066 267.548 66.1714 267.055 65.6791C266.563 65.1869 266.228 64.5597 266.092 63.877C265.956 63.1942 266.026 62.4865 266.292 61.8433C266.559 61.2002 267.01 60.6505 267.589 60.2637C268.168 59.877 268.848 59.6705 269.544 59.6705C270.471 59.6931 271.353 60.0712 272.008 60.7265C272.663 61.3817 273.041 62.2639 273.064 63.1903Z" fill="white"/>
<path d="M283.859 66.71C285.803 66.71 287.378 65.1342 287.378 63.1903C287.378 61.2464 285.803 59.6705 283.859 59.6705C281.915 59.6705 280.339 61.2464 280.339 63.1903C280.339 65.1342 281.915 66.71 283.859 66.71Z" fill="white"/>
<path d="M517.813 54.5531H447.036C443.523 54.5531 440.674 57.4015 440.674 60.9151V80.7962C440.674 84.3099 443.523 87.1582 447.036 87.1582H517.813C521.327 87.1582 524.175 84.3099 524.175 80.7962V60.9151C524.175 57.4015 521.327 54.5531 517.813 54.5531Z" fill="#F08F33"/>
<path d="M440.674 66.4818H524.175V107.039C524.175 108.516 523.589 109.932 522.545 110.976C521.501 112.02 520.085 112.606 518.609 112.606H446.241C444.765 112.606 443.349 112.02 442.305 110.976C441.261 109.932 440.674 108.516 440.674 107.039V66.4818Z" fill="#9C9CA1"/>
<path d="M448.932 62.5851C449.864 62.5851 450.62 61.8292 450.62 60.8968C450.62 59.9644 449.864 59.2085 448.932 59.2085C448 59.2085 447.244 59.9644 447.244 60.8968C447.244 61.8292 448 62.5851 448.932 62.5851Z" fill="white"/>
<path d="M457.75 60.8968C457.75 61.2307 457.65 61.5571 457.465 61.8348C457.279 62.1124 457.016 62.3288 456.707 62.4566C456.399 62.5844 456.059 62.6178 455.732 62.5527C455.404 62.4875 455.104 62.3267 454.868 62.0906C454.631 61.8545 454.471 61.5537 454.405 61.2262C454.34 60.8987 454.374 60.5592 454.502 60.2507C454.629 59.9422 454.846 59.6785 455.123 59.493C455.401 59.3075 455.727 59.2085 456.061 59.2085C456.997 59.0208 457.75 59.7715 457.75 60.8968Z" fill="white"/>
<path d="M464.692 60.8968C464.692 61.2307 464.593 61.5571 464.407 61.8348C464.222 62.1124 463.958 62.3288 463.649 62.4566C463.341 62.5844 463.001 62.6178 462.674 62.5526C462.346 62.4875 462.046 62.3267 461.809 62.0906C461.573 61.8545 461.413 61.5537 461.347 61.2262C461.282 60.8987 461.316 60.5592 461.443 60.2507C461.571 59.9422 461.788 59.6785 462.065 59.493C462.343 59.3075 462.669 59.2085 463.003 59.2085C463.229 59.1915 463.456 59.2235 463.669 59.3023C463.881 59.3811 464.074 59.5049 464.235 59.6652C464.395 59.8255 464.519 60.0186 464.598 60.2311C464.677 60.4437 464.709 60.6707 464.692 60.8968Z" fill="white"/>
<path d="M466.029 75.4657H451.176C450.736 75.4657 450.38 75.8217 450.38 76.2609V99.8472C450.38 100.286 450.736 100.642 451.176 100.642H466.029C466.468 100.642 466.824 100.286 466.824 99.8472V76.2609C466.824 75.8217 466.468 75.4657 466.029 75.4657Z" fill="#F4F6FA"/>
<path d="M513.612 76.1806H472.92C472.13 76.1806 471.49 76.8208 471.49 77.6105C471.49 78.4002 472.13 79.0403 472.92 79.0403H513.612C514.402 79.0403 515.042 78.4002 515.042 77.6105C515.042 76.8208 514.402 76.1806 513.612 76.1806Z" fill="#F4F6FA"/>
<path d="M509.384 82.9728H472.92C472.13 82.9728 471.49 83.613 471.49 84.4027C471.49 85.1924 472.13 85.8325 472.92 85.8325H509.384C510.174 85.8325 510.814 85.1924 510.814 84.4027C510.814 83.613 510.174 82.9728 509.384 82.9728Z" fill="#F4F6FA"/>
<path d="M510.395 89.765H472.92C472.13 89.765 471.49 90.4052 471.49 91.1949C471.49 91.9846 472.13 92.6247 472.92 92.6247H510.395C511.184 92.6247 511.824 91.9846 511.824 91.1949C511.824 90.4052 511.184 89.765 510.395 89.765Z" fill="#F4F6FA"/>
<path d="M500.804 96.5573H472.92C472.13 96.5573 471.49 97.1974 471.49 97.9871C471.49 98.7768 472.13 99.4169 472.92 99.4169H500.804C501.594 99.4169 502.234 98.7768 502.234 97.9871C502.234 97.1974 501.594 96.5573 500.804 96.5573Z" fill="#F4F6FA"/>
<path d="M344.063 148.64C345.088 148.64 345.918 147.809 345.918 146.785C345.918 145.761 345.088 144.931 344.063 144.931C343.039 144.931 342.209 145.761 342.209 146.785C342.209 147.809 343.039 148.64 344.063 148.64Z" fill="#434343"/>
<path d="M361.371 146.786C361.371 147.153 361.262 147.511 361.059 147.816C360.855 148.121 360.565 148.359 360.226 148.499C359.887 148.64 359.515 148.676 359.155 148.605C358.795 148.533 358.465 148.357 358.205 148.097C357.946 147.838 357.769 147.507 357.698 147.148C357.626 146.788 357.663 146.415 357.803 146.076C357.944 145.737 358.181 145.448 358.486 145.244C358.791 145.04 359.15 144.931 359.517 144.931C359.765 144.913 360.014 144.948 360.248 145.034C360.481 145.121 360.693 145.257 360.869 145.433C361.045 145.609 361.181 145.821 361.268 146.055C361.355 146.288 361.39 146.538 361.371 146.786Z" fill="#434343"/>
<path d="M293.331 228.233H308.825C308.948 228.242 309.064 228.294 309.151 228.381C309.238 228.468 309.29 228.584 309.299 228.707V240.535C309.304 241.344 309.148 242.146 308.841 242.895C308.534 243.643 308.081 244.323 307.509 244.895C306.937 245.467 306.256 245.92 305.508 246.227C304.759 246.534 303.957 246.689 303.148 246.683H299.008C298.199 246.689 297.396 246.533 296.648 246.226C295.899 245.919 295.219 245.466 294.647 244.894C294.074 244.322 293.621 243.642 293.314 242.893C293.007 242.144 292.852 241.342 292.858 240.533V228.707C292.866 228.584 292.918 228.468 293.005 228.381C293.092 228.294 293.208 228.242 293.331 228.233Z" fill="#FF9029"/>
<path d="M295.224 244.674C291.676 242.663 285.761 236.867 286.708 232.728C286.825 232.217 287.056 231.738 287.384 231.329C287.711 230.919 288.127 230.589 288.6 230.362C290.966 229.297 294.278 230.601 294.633 230.717L293.568 233.083C292.741 232.728 290.848 232.255 289.901 232.61C289.663 232.728 289.547 232.848 289.428 233.319C288.837 235.685 293.568 240.771 296.644 242.544L295.224 244.674Z" fill="#FF9029"/>
<path d="M300.483 226.327C300.483 226.327 302.641 223.146 301.619 221.442C300.597 219.738 300.37 217.238 301.619 215.534" stroke="#F6CA07"/>
<path d="M303.665 226.327C303.665 226.327 305.574 225.04 304.672 223.892C303.77 222.745 303.564 221.561 304.672 220.413" stroke="#F6CA07"/>
<path d="M297.303 226.327C297.303 226.327 299.212 225.537 298.31 224.389C297.408 223.242 296.92 222.655 298.027 221.506" stroke="#F6CA07"/>
</svg>
