<svg width="42" height="42" viewBox="0 0 42 42" fill="none" xmlns="http://www.w3.org/2000/svg">
<path d="M21 0C9.40313 0 0 9.64687 0 21.5344C0 31.05 6.01875 39.1125 14.3625 41.9625C14.4795 41.9879 14.599 42.0005 14.7188 42C15.4969 42 15.7969 41.4281 15.7969 40.9312C15.7969 40.4156 15.7781 39.0656 15.7687 37.2656C15.0741 37.4285 14.3635 37.5134 13.65 37.5187C9.60938 37.5187 8.69062 34.3781 8.69062 34.3781C7.73437 31.8937 6.35625 31.2281 6.35625 31.2281C4.52813 29.9437 6.34687 29.9062 6.4875 29.9062H6.49688C8.60625 30.0937 9.7125 32.1375 9.7125 32.1375C10.7625 33.975 12.1687 34.4906 13.425 34.4906C14.2557 34.474 15.0735 34.2823 15.825 33.9281C16.0125 32.5406 16.5562 31.5937 17.1562 31.05C12.4969 30.5062 7.59375 28.6594 7.59375 20.4094C7.59375 18.0562 8.40938 16.1344 9.75 14.6344C9.53438 14.0906 8.8125 11.8969 9.95625 8.93437C10.1097 8.89766 10.2674 8.88189 10.425 8.8875C11.1844 8.8875 12.9 9.17812 15.7313 11.1469C19.1714 10.1844 22.8098 10.1844 26.25 11.1469C29.0812 9.17812 30.7969 8.8875 31.5563 8.8875C31.7139 8.88189 31.8716 8.89766 32.025 8.93437C33.1688 11.8969 32.4469 14.0906 32.2312 14.6344C33.5719 16.1437 34.3875 18.0656 34.3875 20.4094C34.3875 28.6781 29.475 30.4969 24.7969 31.0312C25.5469 31.6969 26.2219 33.0094 26.2219 35.0156C26.2219 37.8937 26.1937 40.2187 26.1937 40.9219C26.1937 41.4281 26.4844 42 27.2625 42C27.3885 42.0005 27.5141 41.988 27.6375 41.9625C35.9906 39.1125 42 31.0406 42 21.5344C42 9.64687 32.5969 0 21 0Z" fill="white"/>
</svg>
