<svg width="25" height="25" viewBox="0 0 25 25" fill="none" xmlns="http://www.w3.org/2000/svg">
<path d="M17.3911 0C17.091 0 16.8477 0.218652 16.8477 0.488281V2.73438C16.8477 3.004 17.091 3.22266 17.3911 3.22266C17.6912 3.22266 17.9346 3.004 17.9346 2.73438V0.488281C17.9346 0.218652 17.6912 0 17.3911 0Z" fill="#62BD23"/>
<path d="M25 14.2578C25 13.1809 24.0248 12.3047 22.8261 12.3047H18.7689C19.397 10.8592 19.6512 9.15786 19.6022 7.64336C19.5929 7.35435 19.5805 7.18721 19.5639 7.08198C19.5358 6.02695 18.5715 5.17578 17.3913 5.17578C16.1926 5.17578 15.2174 6.05195 15.2174 7.12891V7.61719C15.2174 10.7054 10.8036 12.4405 7.47261 13.1845C7.22076 12.6672 6.64587 12.3047 5.97826 12.3047H0.543478C0.24337 12.3047 0 12.5233 0 12.793V24.5117C0 24.7813 0.24337 25 0.543478 25H5.97826C6.64141 25 7.21299 24.6422 7.46745 24.1304C7.74326 24.194 7.99929 24.2541 8.23565 24.3095C10.1332 24.7548 11.1785 25 13.7207 25H19.5652C20.7639 25 21.7391 24.1238 21.7391 23.0469C21.7391 22.6453 21.6034 22.2718 21.3712 21.961C22.2108 21.6972 22.8261 20.9765 22.8261 20.1172C22.8261 19.7171 22.6937 19.3423 22.4622 19.0302C23.298 18.7659 23.913 18.0469 23.913 17.1875C23.913 16.7859 23.7773 16.4124 23.5451 16.1017C24.3847 15.8378 25 15.1171 25 14.2578ZM6.52174 23.5352C6.52174 23.8044 6.27793 24.0234 5.97826 24.0234H1.08696V13.2812H5.97826C6.27793 13.2812 6.52174 13.5003 6.52174 13.7695V23.5352ZM22.8261 15.2344C21.6604 15.2344 21.3825 15.2344 20.1087 15.2344C19.8086 15.2344 19.5652 15.453 19.5652 15.7227C19.5652 15.9923 19.8086 16.2109 20.1087 16.2109H21.7391C22.3385 16.2109 22.8261 16.649 22.8261 17.1875C22.8261 17.7269 22.3395 18.1641 21.7391 18.1641H19.0217C18.7216 18.1641 18.4783 18.3827 18.4783 18.6523C18.4783 18.922 18.7216 19.1406 19.0217 19.1406H20.6522C21.2444 19.1406 21.7391 19.5657 21.7391 20.1172C21.7391 20.6565 21.2525 21.0938 20.6522 21.0938C19.4865 21.0938 19.2086 21.0938 17.9348 21.0938C17.6347 21.0938 17.3913 21.3124 17.3913 21.582C17.3913 21.8517 17.6347 22.0703 17.9348 22.0703H19.5652C20.1646 22.0703 20.6522 22.5084 20.6522 23.0469C20.6522 23.5854 20.1646 24.0234 19.5652 24.0234H13.7207C11.3181 24.0234 10.3797 23.8033 8.51033 23.3646C8.23647 23.3004 7.93609 23.2299 7.6087 23.1549V14.1614C11.5417 13.3197 16.3043 11.2652 16.3043 7.61719V7.12891C16.3043 6.59043 16.792 6.15234 17.3913 6.15234C17.9896 6.15234 18.4771 6.58975 18.4783 7.12739V7.12891C18.4783 7.34111 18.773 9.94546 17.591 12.3047H15.7609C15.4608 12.3047 15.2174 12.5233 15.2174 12.793C15.2174 13.0626 15.4608 13.2812 15.7609 13.2812C16.1404 13.2812 22.2066 13.2812 22.8261 13.2812C23.4254 13.2812 23.913 13.7193 23.913 14.2578C23.913 14.7972 23.4264 15.2344 22.8261 15.2344Z" fill="#62BD23"/>
<path d="M13.0436 6.15234H10.8697C10.5695 6.15234 10.3262 6.371 10.3262 6.64062C10.3262 6.91025 10.5695 7.12891 10.8697 7.12891H13.0436C13.3437 7.12891 13.587 6.91025 13.587 6.64062C13.587 6.371 13.3437 6.15234 13.0436 6.15234Z" fill="#62BD23"/>
<path d="M23.9132 6.15234H21.7393C21.4392 6.15234 21.1958 6.371 21.1958 6.64062C21.1958 6.91025 21.4392 7.12891 21.7393 7.12891H23.9132C24.2133 7.12891 24.4567 6.91025 24.4567 6.64062C24.4567 6.371 24.2133 6.15234 23.9132 6.15234Z" fill="#62BD23"/>
<path d="M22.3871 2.15231C22.1748 1.96168 21.8308 1.96168 21.6184 2.15231L20.0815 3.53312C19.8693 3.72379 19.8693 4.03297 20.0815 4.22369C20.2939 4.41437 20.6378 4.41432 20.8502 4.22369L22.3871 2.84288C22.5993 2.65221 22.5993 2.34303 22.3871 2.15231Z" fill="#62BD23"/>
<path d="M14.701 3.53312L13.1641 2.15231C12.9519 1.96168 12.6078 1.96168 12.3955 2.15231C12.1833 2.34298 12.1833 2.65216 12.3955 2.84288L13.9324 4.22369C14.1448 4.41437 14.4888 4.41432 14.701 4.22369C14.9133 4.03302 14.9133 3.72384 14.701 3.53312Z" fill="#62BD23"/>
</svg>
