<svg width="42" height="42" viewBox="0 0 42 42" fill="none" xmlns="http://www.w3.org/2000/svg">
<path d="M38.6409 0H3.58874C1.67343 0 0 1.37812 0 3.27094V38.4009C0 40.3041 1.67343 42 3.58874 42H38.6306C40.5562 42 41.9999 40.2928 41.9999 38.4009V3.27094C42.0112 1.37812 40.5562 0 38.6409 0ZM13.019 35.0091H7.00218V16.3013H13.019V35.0091ZM10.2187 13.4569H10.1756C8.24999 13.4569 7.00311 12.0234 7.00311 10.2291C7.00311 8.40188 8.2828 7.00219 10.2515 7.00219C12.2203 7.00219 13.425 8.39156 13.4681 10.2291C13.4672 12.0234 12.2203 13.4569 10.2187 13.4569ZM35.009 35.0091H28.9921V24.78C28.9921 22.3294 28.1165 20.655 25.9396 20.655C24.2765 20.655 23.2922 21.78 22.8543 22.8759C22.6903 23.2697 22.6462 23.8059 22.6462 24.3534V35.0091H16.6293V16.3013H22.6462V18.9047C23.5218 17.6578 24.8896 15.8634 28.0725 15.8634C32.0221 15.8634 35.0099 18.4669 35.0099 24.0797L35.009 35.0091Z" fill="#2977B5"/>
</svg>
