<svg width="215" height="59" viewBox="0 0 215 59" fill="none" xmlns="http://www.w3.org/2000/svg">
<path d="M10.56 48V21.696L0.96 22.176V14.016H29.04V22.176L19.2 21.696V40.32L19.728 45.12L19.2 48H10.56ZM36.5629 48L29.9869 31.584L29.0269 25.344H38.1469L41.2669 40.32H42.2269L45.8749 25.344H55.4269L59.0269 40.32H59.9869L63.1549 25.344H72.2269L71.2669 31.584L64.6429 48H54.5629L51.1069 32.544H50.1469L46.6429 48H36.5629ZM79.9031 23.952L73.8071 17.808L79.9031 11.712L85.9991 17.808L79.9031 23.952ZM75.5831 48V32.112L74.5751 28.272L75.5351 25.344H84.2231V48H75.5831ZM97.9028 48.48C95.7268 48.48 93.9828 47.84 92.6708 46.56C91.3588 45.28 90.7028 43.664 90.7028 41.712V31.248H87.1988V26.688L90.2228 24.336L93.6308 18.384H99.2948V25.344H106.015V31.584H99.2948V41.856L106.015 41.808V47.04C106.015 47.04 105.631 47.168 104.863 47.424C104.127 47.648 103.151 47.872 101.935 48.096C100.719 48.352 99.3748 48.48 97.9028 48.48ZM118.622 48.48C116.446 48.48 114.702 47.84 113.39 46.56C112.078 45.28 111.422 43.664 111.422 41.712V31.248H107.918V26.688L110.942 24.336L114.35 18.384H120.014V25.344H126.734V31.584H120.014V41.856L126.734 41.808V47.04C126.734 47.04 126.35 47.168 125.582 47.424C124.846 47.648 123.87 47.872 122.654 48.096C121.438 48.352 120.094 48.48 118.622 48.48ZM142.076 48.48C139.612 48.48 137.42 48.112 135.5 47.376C133.58 46.64 132.076 45.408 130.988 43.68C129.9 41.952 129.356 39.616 129.356 36.672C129.356 34.56 129.708 32.752 130.412 31.248C131.148 29.744 132.124 28.528 133.34 27.6C134.556 26.64 135.916 25.952 137.42 25.536C138.924 25.088 140.476 24.864 142.076 24.864C144.828 24.864 146.94 25.136 148.412 25.68C149.916 26.224 150.908 26.656 151.388 26.976L153.788 34.608L152.828 37.584H137.948C138.172 38.768 138.764 39.76 139.724 40.56C140.684 41.36 142.268 41.76 144.476 41.76C146.204 41.76 147.692 41.568 148.94 41.184C150.188 40.8 151.164 40.464 151.868 40.176V46.608C150.908 47.12 149.516 47.568 147.692 47.952C145.9 48.304 144.028 48.48 142.076 48.48ZM137.996 34.512L144.62 33.552L144.188 31.488C143.964 31.36 143.628 31.264 143.18 31.2C142.764 31.136 142.396 31.104 142.076 31.104C141.18 31.104 140.428 31.296 139.82 31.68C139.244 32.064 138.796 32.528 138.476 33.072C138.188 33.584 138.028 34.064 137.996 34.512ZM167.882 48.48C165.674 48.48 163.674 48.112 161.882 47.376C160.122 46.64 158.714 45.408 157.658 43.68C156.634 41.952 156.122 39.616 156.122 36.672C156.122 33.696 156.682 31.36 157.802 29.664C158.922 27.936 160.378 26.704 162.17 25.968C163.962 25.232 165.866 24.864 167.882 24.864C169.642 24.864 171.146 24.928 172.394 25.056C173.674 25.184 174.522 25.296 174.938 25.392L178.682 29.616L174.842 34.848L169.322 31.584C166.57 31.584 165.194 33.28 165.194 36.672C165.194 38.432 165.61 39.728 166.442 40.56C167.274 41.36 168.554 41.76 170.282 41.76C172.01 41.76 173.562 41.52 174.938 41.04C176.314 40.56 177.386 40.112 178.154 39.696V46.608C177.162 47.12 175.85 47.568 174.218 47.952C172.618 48.304 170.506 48.48 167.882 48.48ZM183.489 48V21.696L182.529 16.896L183.489 14.016H192.129V21.792L191.649 27.12L192.129 27.36C192.513 26.784 193.217 26.224 194.241 25.68C195.297 25.104 196.673 24.816 198.369 24.816C201.249 24.816 203.409 25.632 204.849 27.264C206.289 28.896 207.009 31.184 207.009 34.128V40.368L208.017 45.072L207.009 48H198.369V35.376C198.369 34.16 198.097 33.232 197.553 32.592C197.041 31.92 196.225 31.584 195.105 31.584L192.129 32.976V48H183.489Z" fill="#E3E829"/>
</svg>
