<svg width="400" height="297" viewBox="0 0 400 297" fill="none" xmlns="http://www.w3.org/2000/svg">
<path opacity="0.1" d="M176.446 11.1835C160.626 4.75188 143.911 -0.617349 126.849 0.0573934C101.761 1.04438 77.7 16.1364 65.8883 38.2916C55.8784 57.0623 54.6437 79.0632 50.3332 99.8941C45.0142 125.563 34.8427 149.947 23.975 173.8C18.1392 186.613 11.9803 199.702 11.0256 213.75C9.69403 233.245 19.0149 252.677 33.6368 265.647C48.2587 278.618 67.6685 285.463 87.1536 286.956C97.5225 287.749 108.358 287.013 117.571 282.186C127.312 277.082 134.418 267.855 144.199 262.823C153.265 258.157 163.87 257.5 174.049 258.11C187.38 258.911 200.516 261.703 213.019 266.394C227.246 271.738 240.476 279.472 254.671 284.892C268.865 290.311 284.726 293.33 299.236 288.811C312.853 284.565 323.642 274.254 333.333 263.81C349.278 246.663 363.821 228.264 376.821 208.79C385.582 195.668 393.737 181.821 397.613 166.525C405.017 137.281 394.824 104.287 372.217 84.3356C353.496 67.7793 328.358 60.6011 303.751 56.2297C281.312 52.2566 255.367 52.0089 234.712 41.6509C215.015 31.7739 197.091 19.5818 176.446 11.1835Z" fill="#C0BCCF"/>
<path d="M335.863 207.537L336.499 208.174L336.785 207.077L336.48 205.995H335.695L335.863 207.537Z" fill="#464A5F"/>
<path opacity="0.1" d="M335.863 207.537L336.499 208.174L336.785 207.077L336.48 205.995H335.695L335.863 207.537Z" fill="black"/>
<path d="M335.853 207.084L336.785 208.123L335.853 209.264L334.852 208.874L334.605 208.369L335.853 207.084Z" fill="#9C9CA1"/>
<path opacity="0.1" d="M335.853 207.084L336.785 208.123L335.853 209.264L334.852 208.874L334.605 208.369L335.853 207.084Z" fill="black"/>
<path d="M225.82 98.0927L159.894 163.671C157.427 166.126 157.418 170.103 159.876 172.568L260.928 273.887C263.388 276.352 267.389 276.373 269.875 273.934L336.785 208.33L225.82 98.0927Z" fill="#9C9CA1"/>
<path opacity="0.1" d="M225.82 98.0927L159.894 163.671C157.427 166.126 157.418 170.103 159.876 172.568L260.928 273.887C263.388 276.352 267.389 276.373 269.875 273.934L336.785 208.33L225.82 98.0927Z" fill="black"/>
<path d="M225.82 95.9128L159.894 161.492C157.427 163.947 157.418 167.924 159.876 170.389L260.928 271.705C263.387 274.171 267.388 274.194 269.875 271.755L336.785 206.133L225.82 95.9128Z" fill="#DDDCDC"/>
<path d="M231.622 51.2944L225.613 96.9259L335.84 207.084L342.171 160.7C342.462 158.596 341.739 156.479 340.223 154.992L233.871 50.5132C233.51 50.162 232.981 50.0447 232.506 50.21C232.03 50.3752 231.688 50.7948 231.622 51.2944Z" fill="#464A5F"/>
<path opacity="0.1" d="M231.622 51.2944L225.613 96.9259L335.84 207.084L342.171 160.7C342.462 158.596 341.739 156.479 340.223 154.992L233.871 50.5132C233.51 50.162 232.981 50.0447 232.506 50.21C232.03 50.3752 231.688 50.7948 231.622 51.2944Z" fill="black"/>
<path d="M230.532 51.2944L224.523 96.9259L334.75 207.084L341.081 160.7C341.372 158.596 340.649 156.479 339.133 154.992L232.78 50.5132C232.419 50.162 231.891 50.0447 231.415 50.21C230.94 50.3752 230.598 50.7948 230.532 51.2944Z" fill="#464A5F"/>
<g opacity="0.1">
<path opacity="0.1" d="M224.923 117.35L220.928 121.381C220.69 121.618 220.556 121.941 220.556 122.278C220.556 122.615 220.69 122.937 220.928 123.175L224.977 127.328C225.463 127.832 226.265 127.849 226.771 127.364L230.748 123.609C231.251 123.134 231.28 122.343 230.813 121.833L226.764 117.404C226.532 117.143 226.203 116.99 225.855 116.98C225.507 116.97 225.169 117.104 224.923 117.35ZM232.367 124.797L228.386 128.824C227.902 129.317 227.902 130.108 228.386 130.601L232.435 134.754C232.668 134.997 232.988 135.138 233.325 135.144C233.662 135.151 233.987 135.023 234.23 134.79L238.206 131.039C238.717 130.56 238.746 129.759 238.271 129.244L234.208 124.826C233.973 124.569 233.642 124.421 233.294 124.415C232.945 124.41 232.61 124.548 232.367 124.797ZM240.184 132.611L236.204 136.642C235.721 137.135 235.721 137.924 236.204 138.418L240.256 142.571C240.742 143.076 241.545 143.092 242.05 142.607L246.027 138.853C246.53 138.377 246.559 137.586 246.092 137.076L242.043 132.647C241.808 132.383 241.474 132.23 241.121 132.223C240.768 132.216 240.429 132.357 240.184 132.611ZM248.087 140.518L244.11 144.566C243.628 145.06 243.628 145.849 244.11 146.343L248.163 150.496C248.649 151 249.451 151.017 249.957 150.532L253.93 146.777C254.437 146.304 254.467 145.511 253.999 145.001L249.929 140.554C249.694 140.297 249.364 140.148 249.016 140.141C248.668 140.134 248.332 140.27 248.087 140.518ZM255.994 148.425L252.017 152.463C251.523 152.959 251.523 153.761 252.017 154.257L256.07 158.41C256.556 158.915 257.358 158.931 257.864 158.446L261.837 154.691C262.343 154.218 262.374 153.426 261.906 152.915L257.857 148.486C257.625 148.219 257.292 148.06 256.939 148.049C256.585 148.037 256.243 148.173 255.994 148.425ZM264.4 155.826L259.458 160.833C259.232 161.064 259.232 161.434 259.458 161.665L264.436 166.765C264.667 166.992 265.037 166.992 265.269 166.765L270.211 162.099C270.447 161.877 270.46 161.505 270.24 161.267L265.265 155.826C265.152 155.707 264.996 155.64 264.832 155.64C264.669 155.64 264.512 155.707 264.4 155.826ZM272.307 163.733L267.365 168.757C267.139 168.988 267.139 169.356 267.365 169.586L272.343 174.69C272.574 174.916 272.944 174.916 273.175 174.69L278.118 170.024C278.354 169.802 278.367 169.43 278.146 169.192L273.172 163.751C273.062 163.629 272.907 163.559 272.743 163.555C272.58 163.552 272.422 163.616 272.307 163.733ZM279.306 170.731L274.363 175.756C274.138 175.987 274.138 176.355 274.363 176.585L279.342 181.689C279.573 181.915 279.943 181.915 280.174 181.689L285.117 177.023C285.353 176.8 285.366 176.429 285.145 176.191L280.167 170.767C280.06 170.645 279.907 170.572 279.744 170.565C279.581 170.558 279.423 170.618 279.306 170.731ZM287.144 178.57L282.202 183.573C281.974 183.804 281.974 184.175 282.202 184.406L287.18 189.506C287.411 189.734 287.782 189.734 288.013 189.506L292.955 184.84C293.19 184.617 293.202 184.247 292.984 184.008L288.009 178.567C287.896 178.448 287.74 178.382 287.576 178.382C287.413 178.383 287.256 178.451 287.144 178.57ZM294.736 186.161L289.793 191.164C289.565 191.395 289.565 191.766 289.793 191.997L294.771 197.101C295.003 197.327 295.373 197.327 295.604 197.101L300.546 192.435C300.781 192.211 300.793 191.842 300.575 191.602L295.583 186.179C295.473 186.064 295.322 185.997 295.163 185.993C295.004 185.99 294.85 186.05 294.736 186.161ZM302.327 193.738L297.377 198.763C297.151 198.993 297.151 199.362 297.377 199.592L302.355 204.696C302.587 204.922 302.956 204.922 303.188 204.696L308.13 200.03C308.366 199.807 308.379 199.436 308.159 199.197L303.184 193.756C303.075 193.637 302.921 193.568 302.759 193.565C302.598 193.561 302.441 193.624 302.327 193.738ZM309.918 201.343L304.975 206.35C304.749 206.582 304.749 206.951 304.975 207.183L309.939 212.283C310.166 212.514 310.536 212.522 310.772 212.301L315.714 207.635C315.95 207.412 315.963 207.041 315.743 206.802L310.768 201.361C310.659 201.245 310.507 201.177 310.347 201.174C310.187 201.17 310.032 201.231 309.918 201.343ZM217.698 124.578L213.721 128.605C213.483 128.843 213.349 129.166 213.349 129.503C213.349 129.839 213.483 130.162 213.721 130.4L217.773 134.553C218.006 134.796 218.326 134.937 218.663 134.943C219 134.95 219.325 134.822 219.568 134.589L223.541 130.838C224.055 130.361 224.086 129.558 223.609 129.043L219.536 124.611C219.3 124.355 218.971 124.208 218.624 124.201C218.276 124.195 217.942 124.332 217.698 124.578ZM201.906 140.367L197.925 144.394C197.431 144.89 197.431 145.693 197.925 146.189L201.974 150.309C202.456 150.805 203.247 150.823 203.75 150.349L207.727 146.594C208.232 146.12 208.261 145.327 207.792 144.818L203.743 140.403C203.509 140.146 203.18 139.997 202.832 139.99C202.485 139.984 202.15 140.12 201.906 140.367ZM225.142 132.022L221.161 136.049C220.923 136.287 220.789 136.61 220.789 136.947C220.789 137.283 220.923 137.606 221.161 137.844L225.21 141.997C225.695 142.502 226.498 142.52 227.005 142.036L230.978 138.264C231.489 137.785 231.518 136.984 231.042 136.469L226.994 132.044C226.758 131.784 226.424 131.633 226.072 131.629C225.721 131.625 225.384 131.768 225.142 132.022ZM232.955 139.84L228.979 143.867C228.494 144.36 228.494 145.15 228.979 145.643L233.031 149.796C233.264 150.039 233.584 150.18 233.921 150.186C234.257 150.193 234.583 150.066 234.825 149.832L238.799 146.081C239.313 145.604 239.343 144.801 238.867 144.287L234.818 139.857C234.58 139.596 234.244 139.446 233.891 139.442C233.537 139.439 233.198 139.583 232.955 139.84ZM240.862 147.743L236.886 151.773C236.401 152.266 236.401 153.057 236.886 153.55L240.938 157.703C241.42 158.2 242.212 158.216 242.714 157.739L246.691 153.988C247.205 153.511 247.236 152.708 246.759 152.193L242.704 147.797C242.471 147.538 242.142 147.386 241.794 147.376C241.447 147.366 241.11 147.499 240.862 147.743ZM209.604 147.56L205.624 151.587C205.139 152.08 205.139 152.87 205.624 153.363L209.673 157.516C209.905 157.759 210.226 157.9 210.562 157.907C210.899 157.913 211.225 157.786 211.467 157.552L215.444 153.801C215.955 153.323 215.984 152.521 215.508 152.007L211.46 147.581C211.224 147.32 210.889 147.169 210.537 147.165C210.184 147.161 209.846 147.304 209.604 147.56ZM217.418 155.373L213.441 159.404C213.203 159.642 213.069 159.965 213.069 160.301C213.069 160.638 213.203 160.961 213.441 161.199L217.493 165.351C217.726 165.595 218.046 165.735 218.383 165.742C218.72 165.749 219.045 165.621 219.288 165.387L223.261 161.636C223.775 161.16 223.806 160.356 223.329 159.842L219.281 155.413C219.046 155.149 218.711 154.994 218.358 154.987C218.004 154.979 217.664 155.119 217.418 155.373ZM225.325 163.28L221.348 167.311C220.863 167.804 220.863 168.595 221.348 169.088L225.4 173.24C225.886 173.745 226.689 173.761 227.195 173.276L231.168 169.522C231.674 169.049 231.705 168.256 231.236 167.745L227.188 163.316C226.952 163.052 226.618 162.899 226.264 162.892C225.911 162.885 225.57 163.026 225.325 163.28ZM248.769 155.65L244.792 159.68C244.308 160.173 244.308 160.964 244.792 161.457L248.845 165.61C249.077 165.853 249.398 165.993 249.734 166C250.071 166.007 250.397 165.879 250.639 165.646L254.616 161.895C254.863 161.666 255.009 161.348 255.021 161.011C255.033 160.674 254.911 160.347 254.681 160.1L250.607 155.693C250.374 155.435 250.045 155.285 249.697 155.277C249.35 155.268 249.014 155.403 248.769 155.65ZM256.676 163.557L252.696 167.587C252.211 168.08 252.211 168.871 252.696 169.364L256.748 173.517C256.981 173.76 257.301 173.9 257.638 173.907C257.974 173.914 258.3 173.786 258.542 173.552L262.519 169.798C263.024 169.324 263.053 168.531 262.584 168.022L258.514 163.589C258.279 163.333 257.949 163.184 257.602 163.178C257.254 163.172 256.92 163.309 256.676 163.557ZM265.075 170.958L260.132 175.982C259.904 176.213 259.904 176.584 260.132 176.815L265.114 181.894C265.345 182.122 265.716 182.122 265.947 181.894L270.889 177.228C271.123 177.004 271.136 176.634 270.918 176.395L265.943 170.954C265.83 170.835 265.673 170.767 265.508 170.768C265.344 170.769 265.187 170.837 265.075 170.958ZM272.081 177.946L267.139 182.97C266.91 183.201 266.91 183.572 267.139 183.803L272.117 188.903C272.347 189.131 272.719 189.131 272.949 188.903L277.892 184.237C278.126 184.014 278.139 183.644 277.92 183.405L272.946 177.964C272.836 177.842 272.681 177.772 272.517 177.769C272.354 177.765 272.196 177.829 272.081 177.946ZM279.919 185.795L274.974 190.82C274.748 191.05 274.748 191.419 274.974 191.649L279.948 196.753C280.18 196.979 280.549 196.979 280.781 196.753L285.723 192.087C285.96 191.865 285.975 191.494 285.755 191.254L280.781 185.813C280.671 185.693 280.517 185.623 280.354 185.62C280.191 185.617 280.034 185.68 279.919 185.795ZM287.511 193.379L282.568 198.404C282.34 198.635 282.34 199.006 282.568 199.236L287.543 204.337C287.776 204.563 288.146 204.563 288.379 204.337L293.318 199.671C293.555 199.449 293.569 199.078 293.35 198.838L288.376 193.397C288.266 193.276 288.111 193.205 287.947 193.202C287.783 193.199 287.626 193.263 287.511 193.379ZM225.443 147.352L221.463 151.386C220.978 151.879 220.978 152.669 221.463 153.162L225.515 157.315C225.747 157.559 226.068 157.7 226.405 157.707C226.742 157.714 227.068 157.586 227.31 157.351L231.286 153.6C231.799 153.122 231.828 152.319 231.351 151.806L227.281 147.388C227.047 147.13 226.718 146.98 226.37 146.973C226.022 146.966 225.687 147.103 225.443 147.352ZM233.35 155.259L229.37 159.282C228.885 159.775 228.885 160.566 229.37 161.059L233.422 165.211C233.654 165.455 233.975 165.597 234.312 165.603C234.649 165.61 234.975 165.482 235.217 165.247L239.193 161.497C239.704 161.018 239.733 160.216 239.258 159.702L235.209 155.277C234.973 155.014 234.637 154.863 234.284 154.86C233.93 154.856 233.592 155.001 233.35 155.259ZM241.257 163.165L237.277 167.178C236.792 167.671 236.792 168.462 237.277 168.955L241.325 173.107C241.558 173.351 241.878 173.491 242.215 173.498C242.552 173.505 242.877 173.377 243.12 173.143L247.097 169.393C247.608 168.914 247.637 168.112 247.161 167.598L243.113 163.169C242.873 162.911 242.538 162.764 242.186 162.763C241.834 162.762 241.497 162.908 241.257 163.165ZM249.164 171.072L245.184 175.099C244.699 175.592 244.699 176.383 245.184 176.876L249.232 181.029C249.465 181.272 249.785 181.413 250.122 181.419C250.459 181.426 250.784 181.298 251.027 181.065L255.004 177.314C255.515 176.835 255.543 176.034 255.068 175.519L251.02 171.09C250.782 170.83 250.448 170.681 250.096 170.677C249.744 170.674 249.406 170.817 249.164 171.072ZM257.57 178.473L252.624 183.477C252.398 183.708 252.398 184.078 252.624 184.309L257.599 189.409C257.829 189.637 258.201 189.637 258.431 189.409L263.373 184.743C263.611 184.522 263.625 184.15 263.406 183.911L258.431 178.466C258.318 178.348 258.162 178.283 257.999 178.284C257.836 178.285 257.681 178.354 257.57 178.473ZM264.569 185.483L259.623 190.486C259.397 190.718 259.397 191.087 259.623 191.319L264.597 196.419C264.828 196.647 265.199 196.647 265.43 196.419L270.372 191.753C270.61 191.531 270.624 191.16 270.405 190.92L265.434 185.483C265.322 185.363 265.165 185.295 265.001 185.295C264.837 185.295 264.681 185.363 264.569 185.483ZM272.404 193.307L267.462 198.332C267.235 198.564 267.235 198.933 267.462 199.165L272.436 204.265C272.662 204.498 273.033 204.506 273.269 204.283L278.211 199.617C278.448 199.395 278.463 199.024 278.243 198.784L273.265 193.343C273.158 193.221 273.005 193.148 272.842 193.141C272.679 193.134 272.521 193.194 272.404 193.307ZM279.998 200.916L275.053 205.905C274.826 206.137 274.826 206.506 275.053 206.738L280.027 211.838C280.253 212.071 280.624 212.079 280.86 211.856L285.802 207.19C286.039 206.968 286.054 206.597 285.834 206.357L280.867 200.916C280.756 200.794 280.598 200.725 280.433 200.725C280.268 200.725 280.11 200.794 279.998 200.916ZM295.102 200.977L290.159 206.002C289.931 206.233 289.931 206.604 290.159 206.835L295.138 211.935C295.363 212.168 295.735 212.176 295.97 211.953L300.912 207.287C301.147 207.063 301.16 206.694 300.941 206.454L295.967 201.013C295.859 200.89 295.705 200.816 295.542 200.809C295.378 200.802 295.219 200.863 295.102 200.977ZM302.693 208.572L297.736 213.575C297.508 213.806 297.508 214.177 297.736 214.408L302.725 219.508C302.951 219.741 303.322 219.749 303.558 219.526L308.5 214.86C308.734 214.636 308.747 214.267 308.529 214.027L303.554 208.586C303.444 208.466 303.29 208.396 303.126 208.393C302.963 208.391 302.807 208.455 302.693 208.572ZM264.235 201.48L259.569 206.192C259.265 206.502 259.265 206.999 259.569 207.309L264.267 212.125C264.571 212.435 265.068 212.445 265.383 212.147L270.049 207.757C270.355 207.462 270.377 206.98 270.1 206.659L265.401 201.519C265.256 201.353 265.048 201.254 264.827 201.247C264.606 201.24 264.392 201.324 264.235 201.48ZM271.826 209.071L267.16 213.783C266.856 214.093 266.856 214.59 267.16 214.9L271.858 219.716C272.162 220.026 272.659 220.036 272.974 219.738L277.64 215.348C277.957 215.05 277.976 214.554 277.683 214.232L272.971 209.092C272.823 208.935 272.618 208.845 272.403 208.84C272.187 208.836 271.979 208.919 271.826 209.071ZM279.431 216.662L274.765 221.374C274.461 221.684 274.461 222.181 274.765 222.491L279.464 227.307C279.767 227.619 280.263 227.63 280.58 227.332L285.246 222.939C285.564 222.642 285.583 222.144 285.289 221.823L280.591 216.687C280.444 216.523 280.236 216.427 280.016 216.423C279.797 216.418 279.585 216.504 279.431 216.662ZM287.159 224.102L282.217 229.109C281.99 229.341 281.99 229.71 282.217 229.942L287.195 235.042C287.425 235.27 287.797 235.27 288.027 235.042L292.97 230.376C293.206 230.153 293.219 229.782 292.998 229.543L288.024 224.102C287.911 223.983 287.755 223.916 287.591 223.916C287.428 223.916 287.271 223.983 287.159 224.102ZM209.874 131.983L205.631 136.311C205.393 136.549 205.259 136.872 205.259 137.209C205.259 137.545 205.393 137.868 205.631 138.106L217.475 149.832C217.962 150.311 218.74 150.321 219.238 149.853L223.659 145.693C223.91 145.457 224.055 145.13 224.059 144.785C224.064 144.441 223.929 144.109 223.685 143.867L211.661 131.972C211.164 131.483 210.365 131.488 209.874 131.983ZM287.403 208.554L282.217 213.837C281.99 214.071 281.99 214.443 282.217 214.677L294.998 227.329C295.227 227.552 295.593 227.552 295.823 227.329L301.228 222.243C301.345 222.131 301.41 221.977 301.41 221.816C301.41 221.655 301.345 221.5 301.228 221.389L288.225 208.525C287.987 208.314 287.625 208.327 287.403 208.554ZM233.49 170.703L228.541 175.605C228.429 175.716 228.366 175.867 228.366 176.024C228.366 176.181 228.429 176.331 228.541 176.442L256.102 204.692C256.333 204.918 256.703 204.918 256.935 204.692L262.318 199.613C262.433 199.502 262.498 199.348 262.498 199.188C262.498 199.028 262.433 198.874 262.318 198.763L234.323 170.692C234.088 170.469 233.719 170.474 233.49 170.703Z" fill="black"/>
</g>
<path d="M225.743 117.003L221.628 121.103C221.129 121.604 221.129 122.407 221.628 122.908L225.799 127.125C226.299 127.638 227.126 127.654 227.647 127.162L231.744 123.349C232.262 122.866 232.292 122.063 231.81 121.544L227.64 117.046C227.399 116.784 227.06 116.63 226.701 116.622C226.342 116.613 225.996 116.751 225.743 117.003ZM232.265 124.637L228.167 128.729C227.668 129.23 227.668 130.033 228.167 130.534L232.336 134.753C232.575 135 232.905 135.143 233.252 135.15C233.598 135.156 233.934 135.027 234.183 134.789L238.277 130.979C238.804 130.492 238.833 129.678 238.344 129.155L234.161 124.67C233.919 124.409 233.579 124.257 233.22 124.251C232.862 124.245 232.516 124.385 232.265 124.637ZM239.894 132.283L235.795 136.374C235.298 136.875 235.298 137.676 235.795 138.177L239.961 142.384C240.461 142.896 241.288 142.913 241.809 142.421L245.904 138.61C246.158 138.378 246.308 138.055 246.321 137.713C246.333 137.371 246.207 137.039 245.97 136.789L241.801 132.294C241.556 132.032 241.212 131.882 240.85 131.88C240.489 131.878 240.142 132.024 239.894 132.283ZM248.615 139.892L244.522 143.979C244.015 144.483 244.015 145.296 244.522 145.8L248.693 150.014C249.193 150.526 250.019 150.542 250.54 150.05L254.629 146.241C255.15 145.76 255.181 144.956 254.699 144.438L250.51 139.929C250.268 139.668 249.929 139.517 249.571 139.51C249.212 139.503 248.867 139.641 248.615 139.892ZM256.242 148.625L252.153 152.707C251.644 153.209 251.644 154.023 252.153 154.526L256.319 158.732C256.818 159.244 257.643 159.262 258.164 158.772L262.25 154.966C262.505 154.735 262.656 154.413 262.67 154.071C262.683 153.729 262.557 153.397 262.32 153.147L258.157 148.657C257.914 148.391 257.57 148.235 257.207 148.229C256.843 148.223 256.493 148.366 256.242 148.625ZM264.416 154.964L259.567 160.264C259.345 160.509 259.345 160.901 259.567 161.145L264.451 166.568C264.674 166.813 265.036 166.822 265.268 166.587L270.118 161.63C270.349 161.393 270.362 160.998 270.146 160.745L265.261 154.964C265.151 154.839 264.998 154.768 264.839 154.768C264.679 154.768 264.526 154.839 264.416 154.964ZM272.045 162.593L267.196 167.909C266.975 168.153 266.975 168.544 267.196 168.789L272.081 174.207C272.308 174.447 272.671 174.447 272.898 174.207L277.747 169.254C277.979 169.017 277.991 168.623 277.775 168.37L272.891 162.593C272.78 162.468 272.628 162.398 272.468 162.398C272.308 162.398 272.156 162.468 272.045 162.593ZM279.677 170.215L274.826 175.527C274.604 175.771 274.604 176.162 274.826 176.407L279.708 181.836C279.935 182.076 280.298 182.076 280.526 181.836L285.376 176.886C285.608 176.65 285.621 176.256 285.404 176.003L280.522 170.23C280.414 170.104 280.262 170.03 280.102 170.027C279.943 170.024 279.789 170.092 279.677 170.215ZM287.306 177.848L282.457 183.158C282.233 183.403 282.233 183.797 282.457 184.042L287.341 189.455C287.563 189.702 287.927 189.71 288.158 189.474L293.007 184.522C293.237 184.285 293.25 183.892 293.035 183.638L288.155 177.86C288.046 177.732 287.893 177.659 287.733 177.657C287.572 177.655 287.418 177.724 287.306 177.848ZM294.937 185.464L290.086 190.775C289.862 191.02 289.862 191.414 290.086 191.659L294.969 197.095C295.196 197.335 295.559 197.335 295.786 197.095L300.637 192.143C300.867 191.905 300.879 191.513 300.665 191.259L295.768 185.483C295.661 185.361 295.512 185.29 295.356 185.286C295.2 185.283 295.049 185.347 294.937 185.464ZM302.563 194.193L297.714 199.523C297.493 199.767 297.493 200.158 297.714 200.402L302.598 205.815C302.826 206.055 303.188 206.055 303.415 205.815L308.265 200.866C308.496 200.63 308.509 200.236 308.293 199.983L303.412 194.212C303.304 194.084 303.152 194.009 302.991 194.006C302.831 194.002 302.676 194.07 302.563 194.193ZM310.199 200.735L305.344 206.072C305.122 206.317 305.122 206.71 305.344 206.956L310.22 212.354C310.448 212.594 310.811 212.594 311.038 212.354L315.894 207.398C316.126 207.162 316.138 206.767 315.922 206.514L311.035 200.735C310.925 200.613 310.774 200.545 310.617 200.545C310.46 200.545 310.309 200.613 310.199 200.735ZM218.091 124.631L213.998 128.725C213.499 129.226 213.499 130.03 213.998 130.531L218.169 134.753C218.409 135 218.738 135.143 219.085 135.15C219.431 135.156 219.766 135.027 220.016 134.789L224.105 130.976C224.634 130.491 224.666 129.675 224.175 129.152L219.983 124.671C219.741 124.41 219.403 124.259 219.046 124.251C218.688 124.243 218.344 124.381 218.091 124.631ZM201.758 139.891L197.658 143.981C197.148 144.485 197.148 145.301 197.658 145.804L201.832 150.019C202.328 150.523 203.143 150.54 203.662 150.059L207.758 146.245C208.286 145.76 208.316 144.944 207.824 144.423L203.65 139.934C203.411 139.672 203.072 139.518 202.714 139.51C202.355 139.502 202.01 139.639 201.758 139.891ZM225.727 131.193L221.628 135.278C221.129 135.778 221.129 136.58 221.628 137.08L225.798 141.293C226.037 141.54 226.367 141.682 226.714 141.689C227.061 141.696 227.396 141.567 227.646 141.329L231.738 137.517C232.264 137.031 232.294 136.218 231.804 135.697L227.635 131.207C227.391 130.944 227.046 130.793 226.684 130.79C226.322 130.787 225.976 130.933 225.727 131.193ZM233.35 138.801L229.257 142.897C228.758 143.398 228.758 144.201 229.257 144.702L233.428 148.922C233.667 149.169 233.997 149.312 234.344 149.319C234.69 149.325 235.025 149.196 235.275 148.958L239.364 145.147C239.893 144.663 239.924 143.846 239.434 143.324L235.245 138.838C235.003 138.578 234.663 138.427 234.306 138.42C233.948 138.413 233.603 138.551 233.35 138.801ZM240.986 147.533L236.887 151.627C236.388 152.128 236.388 152.931 236.887 153.432L241.063 157.65C241.561 158.153 242.376 158.169 242.894 157.687L246.993 153.877C247.523 153.392 247.554 152.577 247.063 152.054L242.891 147.555C242.646 147.294 242.303 147.143 241.943 147.139C241.582 147.135 241.236 147.278 240.986 147.533ZM210.467 147.527L206.369 151.618C205.87 152.119 205.87 152.922 206.369 153.423L210.537 157.641C210.777 157.888 211.107 158.031 211.453 158.038C211.8 158.045 212.135 157.915 212.385 157.678L216.479 153.868C217.005 153.381 217.035 152.567 216.546 152.045L212.359 147.556C212.117 147.296 211.777 147.145 211.419 147.139C211.061 147.134 210.717 147.274 210.467 147.527ZM218.091 155.17L213.998 159.258C213.499 159.758 213.499 160.56 213.998 161.06L218.169 165.273C218.669 165.785 219.495 165.801 220.016 165.309L224.105 161.505C224.634 161.021 224.666 160.206 224.175 159.684L220.008 155.192C219.764 154.926 219.419 154.773 219.055 154.769C218.691 154.764 218.342 154.91 218.091 155.17ZM225.723 162.783L221.628 166.889C221.129 167.389 221.129 168.191 221.628 168.691L225.801 172.902C226.301 173.414 227.128 173.43 227.649 172.939L231.74 169.131C232.262 168.651 232.293 167.848 231.811 167.33L227.641 162.838C227.402 162.568 227.059 162.409 226.694 162.398C226.33 162.388 225.978 162.528 225.723 162.783ZM249.697 155.173L245.606 159.26C245.107 159.76 245.107 160.561 245.606 161.061L249.774 165.271C250.014 165.518 250.344 165.661 250.69 165.667C251.036 165.674 251.371 165.545 251.621 165.308L255.712 161.501C255.967 161.27 256.118 160.947 256.13 160.605C256.143 160.264 256.016 159.931 255.778 159.682L251.613 155.191C251.369 154.925 251.023 154.772 250.659 154.768C250.295 154.765 249.946 154.912 249.697 155.173ZM256.244 162.792L252.146 166.883C251.647 167.383 251.647 168.186 252.146 168.686L256.318 172.9C256.558 173.147 256.887 173.29 257.234 173.297C257.581 173.304 257.916 173.174 258.166 172.937L262.26 169.127C262.78 168.645 262.81 167.841 262.327 167.324L258.158 162.829C257.916 162.561 257.573 162.405 257.209 162.398C256.846 162.391 256.496 162.534 256.244 162.792ZM265.508 170.225L260.658 175.538C260.435 175.783 260.435 176.177 260.658 176.422L265.543 181.835C265.769 182.077 266.133 182.077 266.36 181.835L271.209 176.883C271.439 176.646 271.451 176.253 271.237 175.999L266.356 170.225C266.246 170.099 266.092 170.027 265.932 170.027C265.771 170.027 265.618 170.099 265.508 170.225ZM272.047 176.764L267.198 182.078C266.974 182.323 266.974 182.717 267.198 182.962L272.082 188.374C272.309 188.616 272.673 188.616 272.899 188.374L277.748 183.423C277.978 183.185 277.991 182.793 277.777 182.539L272.896 176.764C272.785 176.638 272.632 176.567 272.471 176.567C272.311 176.567 272.157 176.638 272.047 176.764ZM279.679 185.472L274.826 190.792C274.604 191.036 274.604 191.428 274.826 191.673L279.707 197.095C279.935 197.335 280.297 197.335 280.524 197.095L285.374 192.138C285.607 191.902 285.621 191.508 285.406 191.253L280.524 185.491C280.417 185.364 280.265 185.29 280.106 185.286C279.946 185.283 279.792 185.35 279.679 185.472ZM288.396 193.113L283.547 198.427C283.323 198.672 283.323 199.066 283.547 199.311L288.428 204.724C288.656 204.965 289.02 204.965 289.248 204.724L294.094 199.772C294.327 199.537 294.341 199.142 294.126 198.888L289.245 193.113C289.134 192.987 288.981 192.916 288.82 192.916C288.66 192.916 288.506 192.987 288.396 193.113ZM225.724 146.434L221.628 150.525C221.129 151.026 221.129 151.83 221.628 152.33L225.798 156.55C226.037 156.798 226.366 156.941 226.713 156.948C227.06 156.955 227.395 156.825 227.644 156.586L231.737 152.775C232.264 152.29 232.294 151.474 231.803 150.952L227.615 146.47C227.374 146.209 227.035 146.056 226.677 146.049C226.319 146.042 225.974 146.182 225.724 146.434ZM233.359 155.162L229.266 159.243C229.021 159.484 228.883 159.811 228.883 160.152C228.883 160.494 229.021 160.821 229.266 161.062L233.433 165.27C233.672 165.517 234.001 165.661 234.348 165.667C234.695 165.674 235.03 165.544 235.278 165.306L239.368 161.505C239.893 161.02 239.923 160.208 239.434 159.687L235.271 155.202C235.031 154.934 234.687 154.776 234.324 154.769C233.961 154.761 233.611 154.904 233.359 155.162ZM242.075 162.799L237.977 166.885C237.478 167.385 237.478 168.187 237.977 168.687L242.145 172.901C242.385 173.147 242.714 173.29 243.061 173.297C243.408 173.304 243.743 173.174 243.992 172.937L248.087 169.132C248.613 168.646 248.642 167.833 248.153 167.311L243.985 162.817C243.741 162.553 243.396 162.401 243.034 162.398C242.671 162.394 242.324 162.54 242.075 162.799ZM249.709 170.416L245.615 174.502C245.37 174.743 245.232 175.07 245.232 175.411C245.232 175.752 245.37 176.08 245.615 176.321L249.78 180.53C250.019 180.777 250.349 180.919 250.695 180.926C251.041 180.933 251.376 180.804 251.626 180.567L255.716 176.765C256.242 176.279 256.272 175.467 255.783 174.945L251.618 170.456C251.377 170.19 251.034 170.035 250.673 170.028C250.311 170.02 249.962 170.161 249.709 170.416ZM256.791 177.846L251.938 183.159C251.716 183.405 251.716 183.797 251.938 184.043L256.819 189.455C257.041 189.702 257.405 189.71 257.636 189.474L262.486 184.523C262.719 184.286 262.733 183.891 262.518 183.635L257.636 177.862C257.528 177.734 257.377 177.66 257.217 177.657C257.057 177.654 256.903 177.722 256.791 177.846ZM264.42 185.478L259.567 190.791C259.345 191.037 259.345 191.43 259.567 191.675L264.449 197.084C264.67 197.331 265.034 197.34 265.266 197.103L270.115 192.148C270.349 191.911 270.363 191.516 270.147 191.26L265.269 185.493C265.161 185.364 265.009 185.289 264.848 185.286C264.687 185.283 264.532 185.353 264.42 185.478ZM272.046 193.102L267.197 198.431C266.975 198.676 266.975 199.068 267.197 199.314L272.078 204.723C272.304 204.965 272.669 204.965 272.895 204.723L277.745 199.775C277.978 199.539 277.992 199.145 277.777 198.891L272.892 193.121C272.784 192.993 272.632 192.919 272.473 192.916C272.313 192.912 272.159 192.979 272.046 193.102ZM280.769 200.741L275.916 206.055C275.694 206.301 275.694 206.693 275.916 206.939L280.797 212.352C281.024 212.595 281.388 212.595 281.615 212.352L286.464 207.397C286.697 207.161 286.711 206.767 286.496 206.512L281.622 200.756C281.514 200.624 281.361 200.548 281.199 200.545C281.036 200.542 280.881 200.613 280.769 200.741ZM294.935 200.731L290.086 206.06C289.863 206.305 289.863 206.699 290.086 206.943L294.971 212.353C295.197 212.595 295.561 212.595 295.788 212.353L300.637 207.404C300.867 207.167 300.879 206.775 300.665 206.521L295.781 200.75C295.673 200.623 295.521 200.549 295.362 200.545C295.202 200.542 295.048 200.609 294.935 200.731ZM302.565 207.262L297.716 212.595C297.492 212.84 297.492 213.234 297.716 213.479L302.6 218.892C302.826 219.134 303.191 219.134 303.417 218.892L308.266 213.94C308.496 213.702 308.508 213.31 308.294 213.056L303.41 207.3C303.305 207.17 303.155 207.092 302.995 207.085C302.835 207.078 302.68 207.142 302.565 207.262ZM264.269 200.778L259.628 205.396C259.325 205.7 259.325 206.186 259.628 206.49L264.301 211.21C264.603 211.514 265.097 211.523 265.411 211.231L270.052 206.93C270.365 206.637 270.384 206.151 270.095 205.836L265.422 200.799C265.275 200.641 265.068 200.549 264.85 200.545C264.632 200.541 264.422 200.625 264.269 200.778ZM271.899 208.4L267.257 213.023C266.954 213.327 266.954 213.814 267.257 214.118L271.942 218.857C272.248 219.146 272.732 219.146 273.038 218.857L277.68 214.551C277.995 214.259 278.014 213.771 277.723 213.456L273.038 208.422C272.891 208.268 272.688 208.179 272.473 208.175C272.259 208.171 272.052 208.252 271.899 208.4ZM279.526 216.038L274.886 220.655C274.584 220.959 274.584 221.445 274.886 221.749L279.558 226.467C279.86 226.773 280.355 226.783 280.668 226.488L285.308 222.188C285.625 221.897 285.644 221.409 285.351 221.095L280.679 216.06C280.532 215.9 280.326 215.808 280.107 215.804C279.889 215.8 279.679 215.885 279.526 216.038ZM287.305 223.612L282.455 228.941C282.234 229.187 282.234 229.579 282.455 229.824L287.34 235.233C287.562 235.478 287.925 235.486 288.157 235.252L293.006 230.304C293.238 230.067 293.25 229.674 293.034 229.421L288.153 223.65C288.048 223.519 287.897 223.441 287.736 223.434C287.576 223.427 287.42 223.491 287.305 223.612ZM210.81 131.161L206.383 135.479C206.135 135.716 205.995 136.038 205.995 136.373C205.995 136.709 206.135 137.031 206.383 137.268L218.743 148.954C219.25 149.432 220.062 149.441 220.582 148.975L225.196 144.83C225.458 144.594 225.608 144.268 225.613 143.925C225.618 143.581 225.477 143.251 225.222 143.009L212.675 131.154C212.158 130.666 211.324 130.669 210.81 131.161ZM287.716 207.264L282.462 212.694C282.232 212.934 282.232 213.315 282.462 213.555L295.411 226.531C295.643 226.76 296.014 226.76 296.247 226.531L301.723 221.315C301.841 221.2 301.908 221.042 301.908 220.877C301.908 220.712 301.841 220.553 301.723 220.439L288.549 207.246C288.311 207.024 287.943 207.032 287.716 207.264ZM232.865 170.2L227.966 175.024C227.855 175.133 227.793 175.281 227.793 175.436C227.793 175.59 227.855 175.738 227.966 175.847L255.249 203.648C255.478 203.87 255.844 203.87 256.073 203.648L261.402 198.65C261.516 198.54 261.581 198.389 261.581 198.231C261.581 198.074 261.516 197.923 261.402 197.813L233.689 170.189C233.457 169.969 233.091 169.974 232.865 170.2Z" fill="#464A5F"/>
<path opacity="0.1" d="M214.391 173.155L192.772 194.878C191.524 196.133 191.509 198.17 192.736 199.444L232.723 240.98C233.318 241.599 234.133 241.952 234.987 241.962C235.841 241.971 236.664 241.636 237.273 241.03L259.534 218.881C260.143 218.274 260.487 217.447 260.491 216.582C260.494 215.717 260.156 214.887 259.552 214.275L218.923 173.155C217.671 171.891 215.644 171.891 214.391 173.155Z" fill="black"/>
<path d="M214.391 173.144L192.772 194.883C191.524 196.138 191.509 198.174 192.736 199.449L232.723 240.98C233.318 241.599 234.133 241.952 234.987 241.962C235.841 241.971 236.664 241.636 237.273 241.03L259.534 218.884C260.143 218.277 260.487 217.449 260.491 216.585C260.494 215.72 260.156 214.89 259.552 214.278L218.923 173.165C217.677 171.896 215.649 171.886 214.391 173.144Z" fill="#939498" fill-opacity="0.028"/>
<path d="M235.455 58.9182L229.973 97.5089L331.552 199.455L336.724 161.202C337.005 159.109 336.299 157.003 334.813 155.51L237.708 58.1559C237.352 57.798 236.825 57.6739 236.348 57.8354C235.87 57.9968 235.525 58.4161 235.455 58.9182Z" fill="#9C9CA1"/>
<path opacity="0.1" d="M106.267 246.322C110.782 246.322 114.442 245.834 114.442 245.232C114.442 244.63 110.782 244.142 106.267 244.142C101.753 244.142 98.0928 244.63 98.0928 245.232C98.0928 245.834 101.753 246.322 106.267 246.322Z" fill="#707579"/>
<path opacity="0.1" d="M73.5694 248.501C78.084 248.501 81.7438 248.013 81.7438 247.411C81.7438 246.81 78.084 246.322 73.5694 246.322C69.0548 246.322 65.395 246.81 65.395 247.411C65.395 248.013 69.0548 248.501 73.5694 248.501Z" fill="#179A6F"/>
<path opacity="0.1" d="M36.5123 244.142C41.0269 244.142 44.6867 243.654 44.6867 243.052C44.6867 242.45 41.0269 241.962 36.5123 241.962C31.9977 241.962 28.3379 242.45 28.3379 243.052C28.3379 243.654 31.9977 244.142 36.5123 244.142Z" fill="#707579"/>
<path opacity="0.1" d="M87.7382 258.311C91.0489 258.311 93.7328 257.823 93.7328 257.221C93.7328 256.619 91.0489 256.131 87.7382 256.131C84.4275 256.131 81.7437 256.619 81.7437 257.221C81.7437 257.823 84.4275 258.311 87.7382 258.311Z" fill="#707579"/>
<path opacity="0.1" d="M53.9511 258.311C57.2618 258.311 59.9456 257.823 59.9456 257.221C59.9456 256.619 57.2618 256.131 53.9511 256.131C50.6404 256.131 47.9565 256.619 47.9565 257.221C47.9565 257.823 50.6404 258.311 53.9511 258.311Z" fill="#707579"/>
<path d="M74.8552 248.501C74.8552 248.501 86.5855 210.211 73.0166 194.892C62.8824 183.419 51.3476 184.803 46.1864 186.212C43.4855 186.928 41.2362 188.788 40.0335 191.3C38.2239 195.177 38.5569 201.465 51.2897 208.805C72.6148 221.097 73.9395 237.958 73.9395 237.958L74.8552 248.501Z" fill="#62BD23"/>
<path d="M77.3844 218.01C77.3844 218.01 73.1014 217.583 73.0247 220.164M46.8667 190.736C46.8667 190.736 80.5646 201.461 73.0111 247.411L46.8667 190.736ZM67.5751 195.095C67.5751 195.095 63.1921 198.577 64.5753 203.815L67.5751 195.095ZM50.1365 198.365C50.1365 198.365 53.0706 194.818 56.676 196.774L50.1365 198.365ZM64.3054 212.751C64.3054 212.751 69.4987 209.294 70.8449 213.624L64.3054 212.751Z" stroke="#707579"/>
<path d="M74.1142 248.501C74.1142 248.501 60.3751 220.654 56.615 221.263C54.8253 221.552 54.0009 223.308 53.6285 225.075C53.1666 227.357 53.4269 229.725 54.3733 231.853C56.3221 236.31 61.5538 244.773 74.1142 248.501Z" fill="#62BD23"/>
<path d="M68.823 238.692L68.665 240.872M57.7658 226.703C57.7658 226.703 72.3799 247.587 75.2045 248.501L57.7658 226.703ZM55.5859 228.883H58.8557H55.5859ZM59.9456 237.602L65.3952 237.94L59.9456 237.602ZM63.2154 231.063L62.1254 233.243L63.2154 231.063Z" stroke="#707579"/>
<path d="M74.1143 248.501C74.1143 248.501 87.8532 220.654 91.6098 221.263C93.4175 221.552 94.2274 223.308 94.5998 225.075C95.0625 227.357 94.8009 229.726 93.8514 231.853C91.9062 236.31 86.6746 244.773 74.1143 248.501Z" fill="#62BD23"/>
<path d="M79.5638 238.692L79.7164 240.872M91.5529 226.703C91.5529 226.703 76.9382 247.587 74.1143 248.501L91.5529 226.703ZM92.6429 228.883H89.3731H92.6429ZM89.3731 237.602L83.9235 237.94L89.3731 237.602ZM85.0134 231.063L86.1034 233.243L85.0134 231.063Z" stroke="#707579"/>
<path d="M50.9815 254.777C50.5931 254.447 50.3104 254.001 50.1712 253.498C50.0426 252.978 50.2787 252.435 50.7376 252.195C51.259 251.987 51.8142 252.364 52.2381 252.745C52.662 253.125 53.1459 253.561 53.6974 253.482C53.1193 252.936 52.8586 252.112 53.0109 251.312C53.0337 251.149 53.1 250.995 53.2022 250.869C53.491 250.547 54.0125 250.685 54.3576 250.94C55.4604 251.748 55.7643 253.294 55.7718 254.718C55.8333 254.197 55.8396 253.671 55.7906 253.149C55.7484 252.621 55.9575 252.106 56.3495 251.771C56.6113 251.626 56.9047 251.554 57.201 251.563C57.6948 251.482 58.1983 251.625 58.5852 251.956C59.0054 252.427 58.8966 253.211 58.529 253.729C58.1224 254.213 57.6388 254.619 57.0997 254.93C56.6887 255.184 56.3385 255.533 56.0756 255.95C56.0455 256.008 56.0204 256.068 56.0006 256.131H52.9021C52.2067 255.772 51.5607 255.316 50.9815 254.777ZM103.301 243.893C102.912 243.561 102.628 243.114 102.487 242.61C102.36 242.089 102.595 241.545 103.053 241.303C103.575 241.094 104.13 241.472 104.555 241.854C104.979 242.236 105.459 242.673 106.011 242.59C105.434 242.041 105.173 241.215 105.324 240.413C105.349 240.251 105.415 240.099 105.515 239.972C105.804 239.645 106.326 239.787 106.675 240.043C107.775 240.854 108.082 242.405 108.086 243.83C108.149 243.308 108.157 242.78 108.109 242.255C108.06 241.725 108.271 241.205 108.668 240.874C108.929 240.725 109.223 240.653 109.52 240.665C110.012 240.586 110.514 240.729 110.901 241.059C111.321 241.531 111.212 242.322 110.848 242.842C110.438 243.319 109.954 243.718 109.415 244.023C109.007 244.282 108.658 244.631 108.394 245.047C108.362 245.105 108.337 245.167 108.319 245.232H105.215C104.523 244.877 103.879 244.427 103.301 243.893ZM85.8592 254.774C85.4707 254.444 85.1879 253.998 85.0486 253.496C84.92 252.977 85.1562 252.434 85.6153 252.194C86.1369 251.986 86.6923 252.363 87.1164 252.743C87.5405 253.123 88.0246 253.559 88.5763 253.48C87.998 252.934 87.7372 252.111 87.8895 251.312C87.9123 251.148 87.9786 250.995 88.0809 250.869C88.3699 250.547 88.8915 250.685 89.2368 250.939C90.3364 251.747 90.6441 253.292 90.6516 254.715C90.7132 254.195 90.7195 253.669 90.6704 253.147C90.6285 252.622 90.8361 252.109 91.2258 251.775C91.4877 251.629 91.7813 251.558 92.0777 251.567C92.5717 251.486 93.0754 251.628 93.4625 251.959C93.8828 252.429 93.774 253.214 93.4062 253.731C92.9994 254.214 92.5157 254.62 91.9764 254.931C91.5652 255.185 91.2148 255.534 90.9518 255.95C90.9216 256.008 90.8965 256.068 90.8768 256.131H87.7769C87.0824 255.77 86.4373 255.314 85.8592 254.774ZM36.2362 232.153C36.2362 232.153 35.1445 233.551 36.7399 235.661C38.3352 237.771 39.6489 239.556 39.1171 240.872C39.1171 240.872 36.7117 236.949 34.7535 236.897C32.7954 236.846 34.0809 234.511 36.2362 232.153Z" fill="#62BD23"/>
<path opacity="0.1" d="M36.2652 232.153C36.1697 232.288 36.0941 232.436 36.0407 232.591C34.1057 234.792 33.0759 236.847 34.936 236.899C36.6643 236.944 38.7419 239.946 39.2372 240.699C39.222 240.758 39.2029 240.816 39.1802 240.872C39.1802 240.872 36.7463 236.948 34.765 236.896C32.7837 236.844 34.0843 234.512 36.2652 232.153Z" fill="black"/>
<path d="M33.7877 233.812C33.7877 234.704 33.8749 235.422 33.9839 235.422C34.0928 235.422 34.18 234.704 34.18 233.812C34.18 232.919 34.0711 233.343 33.9621 233.343C33.8531 233.343 33.7877 232.919 33.7877 233.812ZM32.9566 234.883C33.3831 235.264 33.7549 235.5 33.7856 235.399C33.8163 235.298 33.4991 234.916 33.0726 234.529C32.6462 234.142 32.8133 234.428 32.7826 234.529C32.7519 234.63 32.5302 234.524 32.9566 234.883Z" fill="#FFD037"/>
<path d="M42.2381 232.153C42.2381 232.153 43.3266 233.551 41.7344 235.661C40.1422 237.771 38.8248 239.556 39.3567 240.872C39.3567 240.872 41.7626 236.949 43.7211 236.897C45.6796 236.846 44.3904 234.511 42.2381 232.153Z" fill="#62BD23"/>
<path opacity="0.1" d="M42.2109 232.153C42.3064 232.288 42.3819 232.436 42.4353 232.591C44.3657 234.792 45.3951 236.847 43.5394 236.899C41.8084 236.944 39.7355 239.946 39.2368 240.699C39.2532 240.758 39.2735 240.816 39.2974 240.872C39.2974 240.872 41.73 236.948 43.7104 236.896C45.6907 236.844 44.3871 234.512 42.2109 232.153Z" fill="black"/>
<path d="M43.9836 233.812C43.9836 234.704 43.8964 235.422 43.7929 235.422C43.6893 235.422 43.5967 234.704 43.5967 233.812C43.5967 232.919 43.7057 233.343 43.8147 233.343C43.9237 233.343 43.9836 232.919 43.9836 233.812Z" fill="#FFD037"/>
<path d="M44.4327 234.883C44.0057 235.264 43.6333 235.5 43.5991 235.399C43.565 235.298 43.8895 234.916 44.3166 234.529C44.7436 234.142 44.5762 234.428 44.6069 234.529C44.6377 234.63 44.8461 234.524 44.4327 234.883Z" fill="#FFD037"/>
<path d="M44.6869 240.249C44.6869 240.249 41.4676 240.159 40.4974 239.543C39.5272 238.927 35.5459 238.184 35.2931 239.177C35.0403 240.169 30.4606 244.114 34.0924 244.141C37.7243 244.167 42.5345 243.634 43.5047 243.105C44.475 242.575 44.6869 240.249 44.6869 240.249Z" fill="#464A5F"/>
<path opacity="0.2" d="M34.0268 244.846C37.6657 244.876 42.4804 244.279 43.4478 243.686C44.192 243.234 44.4785 241.618 44.5641 240.872H44.6869C44.6869 240.872 44.4822 243.484 43.5148 244.07C42.5474 244.656 37.729 245.26 34.0937 245.231C33.0445 245.231 32.6798 244.857 32.6984 244.294C32.8473 244.63 33.2454 244.839 34.0268 244.846Z" fill="black"/>
<path d="M62.1273 120.113C62.0702 121.626 63.3563 123.636 63.3563 123.636C63.7493 124.591 68.5686 129.016 68.5686 129.016L72.1411 131.422C71.4194 131.959 70.6627 132.447 69.8761 132.882C68.1363 133.779 67.186 136.748 67.186 136.748C67.186 136.748 64.5495 143.136 69.8761 144.033L69.9761 144.051L70.4548 144.573C71.6338 145.856 73.0735 147.387 73.5736 147.729C74.4703 148.346 77.2176 152.997 77.2176 152.997C77.2176 152.997 80.1292 157.818 84.0054 158.041C87.8815 158.265 87.8708 153.782 87.5779 153.501C87.4614 153.314 87.3803 153.106 87.3385 152.889C88.2638 154.391 89.5249 156.366 89.9321 156.64C90.6038 157.086 92.7901 160.603 92.7901 160.603C92.7901 160.603 95.5374 166.933 95.984 167.607C96.4305 168.281 97.2165 171.643 97.2165 171.643C97.2165 171.643 98.7884 176.29 99.5172 176.91C100.246 177.53 100.635 179.767 100.635 179.767C100.635 179.767 102.932 183.129 103.325 183.687C103.785 184.503 104.197 185.345 104.558 186.209C104.558 186.209 105.79 188.227 105.79 189.013C105.79 189.798 108.37 191.138 108.37 191.138C108.37 191.138 110.22 193.325 111.285 193.718C112.35 194.111 113.357 196.687 113.525 196.518C113.624 196.47 113.733 196.448 113.843 196.453L114.279 196.892C115.979 198.6 119.377 202.005 120.248 202.794C121.427 203.875 124.117 204.026 126.357 203.579C127.508 203.349 128.908 202.25 129.998 201.234C130.496 200.764 130.782 200.11 130.79 199.422C130.798 198.734 130.528 198.073 130.041 197.591C128.969 196.55 127.729 195.408 127.183 195.231C126.175 194.893 123.317 192.879 121.974 191.196C121.259 190.32 120.005 189.488 118.952 188.894L118.823 188.818C118.662 188.201 118.553 187.572 118.498 186.937C118.498 186.937 120.348 182.736 119.337 182.513C118.326 182.289 114.518 175.62 114.518 175.62C114.465 170.576 109.874 166.317 109.874 166.317C109.874 166.317 107.577 160.826 106.905 159.652C106.497 159.042 106.497 158.244 106.905 157.634C106.905 157.634 105.615 156.625 105.394 156.121C105.172 155.616 104.104 151.797 104.104 151.797C104.104 151.797 102.815 149.499 102.757 148.436C102.7 147.373 100.189 144.408 100.189 144.408C100.189 144.408 99.1706 139.414 98.0453 138.517C97.8274 138.344 97.8595 137.684 98.0453 136.737L98.0989 136.679L98.2704 136.51L98.3204 136.459C98.8353 135.947 99.3196 135.404 99.7708 134.834L99.7923 134.806C99.8637 134.715 99.9316 134.629 99.9959 134.539C101.621 132.298 102.629 126.973 102.629 126.973C102.629 126.973 102.95 126.821 103.368 126.591C103.956 126.295 104.499 125.918 104.983 125.47C105.006 125.444 105.025 125.415 105.04 125.384C105.042 125.374 105.042 125.364 105.04 125.355C105.051 125.333 105.061 125.31 105.069 125.286C105.07 125.273 105.07 125.26 105.069 125.247C105.071 125.22 105.071 125.194 105.069 125.168C105.069 125.168 105.069 125.142 105.069 125.128V124.998C105.069 124.951 105.069 124.905 105.051 124.854C105.051 124.848 105.051 124.842 105.051 124.836C105.051 124.793 105.033 124.75 105.022 124.703V124.66C105.022 124.62 105.001 124.58 104.987 124.537C104.988 124.521 104.988 124.506 104.987 124.49L104.944 124.357C104.942 124.346 104.942 124.335 104.944 124.324C104.876 124.144 104.794 123.964 104.701 123.77L104.604 123.586C104.429 123.251 104.247 122.923 104.054 122.638L104.026 122.595C104.419 121.478 105.18 119.511 105.887 118.805C106.894 117.796 105.326 112.417 105.326 112.417C105.326 112.417 104.99 108.608 104.54 107.488C104.09 106.367 104.54 106.205 104.183 105.247C103.751 104.166 103.436 104.238 103.994 101.773C104.204 100.844 104.529 99.8205 104.822 98.8657L105.18 99.1972C107.252 101.168 110.506 103.733 110.506 103.733C110.506 103.733 116.894 109.559 117.455 109.729C118.016 109.898 119.698 115.612 119.698 115.612C119.698 115.612 119.305 125.081 124.46 125.474C126.65 125.64 127.579 123.932 127.915 121.918C128.418 118.753 127.491 115.527 125.389 113.123L122.303 109.585L119.555 104.656C117.806 101.873 116.333 98.9236 115.158 95.85C113.909 92.8381 112.078 90.1078 109.77 87.8189L109.549 87.5991L109.835 87.3325C109.835 87.3325 109.384 83.6358 109.049 83.1891C108.713 82.7423 107.48 80.1625 107.48 79.5861C107.48 79.0096 106.694 78.9159 106.248 78.2422C106.248 78.2422 105.462 76.6749 104.733 76.4407C104.6 76.3886 104.478 76.3102 104.376 76.2101C103.098 75.0707 101.494 74.3705 99.7958 74.2104L99.3493 74.1672C98.3561 74.1218 97.3612 74.1363 96.3698 74.2104H96.3448C95.5838 73.9798 95.0087 73.3817 94.4192 72.8485C93.4699 71.9919 92.4172 71.2595 91.2861 70.6687C90.1251 70.0598 88.8104 69.5878 87.5136 69.8112C86.499 69.9769 85.5916 70.5317 84.602 70.8236C83.1944 71.2235 81.4653 71.1407 80.5793 72.3044C80.1542 72.8593 80.0327 73.5979 79.6362 74.1708C79.0717 74.985 78.0357 75.3634 77.4534 76.1668C77.0636 76.7516 76.8857 77.454 76.9497 78.1557C76.9302 78.7236 76.9977 79.2911 77.1497 79.8383C77.2981 80.3086 77.4069 80.7907 77.4748 81.2795C77.467 81.3595 77.4539 81.439 77.4355 81.5173C77.3569 81.8776 77.1747 82.1802 77.1033 82.5297C77.0671 82.7197 77.0611 82.9143 77.0854 83.1062C76.9782 83.9673 77.5284 84.7852 77.8999 85.585C78.1874 86.2098 78.3766 86.876 78.4608 87.5595C77.5311 87.8368 76.6245 88.1873 75.7493 88.608C74.5811 89.1772 73.4057 89.9483 72.7341 90.9355C71.6407 92.486 70.272 93.8188 68.6972 94.8664C68.2125 96.0698 67.8009 97.3019 67.4647 98.5558C67.1288 99.997 66.793 102.364 65.7856 103.6C64.7781 104.836 64.3137 108.504 64.3137 108.504C64.3137 108.504 62.9669 110.687 62.9669 111.137C62.9669 111.588 62.799 113.66 62.9669 114.272C63.0657 114.464 63.1975 114.638 63.3563 114.784L63.2563 115.144C62.7918 116.791 62.1631 119.165 62.1273 120.113ZM93.7226 94.8736C93.694 94.9997 93.6618 95.1186 93.6225 95.2339C93.6225 95.1186 93.6404 95.0069 93.6475 94.8916L93.7226 94.8736ZM80.9544 142.765L80.7758 142.599L80.6901 142.52C80.6901 142.476 80.7115 142.433 80.7222 142.383L80.9544 142.765ZM71.6659 119.831L71.7374 119.698L72.0017 119.215L74.1452 117.45L74.4203 117.702C74.4203 117.702 74.1953 120.055 73.6379 119.943C73.5093 119.918 73.4522 120.458 73.4379 121.305C72.4269 120.433 71.6552 119.831 71.6552 119.831H71.6659Z" fill="url(#paint0_linear)"/>
<path d="M91.5532 75.6725C91.5532 75.6725 98.3523 75.0674 99.9693 75.2331L100.41 75.2727C102.097 75.4425 103.685 76.1402 104.944 77.2644C105.049 77.3631 105.173 77.4403 105.308 77.4913C106.036 77.7109 106.812 79.256 106.812 79.256C106.812 79.256 105.086 92.7583 105.086 92.9239C105.086 93.0896 101.517 99.2051 101.517 99.2051L98.061 100.53L92.0995 101.362L91.932 98.8197C91.932 98.8197 94.8016 97.2638 94.4812 94.0476C94.1607 90.8314 91.5532 75.6725 91.5532 75.6725Z" fill="#464353"/>
<path d="M94.728 92.1092C94.728 92.1092 93.2669 98.7439 94.728 100.878C96.1891 103.013 80.3066 97.3957 80.3066 97.3957L77.3843 92.1092C77.3843 92.1092 78.4801 91.3267 79.7148 90.3164C81.4536 88.9093 83.5357 87.0651 83.5357 86.2753C83.5539 84.9123 94.728 92.1092 94.728 92.1092Z" fill="#ECB4B6"/>
<path opacity="0.1" d="M94.728 92.1092C94.728 92.1092 93.2669 98.7439 94.728 100.878C96.1891 103.013 80.3066 97.3957 80.3066 97.3957L77.3843 92.1092C77.3843 92.1092 78.4801 91.3267 79.7148 90.3164C81.4536 88.9093 83.5357 87.0651 83.5357 86.2753C83.5539 84.9123 94.728 92.1092 94.728 92.1092Z" fill="#FCCBB5"/>
<path opacity="0.1" d="M91.5529 97.0027C96.9704 97.0027 101.362 92.611 101.362 87.1935C101.362 81.776 96.9704 77.3842 91.5529 77.3842C86.1354 77.3842 81.7437 81.776 81.7437 87.1935C81.7437 92.611 86.1354 97.0027 91.5529 97.0027Z" fill="black"/>
<path d="M91.5529 97.0027C96.9704 97.0027 101.362 92.611 101.362 87.1935C101.362 81.776 96.9704 77.3842 91.5529 77.3842C86.1354 77.3842 81.7437 81.776 81.7437 87.1935C81.7437 92.611 86.1354 97.0027 91.5529 97.0027Z" fill="#FCCBB5"/>
<path d="M102.455 98.4313C102.491 98.7935 103.17 99.5432 104.093 100.43C106.116 102.379 109.295 104.918 109.295 104.918C109.295 104.918 115.534 110.68 116.088 110.846C116.642 111.013 118.276 116.666 118.276 116.666C118.276 116.666 117.894 126.032 122.924 126.42C125.07 126.583 125.971 124.898 126.3 122.903C126.79 119.779 125.887 116.596 123.836 114.211L120.847 110.687L118.166 105.809C116.447 103.062 114.999 100.151 113.843 97.1166C112.633 94.1332 110.847 91.4245 108.591 89.149C108.029 88.584 107.668 88.2834 107.668 88.2834L105.165 89.0584C105.165 89.0584 102.348 97.3158 102.455 98.4313Z" fill="#FCCBB5"/>
<path d="M113.352 195.092L114.33 196.043C116.023 197.694 119.41 200.993 120.278 201.742C121.45 202.771 124.132 202.934 126.366 202.499C127.512 202.28 128.92 201.216 129.993 200.236C130.495 199.783 130.783 199.15 130.79 198.486C130.798 197.821 130.524 197.183 130.034 196.718C128.975 195.714 127.734 194.597 127.202 194.438C126.198 194.113 123.348 192.168 122.008 190.549C121.311 189.704 120.048 188.901 119.001 188.325C118.038 187.798 117.26 187.466 117.26 187.466L113.352 195.092Z" fill="#C17174"/>
<path opacity="0.1" d="M114.441 195.095C114.441 195.095 114.755 195.42 115.242 195.911C116.636 197.336 119.419 200.143 120.135 200.794C121.099 201.674 123.311 201.813 125.138 201.443C125.964 201.275 126.948 200.559 127.78 199.819C128.292 199.366 128.593 198.719 128.61 198.032C128.626 197.346 128.358 196.684 127.869 196.207C127.071 195.434 126.218 194.668 125.826 194.536C125 194.258 122.651 192.588 121.557 191.199C120.849 190.425 120.013 189.78 119.088 189.293C118.297 188.841 117.659 188.556 117.659 188.556L114.441 195.095Z" fill="#C5A692"/>
<path d="M68.665 142.531C68.665 142.531 69.4175 143.346 70.3313 144.301C71.4815 145.507 72.8933 146.944 73.3806 147.263C74.2586 147.844 76.946 152.209 76.946 152.209C76.946 152.209 79.8127 156.731 83.5823 156.941C87.3519 157.15 87.3662 152.944 87.0903 152.683C86.8144 152.422 86.4346 150.05 85.8863 148.315C85.4707 147.002 82.0701 143.882 80.4433 142.442C79.9202 141.978 79.5797 141.689 79.5797 141.689L68.665 142.531Z" fill="#C17174"/>
<path opacity="0.1" d="M69.7549 143.56C69.7549 143.56 70.4138 144.316 71.2218 145.205C72.238 146.325 73.483 147.655 73.913 147.956C74.6898 148.495 77.0585 152.549 77.0585 152.549C77.0585 152.549 79.5763 156.749 82.9159 156.941C86.2556 157.134 86.2522 153.231 86.0129 152.986C85.7736 152.741 85.4302 150.536 84.9482 148.933C84.5806 147.715 81.5808 144.816 80.145 143.479C79.6838 143.049 79.3821 142.779 79.3821 142.779L69.7549 143.56Z" fill="#C5A692"/>
<path opacity="0.1" d="M68.665 142.64C68.665 142.64 69.431 143.559 70.3611 144.638C75.2632 145.414 77.5429 144.541 77.5429 144.541C77.5429 144.541 79.8298 143.47 80.3332 143.412C80.4608 143.412 80.552 143.059 80.6541 142.539C80.1216 142.015 79.7751 141.689 79.7751 141.689L68.665 142.64Z" fill="black"/>
<path d="M75.5203 129.7C75.5203 129.7 72.5187 132.267 70.8183 133.186C69.1179 134.105 68.2088 137.123 68.2088 137.123C68.2088 137.123 65.6458 143.642 70.8254 144.554C76.0051 145.466 78.4113 144.554 78.4113 144.554C78.4113 144.554 80.6464 143.527 81.1384 143.471C81.6303 143.415 81.6268 138.494 83.427 137.008C85.2272 135.521 89.3731 132.151 89.3731 132.151L75.5203 129.7Z" fill="#5E5A6B"/>
<path opacity="0.1" d="M75.5203 129.7C75.5203 129.7 72.5187 132.267 70.8183 133.186C69.1179 134.105 68.2088 137.123 68.2088 137.123C68.2088 137.123 65.6458 143.642 70.8254 144.554C76.0051 145.466 78.4113 144.554 78.4113 144.554C78.4113 144.554 80.6464 143.527 81.1384 143.471C81.6303 143.415 81.6268 138.494 83.427 137.008C85.2272 135.521 89.3731 132.151 89.3731 132.151L75.5203 129.7Z" fill="black"/>
<path d="M104.096 122.071C104.096 122.071 106.265 125.055 105.593 125.77C104.92 126.486 103.271 127.268 103.271 127.268C103.271 127.268 102.273 132.578 100.668 134.813C99.0621 137.048 95.9126 139.51 95.9126 139.51L98.122 127.045L104.096 122.071Z" fill="#5E5A6B"/>
<path opacity="0.1" d="M95.9126 139.51C96.8977 138.724 97.842 137.888 98.7419 137.004C99.4417 136.328 100.085 135.595 100.667 134.813C102.273 132.578 103.272 127.268 103.272 127.268C103.272 127.268 104.932 126.486 105.594 125.77C106 125.336 105.359 124.069 104.795 123.137C104.433 122.531 104.1 122.071 104.1 122.071L100.963 124.678L98.1196 127.045L97.2838 131.873L95.9126 139.51ZM113.351 195.153L114.352 196.111C114.984 196.111 115.925 196.185 115.925 196.185C115.925 196.185 120.553 190.898 119.81 189.972C119.474 189.473 119.244 188.915 119.134 188.331C118.148 187.801 117.352 187.466 117.352 187.466L113.351 195.153Z" fill="black"/>
<path d="M78.4741 138.787C78.4741 139.729 85.9764 151.268 85.9764 151.268C85.9764 151.268 88.9002 156.259 89.5635 156.705C90.2268 157.151 92.3755 160.642 92.3755 160.642C92.3755 160.642 95.0793 166.909 95.5228 167.576C95.9662 168.243 96.7341 171.564 96.7341 171.564C96.7341 171.564 98.2807 176.168 98.9981 176.777C99.7155 177.386 100.101 179.608 100.101 179.608C100.101 179.608 102.362 182.935 102.747 183.49C103.2 184.297 103.606 185.13 103.962 185.984C103.962 185.984 105.177 187.981 105.177 188.761C105.177 189.54 107.701 190.867 107.701 190.867C107.701 190.867 109.503 193.042 110.567 193.404C111.63 193.767 112.611 196.344 112.773 196.178C112.936 196.011 114.817 196.178 114.817 196.178C114.817 196.178 119.284 190.798 118.567 189.856C117.849 188.913 117.684 186.691 117.684 186.691C117.684 186.691 119.486 182.533 118.513 182.312C117.539 182.091 113.786 175.508 113.786 175.508C113.732 170.516 109.208 166.3 109.208 166.3C109.208 166.3 106.944 160.863 106.284 159.699C105.881 159.095 105.881 158.306 106.284 157.702C106.284 157.702 105.015 156.705 104.795 156.205C104.575 155.705 103.526 151.935 103.526 151.935C103.526 151.935 102.257 149.658 102.199 148.603C102.142 147.548 99.6759 144.616 99.6759 144.616C99.6759 144.616 98.6737 139.675 97.5705 138.787C97.3542 138.613 97.3902 137.964 97.5705 137.021C98.0788 134.538 99.6975 130.051 100.815 127.111C101.453 125.429 101.925 124.251 101.925 124.251L99.7912 124.787L81.6214 129.355C81.6214 129.355 80.6372 132.012 79.772 134.517C79.0834 136.489 78.4741 138.37 78.4741 138.787Z" fill="#5E5A6B"/>
<path opacity="0.1" d="M114.142 183.986C114.142 183.986 119.685 181.628 116.956 184.633C114.226 187.637 108.992 187.464 108.992 187.464L114.142 183.986ZM104.632 172.207C104.632 172.207 102.02 174.223 102.515 176.172C103.009 178.122 104.632 172.207 104.632 172.207ZM101.362 159.128C100.808 160.564 99.7289 161.409 98.5924 161.298C96.5648 161.23 101.362 159.128 101.362 159.128ZM71.3897 134.06C71.3897 134.06 72.6158 138.11 71.3897 138.406C70.1635 138.702 71.3897 134.06 71.3897 134.06ZM102.455 98.2981C102.487 98.6558 103.091 99.3962 103.912 100.272C104.377 98.5914 104.809 97.0535 104.549 96.5456C104.16 95.7802 105.681 94.1384 105.408 93.044C105.198 92.207 107.03 90.086 107.902 89.1382C107.402 88.5803 107.081 88.2834 107.081 88.2834L104.854 89.0488C104.854 89.0488 102.36 97.1965 102.455 98.2981ZM80.654 134.06C82.7594 133.947 87.6695 132.467 87.6695 132.467C87.6695 132.467 93.3624 132.283 97.0912 131.543C98.9031 131.19 100.222 130.686 100.222 130.02C100.222 129.128 100.972 127.933 101.824 126.847C102.406 126.13 103.028 125.444 103.686 124.792C104.033 124.447 104.296 124.032 104.458 123.576C104.509 123.432 104.571 123.269 104.632 123.1C104.27 122.515 103.936 122.071 103.936 122.071L100.795 124.588L82.5311 129.03C82.5311 129.03 81.5092 131.624 80.654 134.06Z" fill="black"/>
<path d="M73.6709 131.13C73.6709 131.13 77.7392 133.557 78.9504 133.997C80.1615 134.437 86.6485 132.425 86.6485 132.425C86.6485 132.425 99.0798 132.013 99.0798 129.9C99.0798 128.281 101.437 125.677 102.516 124.573C102.86 124.219 103.121 123.793 103.281 123.325C103.658 122.243 104.42 120.235 105.128 119.524C106.12 118.532 104.579 113.234 104.579 113.234C104.579 113.234 104.248 109.48 103.809 108.376C103.371 107.273 103.809 107.11 103.45 106.169C103.026 105.112 102.731 105.174 103.267 102.747C103.802 100.319 105.136 97.2286 104.704 96.4532C104.273 95.6778 105.984 94.0261 105.675 92.9225C105.366 91.8189 108.992 88.5081 108.992 88.5081C108.992 88.5081 108.539 84.898 108.212 84.4363C107.885 83.9747 106.674 81.4574 106.674 80.9056C106.674 80.3538 105.901 80.242 105.463 79.582C105.024 78.922 99.946 96.6913 99.946 96.6913L92.5461 98.3647L92.1364 98.4549C92.1364 98.4549 87.9279 98.6532 85.1966 97.1313C85.1966 97.1313 80.4778 96.3595 78.936 88.5225C77.7568 88.8196 76.6106 89.2352 75.5146 89.7632C74.3681 90.3222 73.2181 91.0831 72.5568 92.0533C71.4899 93.5794 70.1493 94.8928 68.6035 95.9267C68.1282 97.112 67.7238 98.3248 67.3923 99.5584C67.0653 101.001 66.7347 103.313 65.7427 104.528C64.7508 105.744 64.3052 109.383 64.3052 109.383L74.2208 118.439C74.2208 118.439 74.0015 120.758 73.4517 120.646C72.9018 120.534 73.6709 131.13 73.6709 131.13Z" fill="#464353"/>
<path opacity="0.1" d="M76.2944 90.5992L81.769 101.568C81.769 101.568 84.0451 102.997 84.8447 102.222C85.6443 101.446 88.6568 101.457 88.6568 101.457L89.0547 102.222L94.823 100.914L93.9193 99.1267L93.4953 99.2196C93.4953 99.2196 89.1402 99.4162 86.3137 97.908C86.3137 97.908 81.4305 97.1395 79.835 89.3733C78.615 89.6665 77.4288 90.0772 76.2944 90.5992Z" fill="black"/>
<path d="M76.2944 90.6026L81.769 101.566C81.769 101.566 84.0451 102.995 84.8447 102.224C85.6443 101.452 88.6568 101.459 88.6568 101.459L89.0547 102.224L94.823 100.912L93.9193 99.1254L93.4953 99.2147C93.4953 99.2147 89.1402 99.4113 86.3137 97.9032C86.3137 97.9032 81.4305 97.1385 79.835 89.3733C78.6148 89.6676 77.4286 90.0795 76.2944 90.6026Z" fill="#464353"/>
<path opacity="0.1" d="M78.4742 122.071C78.4742 122.071 89.5993 125.901 90.4248 126.385C91.2503 126.868 78.5256 123.39 78.4742 122.071ZM86.1036 127.52C86.1036 127.52 83.0062 129.033 81.8963 128.495C80.7865 127.957 86.1036 127.52 86.1036 127.52ZM95.0217 106.812C95.0217 106.812 97.717 122.832 93.733 127.52L95.0217 106.812ZM100.477 83.347C101.611 82.1497 101.662 80.3139 100.596 79.0581C100.214 78.6341 99.7124 78.3126 99.3986 77.8357C99.238 77.5033 99.0422 77.1883 98.8145 76.896C98.2447 76.3236 97.2856 76.4755 96.5031 76.2424C95.7206 76.0092 95.1905 75.444 94.61 74.9317C93.6781 74.1 92.6421 73.3877 91.5269 72.812C90.3802 72.2255 89.0857 71.7804 87.8092 71.9853C86.8103 72.1478 85.9197 72.6919 84.9424 72.9639C83.5578 73.349 81.8522 73.2712 80.9759 74.3947C80.5612 74.9282 80.4422 75.6383 80.0492 76.1929C79.4939 76.9772 78.4734 77.3446 77.8856 78.1183C77.2402 78.9909 77.3087 80.1886 77.5863 81.2308C77.7702 81.9055 78.0299 82.598 77.8676 83.2763C77.7883 83.6084 77.6116 83.9157 77.5431 84.2514C77.3628 85.1275 77.9397 85.9577 78.3256 86.7703C78.7409 87.6496 78.9456 88.6103 78.9241 89.5789C78.8971 89.7961 78.9281 90.0165 79.0143 90.2184C79.1235 90.3805 79.2739 90.5119 79.4506 90.5999L81.1093 91.6244C81.1874 91.6786 81.2756 91.717 81.369 91.7375C81.6935 91.787 81.8918 91.4231 82.0902 91.1793C82.6455 90.5293 83.702 90.5787 84.4845 90.9461C85.267 91.3135 85.9088 91.9177 86.6949 92.2674C88.5376 93.0906 90.6615 92.3593 92.6555 91.9813C93.3383 91.8849 94.0123 91.736 94.6713 91.5361C95.2924 91.2892 95.8848 90.9777 96.4382 90.607C96.9995 90.2975 97.509 89.9055 97.9491 89.4447C98.4335 88.9292 98.6217 88.2101 98.4503 87.5299C98.288 86.9611 97.7688 86.4488 97.8733 85.8164C98.0825 84.7212 99.752 84.0677 100.477 83.347Z" fill="black"/>
<path d="M100.476 83.3368C101.611 82.1398 101.662 80.305 100.595 79.0495C100.213 78.6296 99.712 78.305 99.3983 77.8321C99.2369 77.4994 99.0411 77.1838 98.8141 76.89C98.2444 76.3219 97.2852 76.4736 96.5028 76.2407C95.7203 76.0078 95.1902 75.4397 94.6097 74.9281C93.6789 74.0961 92.6427 73.3846 91.5267 72.8109C90.38 72.2252 89.0855 71.7806 87.809 71.9852C86.8102 72.1475 85.9195 72.6909 84.9423 72.9626C83.5577 73.3473 81.8521 73.2661 80.9759 74.3741C80.5612 74.9104 80.4422 75.6197 80.0492 76.1737C79.4938 76.957 78.4734 77.324 77.8856 78.0968C77.2402 78.9684 77.3087 80.1646 77.5863 81.2055C77.7702 81.8759 78.0299 82.5711 77.8676 83.2486C77.7883 83.5803 77.6116 83.8873 77.5431 84.2225C77.3628 85.0976 77.9397 85.9268 78.3255 86.7349C78.7536 87.6246 78.9646 88.5993 78.9421 89.5825C78.9151 89.8006 78.9462 90.0218 79.0323 90.2247C79.1435 90.3848 79.2934 90.5157 79.4686 90.6058L81.1273 91.6255C81.205 91.6809 81.2933 91.7205 81.3869 91.742C81.7115 91.7878 81.9098 91.4279 82.1081 91.1809C82.6634 90.5317 83.7199 90.5846 84.5024 90.948C85.2849 91.3115 85.9267 91.9184 86.7128 92.2677C88.5554 93.0899 90.6793 92.3595 92.6733 91.9854C93.3559 91.8863 94.0297 91.7365 94.689 91.5373C95.31 91.2918 95.9024 90.9819 96.4559 90.6128C97.0173 90.3024 97.5268 89.9097 97.9667 89.4484C98.4511 88.935 98.6395 88.2177 98.468 87.5394C98.3057 86.9677 97.7865 86.4561 97.891 85.828C98.0821 84.7059 99.7517 84.0531 100.476 83.3368Z" fill="#464353"/>
<path d="M63.2172 120.987C63.1604 122.471 64.4108 124.451 64.4108 124.451C64.7909 125.385 69.4657 129.728 69.4657 129.728L73.1636 132.243C73.1636 132.243 78.1119 135.322 79.2806 135.872C79.8667 136.148 80.4955 137.309 80.9821 138.444C81.4688 139.579 81.8063 140.599 81.8063 140.599C84.0101 140.272 85.7122 138.472 85.9375 136.231C86.0761 134.815 86.1684 133.543 86.0477 133.518C85.7741 133.464 82.7298 131.154 82.7298 131.154C82.7298 131.154 79.1989 128.844 78.055 126.538C76.9112 124.231 72.4567 120.711 72.4567 120.711L72.5277 120.578L72.7835 120.103L73.327 118.289L64.8015 114.441C64.8015 114.441 64.5919 115.142 64.322 116.101C63.8602 117.718 63.2492 120.064 63.2172 120.987Z" fill="#FCCBB5"/>
<path opacity="0.1" d="M64.3052 116.171C65.8631 117.843 67.529 119.39 69.2901 120.802C69.802 121.128 71.5953 120.926 72.2515 120.836L72.4989 120.342L73.0245 118.451L64.7793 114.441C64.7793 114.441 64.5628 115.164 64.3052 116.171Z" fill="black"/>
<path d="M73.2085 110.074C73.2085 110.074 77.5949 112.731 77.3763 113.892C77.1577 115.053 75.2978 119.066 75.2978 119.066L73.2085 120.809C73.2085 120.809 70.5208 121.196 69.8614 120.809C69.202 120.422 64.5433 116.55 64.3784 115.942C64.2136 115.335 64.3784 113.284 64.3784 112.843C64.3784 112.402 65.6936 110.24 65.6936 110.24L67.6145 106.812L73.2085 110.074Z" fill="#464353"/>
<path opacity="0.1" d="M86.9809 132.97L88.2833 136.357L86.0871 138.368L85.9858 138.974L81.1127 141.689L79.564 137.903L86.9809 132.97Z" fill="black"/>
<path d="M86.9809 132.97L88.2833 136.354L86.0871 138.368L85.9858 138.974L81.1127 141.689L79.564 137.903L86.9809 132.97Z" fill="#5E5A6B"/>
<g opacity="0.1">
<path opacity="0.1" d="M97.8844 84.4836C97.8085 84.2942 97.7839 84.0893 97.8129 83.8882C97.9918 82.8109 99.6488 82.1672 100.368 81.4789C100.837 81.0089 101.135 80.4049 101.216 79.7579C101.356 80.6966 101.044 81.6455 100.368 82.3359C99.7061 82.9589 98.2531 83.5509 97.8844 84.4836ZM77.6461 83.1344C77.8361 83.7181 78.0892 84.281 78.4013 84.814C78.8147 85.6704 79.0191 86.6063 78.9989 87.5503C78.9706 87.7627 79.0002 87.9786 79.0848 88.1767C79.195 88.3331 79.3438 88.4608 79.5179 88.5484L81.1641 89.5431C81.2415 89.5989 81.3307 89.6376 81.4254 89.6567C81.7439 89.7014 81.9407 89.3504 82.1411 89.1129C82.6923 88.4796 83.7445 88.5278 84.5175 88.8823C85.2905 89.2368 85.9311 89.8288 86.7113 90.173C88.5437 90.9715 90.648 90.2625 92.6271 89.8942C93.3049 89.7991 93.9738 89.653 94.6277 89.4571C95.2445 89.2184 95.8325 88.9161 96.3813 88.5553C96.9398 88.2529 97.4468 87.8698 97.8844 87.4195C98.1298 87.1448 98.3039 86.818 98.3926 86.4661C98.5331 87.1087 98.344 87.7771 97.8844 88.2627C97.4458 88.7121 96.939 89.095 96.3813 89.3986C95.8325 89.7593 95.2445 90.0617 94.6277 90.3003C93.9733 90.4946 93.3045 90.6407 92.6271 90.7374C90.6516 91.1023 88.5437 91.8147 86.7113 91.0128C85.9311 90.6686 85.2798 90.0835 84.5175 89.7255C83.7552 89.3676 82.6923 89.3194 82.1411 89.9527C81.9336 90.1936 81.7367 90.5447 81.4254 90.4999C81.3312 90.4794 81.2423 90.4408 81.1641 90.3864L79.5179 89.3917C79.3453 89.302 79.197 89.1747 79.0848 89.02C79.0005 88.8218 78.9709 88.606 78.9989 88.3935C79.0191 87.4496 78.8147 86.5136 78.4013 85.6573C78.0183 84.8691 77.4457 84.0603 77.6246 83.2067C77.6301 83.1822 77.6373 83.158 77.6461 83.1344ZM77.6712 79.4206C77.8465 80.0608 78.0971 80.7251 77.9575 81.3722C77.8931 81.0005 77.7714 80.6287 77.6712 80.2639C77.4998 79.6849 77.4392 79.0808 77.4922 78.481C77.5242 78.7985 77.5841 79.1128 77.6712 79.4206Z" fill="black"/>
</g>
<path opacity="0.1" d="M7.62943 55.5858C11.843 55.5858 15.2589 52.17 15.2589 47.9564C15.2589 43.7428 11.843 40.327 7.62943 40.327C3.41581 40.327 0 43.7428 0 47.9564C0 52.17 3.41581 55.5858 7.62943 55.5858Z" fill="#C0BCCF"/>
<path opacity="0.1" d="M217.983 22.8883C222.197 22.8883 225.613 19.4725 225.613 15.2589C225.613 11.0453 222.197 7.62946 217.983 7.62946C213.77 7.62946 210.354 11.0453 210.354 15.2589C210.354 19.4725 213.77 22.8883 217.983 22.8883Z" fill="#C0BCCF"/>
<path opacity="0.1" d="M342.234 53.406C346.448 53.406 349.864 49.9902 349.864 45.7766C349.864 41.563 346.448 38.1472 342.234 38.1472C338.021 38.1472 334.605 41.563 334.605 45.7766C334.605 49.9902 338.021 53.406 342.234 53.406Z" fill="#C0BCCF"/>
<path opacity="0.1" d="M22.8881 103.542C30.1114 103.542 35.9671 97.6866 35.9671 90.4632C35.9671 83.2399 30.1114 77.3842 22.8881 77.3842C15.6648 77.3842 9.80908 83.2399 9.80908 90.4632C9.80908 97.6866 15.6648 103.542 22.8881 103.542Z" fill="#C0BCCF"/>
<path opacity="0.1" d="M182.017 296.458C189.24 296.458 195.096 290.602 195.096 283.379C195.096 276.155 189.24 270.3 182.017 270.3C174.793 270.3 168.938 276.155 168.938 283.379C168.938 290.602 174.793 296.458 182.017 296.458Z" fill="#C0BCCF"/>
<path opacity="0.1" d="M355.313 289.918C362.537 289.918 368.392 284.063 368.392 276.839C368.392 269.616 362.537 263.76 355.313 263.76C348.09 263.76 342.234 269.616 342.234 276.839C342.234 284.063 348.09 289.918 355.313 289.918Z" fill="#C0BCCF"/>
<defs>
<linearGradient id="paint0_linear" x1="96.4559" y1="203.828" x2="96.4559" y2="69.7494" gradientUnits="userSpaceOnUse">
<stop stop-color="#808080" stop-opacity="0.25"/>
<stop offset="0.54" stop-color="#808080" stop-opacity="0.12"/>
<stop offset="1" stop-color="#808080" stop-opacity="0.1"/>
</linearGradient>
</defs>
</svg>
