<svg width="579" height="417" viewBox="0 0 579 417" fill="none" xmlns="http://www.w3.org/2000/svg">
<path d="M393.678 170.399C322.593 127.543 289.008 -4.52729 179.395 74.385C69.782 153.297 115.111 315.241 220.191 354.392C325.271 393.543 460.639 371.49 498.55 298.762C563.861 174.314 441.27 199.244 393.678 170.399Z" fill="#757677"/>
<path d="M105.427 323.074C105.427 323.074 166.002 262.292 267.167 291.137C368.332 319.983 427.878 295.258 415.309 142.378C415.309 142.378 557.477 162.157 539.345 263.323C517.298 386.121 231.728 432.893 105.427 323.074Z" fill="#4E4D4F" fill-opacity="0.57"/>
<path d="M290.244 115.386L289.21 112.708L288.176 115.386C287.718 116.609 287.004 117.719 286.081 118.642C285.158 119.566 284.049 120.281 282.827 120.74C284.032 121.229 285.128 121.956 286.048 122.876C286.968 123.796 287.694 124.891 288.183 126.097L289.217 128.775L290.251 126.097C290.709 124.873 291.425 123.762 292.349 122.838C293.273 121.914 294.384 121.198 295.608 120.74C294.383 120.283 293.271 119.568 292.345 118.645C291.42 117.721 290.703 116.61 290.244 115.386Z" fill="white"/>
<path d="M203.502 272.594L202.468 269.916L201.434 272.594C200.976 273.816 200.262 274.927 199.339 275.85C198.416 276.773 197.307 277.489 196.084 277.947C197.29 278.437 198.385 279.163 199.305 280.083C200.226 281.003 200.952 282.099 201.441 283.304L202.475 285.983L203.509 283.304C203.967 282.08 204.683 280.969 205.607 280.045C206.531 279.121 207.642 278.406 208.866 277.947C207.659 277.459 206.563 276.734 205.641 275.814C204.72 274.895 203.992 273.8 203.502 272.594Z" fill="white"/>
<path d="M379.734 340.855L379.116 339L378.499 340.855C377.841 342.438 376.583 343.696 375 344.354C376.541 345.072 377.781 346.311 378.499 347.853L379.116 349.707L379.734 347.853C380.392 346.269 381.65 345.011 383.233 344.354C382.431 344.059 381.703 343.594 381.098 342.99C380.494 342.385 380.029 341.657 379.734 340.855Z" fill="white"/>
<path d="M161.676 164.63L161.058 162.775L160.436 164.63C159.778 166.213 158.52 167.471 156.937 168.129C158.479 168.847 159.718 170.086 160.436 171.628L161.054 173.482L161.672 171.628C162.33 170.045 163.588 168.786 165.171 168.129C164.335 167.899 163.573 167.455 162.96 166.842C162.348 166.228 161.905 165.466 161.676 164.63Z" fill="white"/>
<path d="M157 202.455V269.365C157.004 270.74 156.821 272.102 156.462 273.373C156.103 274.644 155.576 275.799 154.909 276.771C154.242 277.743 153.451 278.513 152.579 279.036C151.707 279.559 150.773 279.826 149.831 279.82H52.1693C51.2267 279.826 50.2927 279.559 49.4211 279.036C48.5495 278.513 47.7575 277.743 47.091 276.771C46.4245 275.799 45.8966 274.644 45.5377 273.373C45.1788 272.102 44.9961 270.74 45.0001 269.365V202.455C44.9961 201.08 45.1788 199.718 45.5377 198.447C45.8966 197.176 46.4245 196.021 47.091 195.049C47.7575 194.077 48.5495 193.307 49.4211 192.784C50.2927 192.261 51.2267 191.994 52.1693 192H149.831C150.773 191.994 151.707 192.261 152.579 192.784C153.451 193.307 154.242 194.077 154.909 195.049C155.576 196.021 156.103 197.176 156.462 198.447C156.821 199.718 157.004 201.08 157 202.455Z" fill="#9C9CA1"/>
<path d="M157 202.455V208.263H45.0001V202.455C44.9961 201.08 45.1788 199.718 45.5377 198.447C45.8966 197.176 46.4245 196.021 47.091 195.049C47.7575 194.077 48.5495 193.307 49.4211 192.784C50.2927 192.261 51.2267 191.994 52.1693 192H149.831C150.773 191.994 151.707 192.261 152.579 192.784C153.451 193.307 154.242 194.077 154.909 195.049C155.576 196.021 156.103 197.176 156.462 198.447C156.821 199.718 157.004 201.08 157 202.455Z" fill="#2D4AFB"/>
<path d="M51.3732 203.152C52.1652 203.152 52.8072 202.216 52.8072 201.061C52.8072 199.906 52.1652 198.97 51.3732 198.97C50.5812 198.97 49.9392 199.906 49.9392 201.061C49.9392 202.216 50.5812 203.152 51.3732 203.152Z" fill="white"/>
<path d="M58.8611 201.061C58.8611 201.474 58.777 201.878 58.6195 202.222C58.4619 202.566 58.2379 202.834 57.9759 202.992C57.7139 203.151 57.4256 203.192 57.1474 203.111C56.8692 203.031 56.6137 202.832 56.4132 202.539C56.2126 202.247 56.076 201.874 56.0207 201.468C55.9654 201.063 55.9938 200.642 56.1023 200.26C56.2109 199.878 56.3947 199.552 56.6305 199.322C56.8663 199.092 57.1435 198.969 57.4271 198.969C58.2235 198.737 58.8611 199.665 58.8611 201.061Z" fill="white"/>
<path d="M64.7559 201.061C64.7559 201.475 64.6718 201.879 64.5142 202.223C64.3567 202.567 64.1327 202.835 63.8707 202.993C63.6087 203.152 63.3203 203.193 63.0422 203.112C62.764 203.032 62.5085 202.832 62.3079 202.54C62.1074 202.248 61.9708 201.875 61.9155 201.469C61.8602 201.064 61.8886 200.643 61.9971 200.261C62.1056 199.879 62.2894 199.552 62.5252 199.323C62.7611 199.093 63.0383 198.97 63.3219 198.97C63.5139 198.949 63.7068 198.989 63.8873 199.086C64.0679 199.184 64.2318 199.337 64.368 199.536C64.5041 199.735 64.6093 199.974 64.6762 200.237C64.7432 200.5 64.7704 200.781 64.7559 201.061Z" fill="white"/>
<path d="M82.7561 248.456H60.2951C60.127 248.46 59.9602 248.414 59.8045 248.322C59.6487 248.23 59.5072 248.093 59.3884 247.92C59.2695 247.746 59.1757 247.54 59.1125 247.313C59.0493 247.086 59.018 246.843 59.0204 246.598V219.875C59.0184 219.631 59.05 219.388 59.1134 219.161C59.1768 218.935 59.2707 218.729 59.3895 218.556C59.5083 218.383 59.6497 218.247 59.8052 218.155C59.9607 218.063 60.1273 218.018 60.2951 218.021H82.7561C82.9241 218.017 83.091 218.063 83.2467 218.155C83.4025 218.248 83.5439 218.384 83.6628 218.558C83.7816 218.731 83.8755 218.937 83.9387 219.164C84.0019 219.392 84.0332 219.635 84.0308 219.88V246.365C84.0398 246.885 83.9131 247.389 83.6765 247.778C83.4398 248.166 83.1108 248.409 82.7561 248.456Z" fill="white"/>
<path d="M141.546 262.628H58.8603C58.4382 262.626 58.0338 262.381 57.7354 261.945C57.4369 261.51 57.2685 260.92 57.2671 260.305C57.2685 259.689 57.4369 259.099 57.7354 258.664C58.0338 258.229 58.4382 257.983 58.8603 257.981H141.546C141.968 257.983 142.372 258.229 142.671 258.664C142.969 259.099 143.138 259.689 143.139 260.305C143.138 260.92 142.969 261.51 142.671 261.945C142.372 262.381 141.968 262.626 141.546 262.628Z" fill="white"/>
<path d="M141.544 245.203H91.3618C90.9397 245.201 90.5353 244.956 90.2368 244.52C89.9383 244.085 89.77 243.495 89.7686 242.88C89.77 242.264 89.9383 241.674 90.2368 241.239C90.5353 240.804 90.9397 240.558 91.3618 240.556H141.544C141.966 240.558 142.371 240.804 142.669 241.239C142.968 241.674 143.136 242.264 143.138 242.88C143.136 243.495 142.968 244.085 142.669 244.52C142.371 244.956 141.966 245.201 141.544 245.203Z" fill="white"/>
<path d="M122.428 228.94H91.3618C90.9397 228.938 90.5353 228.693 90.2368 228.257C89.9383 227.822 89.77 227.232 89.7686 226.617C89.77 226.001 89.9383 225.412 90.2368 224.976C90.5353 224.541 90.9397 224.296 91.3618 224.293H122.428C122.85 224.297 123.254 224.542 123.552 224.978C123.85 225.413 124.018 226.002 124.019 226.617C124.018 227.232 123.85 227.821 123.552 228.256C123.254 228.691 122.85 228.937 122.428 228.94Z" fill="white"/>
<path d="M311.822 27.818C311.822 27.818 316.561 22.4612 319.24 19.9888C324.39 15.6619 330.16 7.83268 349.115 13.6014C350.591 14.0604 352.036 14.611 353.442 15.2499C355.091 15.8679 360.242 15.8679 365.392 11.7509C373.84 5.15429 376.931 0.209449 388.469 0.00188997C401.862 -0.204079 403.922 16.485 414.224 20.6059C420.817 23.2843 438.124 25.9627 441.833 27.1993L311.822 27.818Z" fill="#E8E9F9"/>
<path d="M0 398.334C0 398.334 4.73888 392.978 7.41727 390.505C12.5681 386.178 18.3376 378.349 37.2931 384.118C38.7683 384.577 40.2134 385.127 41.62 385.766C43.2686 386.384 48.4194 386.384 53.5702 382.267C62.0181 375.671 65.1085 370.726 76.6467 370.518C90.0394 370.312 92.0999 387.001 102.402 391.122C108.995 393.801 126.302 396.479 130.011 397.716L0 398.334Z" fill="#E8E9F9"/>
<path d="M509 416.872C509 416.872 511.534 414.009 512.967 412.685C515.721 410.372 518.806 406.185 528.942 409.27C529.731 409.515 530.504 409.809 531.256 410.151C532.137 410.482 534.892 410.482 537.646 408.278C542.162 404.756 543.816 402.112 549.985 402.001C557.147 401.89 558.249 410.815 563.757 413.018C567.283 414.45 576.538 415.881 578.521 416.544L509 416.872Z" fill="#EAEBFB"/>
<path d="M164.711 55H98.7895C93.9352 55 90 57.9582 90 61.6073V67.7427C90 71.3918 93.9352 74.35 98.7895 74.35H164.711C169.565 74.35 173.5 71.3918 173.5 67.7427V61.6073C173.5 57.9582 169.565 55 164.711 55Z" fill="#62BD23"/>
<path d="M90 64.9109H173.5V106.443C173.5 108.195 172.574 109.876 170.926 111.115C169.277 112.354 167.042 113.05 164.711 113.05H98.7895C96.4584 113.05 94.2227 112.354 92.5744 111.115C90.926 109.876 90 108.195 90 106.443V64.9109Z" fill="#9C9CA1"/>
<path d="M96.6008 61.7541C97.4094 61.7541 98.0648 61.2613 98.0648 60.6535C98.0648 60.0456 97.4094 59.5529 96.6008 59.5529C95.7922 59.5529 95.1367 60.0456 95.1367 60.6535C95.1367 61.2613 95.7922 61.7541 96.6008 61.7541Z" fill="white"/>
<path d="M104.246 60.653C104.246 60.8707 104.16 61.0835 103.999 61.2645C103.838 61.4455 103.61 61.5865 103.342 61.6698C103.075 61.7531 102.78 61.7749 102.496 61.7325C102.212 61.69 101.951 61.5852 101.747 61.4313C101.542 61.2773 101.402 61.0812 101.346 60.8677C101.29 60.6542 101.319 60.4329 101.429 60.2318C101.54 60.0307 101.728 59.8588 101.969 59.7379C102.209 59.617 102.492 59.5524 102.782 59.5524C103.595 59.4302 104.246 59.9187 104.246 60.653Z" fill="white"/>
<path d="M110.265 60.6535C110.265 60.8712 110.179 61.0839 110.018 61.2649C109.858 61.4459 109.629 61.587 109.361 61.6703C109.094 61.7536 108.799 61.7754 108.515 61.7329C108.231 61.6905 107.971 61.5856 107.766 61.4317C107.561 61.2778 107.422 61.0817 107.365 60.8682C107.309 60.6547 107.338 60.4334 107.448 60.2323C107.559 60.0312 107.747 59.8593 107.988 59.7384C108.228 59.6174 108.511 59.5529 108.801 59.5529C108.997 59.5418 109.194 59.5627 109.378 59.6141C109.563 59.6654 109.73 59.7461 109.869 59.8506C110.008 59.9551 110.115 60.081 110.184 60.2195C110.252 60.3581 110.28 60.5061 110.265 60.6535Z" fill="white"/>
<path d="M123.355 87.6553H103.232C103.082 87.6568 102.932 87.6357 102.793 87.5932C102.654 87.5506 102.527 87.4875 102.421 87.4075C102.314 87.3275 102.23 87.2323 102.174 87.1275C102.117 87.0226 102.089 86.9104 102.091 86.7972V74.46C102.089 74.3468 102.117 74.2346 102.174 74.1297C102.23 74.0249 102.314 73.9297 102.421 73.8497C102.527 73.7697 102.654 73.7066 102.793 73.664C102.932 73.6215 103.082 73.6004 103.232 73.602H123.354C123.504 73.6004 123.654 73.6215 123.793 73.664C123.933 73.7066 124.059 73.7697 124.166 73.8497C124.272 73.9297 124.356 74.0249 124.413 74.1297C124.469 74.2346 124.497 74.3468 124.495 74.46V86.6896C124.504 86.9294 124.391 87.1627 124.179 87.3421C123.967 87.5214 123.672 87.6334 123.355 87.6553Z" fill="white"/>
<path d="M161.055 94.499H101.666C101.094 94.499 100.521 94.0101 100.521 93.2762C100.521 92.6626 100.979 92.0533 101.666 92.0533H161.058C161.63 92.0533 162.202 92.5423 162.202 93.2762C162.199 94.0096 161.627 94.499 161.055 94.499Z" fill="white"/>
<path d="M161.055 102.522H101.666C101.094 102.522 100.521 102.033 100.521 101.299C100.521 100.686 100.979 100.077 101.666 100.077H161.058C161.63 100.077 162.202 100.565 162.202 101.299C162.199 102.033 161.627 102.522 161.055 102.522Z" fill="white"/>
<g opacity="0.5">
<path d="M158.89 78.6438H131.061C130.683 78.6432 130.32 78.5299 130.053 78.3289C129.785 78.1279 129.635 77.8554 129.634 77.571C129.635 77.2867 129.785 77.0142 130.053 76.8132C130.32 76.6121 130.683 76.4989 131.061 76.4983H158.89C159.268 76.4989 159.631 76.6121 159.898 76.8132C160.166 77.0142 160.316 77.2867 160.317 77.571C160.316 77.8554 160.166 78.1279 159.898 78.3289C159.631 78.5299 159.268 78.6432 158.89 78.6438Z" fill="white"/>
</g>
<path d="M151.453 85.2686H130.701C130.169 85.2686 129.634 84.8396 129.634 84.1959C129.634 83.6592 130.059 83.1231 130.701 83.1231H151.453C151.985 83.1231 152.52 83.5521 152.52 84.1959C152.518 84.7325 152.092 85.2686 151.453 85.2686Z" fill="white"/>
<path d="M419.752 158H261.248C253.379 158 247 164.225 247 171.905V215.357C247 223.036 253.379 229.261 261.248 229.261H419.752C427.621 229.261 434 223.036 434 215.357V171.905C434 164.225 427.621 158 419.752 158Z" fill="#F08F33"/>
<path d="M247 184.071H434V272.713C434 275.94 432.687 279.035 430.349 281.317C428.011 283.598 424.84 284.88 421.533 284.88H259.467C256.16 284.88 252.989 283.598 250.651 281.317C248.313 279.035 247 275.94 247 272.713V184.071Z" fill="#9C9CA1"/>
<path d="M265.493 175.554C267.581 175.554 269.274 173.902 269.274 171.864C269.274 169.827 267.581 168.174 265.493 168.174C263.405 168.174 261.712 169.827 261.712 171.864C261.712 173.902 263.405 175.554 265.493 175.554Z" fill="white"/>
<path d="M285.241 171.865C285.241 172.594 285.019 173.308 284.604 173.915C284.188 174.521 283.598 174.994 282.907 175.274C282.216 175.553 281.456 175.626 280.722 175.484C279.989 175.341 279.315 174.99 278.787 174.474C278.258 173.958 277.898 173.3 277.752 172.584C277.606 171.869 277.681 171.127 277.967 170.453C278.253 169.778 278.738 169.202 279.359 168.797C279.981 168.391 280.712 168.175 281.46 168.175C283.556 167.764 285.241 169.405 285.241 171.865Z" fill="white"/>
<path d="M300.786 171.865C300.786 172.594 300.565 173.308 300.149 173.915C299.734 174.521 299.143 174.994 298.452 175.274C297.762 175.553 297.001 175.626 296.268 175.484C295.534 175.341 294.861 174.99 294.332 174.474C293.803 173.958 293.443 173.3 293.297 172.584C293.151 171.869 293.226 171.127 293.512 170.452C293.799 169.778 294.283 169.202 294.905 168.796C295.527 168.391 296.258 168.175 297.006 168.175C297.512 168.137 298.02 168.207 298.496 168.38C298.972 168.552 299.405 168.823 299.764 169.173C300.123 169.523 300.4 169.945 300.576 170.41C300.753 170.874 300.825 171.37 300.786 171.865Z" fill="white"/>
<path d="M303.782 203.706H270.517C269.534 203.706 268.736 204.485 268.736 205.444V256.994C268.736 257.954 269.534 258.732 270.517 258.732H303.782C304.765 258.732 305.563 257.954 305.563 256.994V205.444C305.563 204.485 304.765 203.706 303.782 203.706Z" fill="#F4F6FA"/>
<path d="M410.343 205.269H319.213C317.444 205.269 316.011 206.668 316.011 208.394C316.011 210.12 317.444 211.519 319.213 211.519H410.343C412.111 211.519 413.545 210.12 413.545 208.394C413.545 206.668 412.111 205.269 410.343 205.269Z" fill="#F4F6FA"/>
<path d="M400.873 220.114H319.213C317.444 220.114 316.011 221.513 316.011 223.239C316.011 224.965 317.444 226.364 319.213 226.364H400.873C402.642 226.364 404.075 224.965 404.075 223.239C404.075 221.513 402.642 220.114 400.873 220.114Z" fill="#F4F6FA"/>
<path d="M403.137 234.959H319.213C317.444 234.959 316.011 236.358 316.011 238.084C316.011 239.81 317.444 241.209 319.213 241.209H403.137C404.905 241.209 406.339 239.81 406.339 238.084C406.339 236.358 404.905 234.959 403.137 234.959Z" fill="#F4F6FA"/>
<path d="M381.659 249.804H319.213C317.444 249.804 316.011 251.203 316.011 252.929C316.011 254.655 317.444 256.054 319.213 256.054H381.659C383.427 256.054 384.861 254.655 384.861 252.929C384.861 251.203 383.427 249.804 381.659 249.804Z" fill="#F4F6FA"/>
</svg>
