<svg width="120" height="120" viewBox="0 0 120 120" fill="none" xmlns="http://www.w3.org/2000/svg">
<circle cx="60" cy="60" r="60" fill="#2B2A2A"/>
<path d="M60 0C26.9163 0 0 26.9163 0 60C0 93.0837 26.9163 120 60 120C93.0837 120 120 93.0837 120 60C120 26.9163 93.0837 0 60 0ZM45.5135 33.6981C49.1683 29.824 54.3115 27.6923 60 27.6923C65.6885 27.6923 70.7856 29.8385 74.4548 33.7327C78.1731 37.6788 79.9817 42.9808 79.5548 48.6808C78.701 60 69.9317 69.2308 60 69.2308C50.0683 69.2308 41.2817 60 40.4452 48.6779C40.0212 42.9317 41.8269 37.6125 45.5135 33.6981ZM60 110.769C53.2225 110.774 46.5131 109.417 40.2697 106.78C34.0263 104.143 28.376 100.279 23.6538 95.4173C26.3583 91.5605 29.8043 88.2812 33.7904 85.7712C41.1433 81.0577 50.449 78.4615 60 78.4615C69.551 78.4615 78.8567 81.0577 86.201 85.7712C90.1904 88.2801 93.6394 91.5594 96.3462 95.4173C91.6244 100.28 85.9742 104.144 79.7307 106.781C73.4872 109.418 66.7776 110.774 60 110.769Z" fill="#858585"/>
</svg>
