<svg width="400" height="212" viewBox="0 0 400 212" fill="none" xmlns="http://www.w3.org/2000/svg">
<path opacity="0.1" d="M16.9611 28.9679C17.6092 33.0729 19.2654 37.0377 19.2798 41.1894C19.3338 54.7552 2.8477 63.0874 0.32384 76.4159C-1.17391 84.3239 2.70728 92.4045 8.17984 98.3031C13.6524 104.202 20.6299 108.454 27.0566 113.307C44.838 126.758 58.544 144.859 66.657 165.607C68.2808 169.777 69.6777 174.076 70.1385 178.526C70.4734 181.761 70.315 185.072 71.0746 188.231C74.0809 200.773 89.3249 205.64 102.214 206.452C122.973 207.739 143.753 204.274 162.967 196.323C167.287 194.525 171.748 192.484 176.385 192.991C180.094 193.397 183.402 195.399 186.657 197.221C196.242 202.592 206.443 206.785 217.037 209.709C222.906 211.326 229.066 212.556 235.061 211.506C253.062 208.336 262.629 186.538 280.292 181.772C292.512 178.476 305.228 184.234 316.188 190.557C327.147 196.88 338.459 204.162 351.111 204.18C367.99 204.202 381.865 191.449 393.315 179.069C395.716 176.47 398.157 173.753 399.302 170.406C401.624 163.612 397.862 155.981 392.299 151.416C386.737 146.851 379.723 144.586 373.023 141.977C361.666 137.553 350.828 131.903 340.702 125.126C334.15 120.74 327.802 115.78 323.32 109.31C319.464 103.731 317.149 97.2643 314.564 90.9954C308.897 77.2678 300.882 63.3174 287.5 56.876C276.573 51.6136 263.881 52.2031 251.752 52.0629C233.88 51.8652 215.554 49.7192 199.709 41.4662C186.326 34.4963 175.334 23.4934 161.753 16.9046C140.151 6.43373 115.456 8.48622 92.18 8.88162C80.9936 9.07213 67.6975 10.1864 56.954 6.52719C49.008 3.8205 44.918 -1.7115 35.791 0.517113C23.3086 3.5545 14.9665 16.3044 16.9611 28.9679Z" fill="#C0BCCF"/>
<path d="M346.814 127.716C346.249 125.839 346.308 123.828 346.983 121.987C348.062 119.184 350.691 117.161 351.615 114.296C353.334 108.975 348.702 103.993 345.861 99.1708C343.254 94.6963 342.073 89.5279 342.476 84.3597C342.918 78.811 345.181 73.5043 345.353 67.9411C345.508 62.7572 343.836 57.7143 342.185 52.8013C340.822 48.7409 339.433 44.6336 337.128 41.0284C332.768 34.2117 325.025 29.9273 317.062 29.2193C313.303 28.8833 309.627 30.1115 305.934 29.6311C300.805 28.9664 295.956 27.6298 290.727 27.4636C285.76 27.3155 280.267 27.9477 276.883 31.6035C274.297 34.4031 273.47 38.4455 271.103 41.4366C267.744 45.6812 261.87 47.137 258.155 51.0674C254.889 54.6014 253.723 59.6045 255.087 64.2275C255.601 65.9037 256.443 67.4607 256.99 69.126C259.288 76.0836 256.27 83.5252 254.447 90.6201C254.241 91.1998 254.204 91.8261 254.339 92.4263C254.627 93.2933 255.533 93.7485 256.285 94.2614C258.745 95.9448 260 98.9938 260.241 101.974C260.482 104.954 259.795 107.924 259.119 110.835C257.396 118.237 255.242 126.167 249.562 131.09C248.531 128.62 247.312 126.234 245.915 123.952C242.441 118.295 239.869 111.309 239.826 104.622C239.824 104.602 239.824 104.581 239.826 104.561C239.826 104.199 239.844 103.838 239.866 103.477C240.315 95.5872 243.711 87.9758 243.635 80.1223C243.635 79.4865 243.617 78.8495 243.581 78.2113C243.139 71.4885 239.923 65.2715 236.237 59.6433C233.485 55.442 230.385 51.3853 226.414 48.3255C220.275 43.6329 212.473 41.5955 204.809 40.519C197.144 39.4425 190.17 38.431 182.444 37.9108C174.136 37.3509 164.993 37.0366 158.426 42.1735C149.862 48.871 149.387 61.8072 142.859 70.5132C138.975 75.6934 132.788 79.696 130.742 85.5807C130.188 84.1366 129.727 82.6586 129.361 81.1555C129.339 81.0543 129.318 80.9568 129.296 80.8556C131.764 73.7551 132.338 66.1292 130.961 58.7366C131.124 57.5393 131.207 56.3325 131.209 55.1241C131.25 53.8092 131.108 52.495 130.789 51.2191C129.864 47.7006 127.314 44.8865 124.851 42.2169C123.954 41.1977 122.98 40.2496 121.937 39.3811C108.621 23.1766 85.5761 19.0481 67.5027 29.6291C49.4292 40.2101 41.6494 62.3843 49.1256 82.008C48.8091 84.4717 47.8596 86.8667 46.1152 88.6043C45.3203 89.3955 44.2916 90.3853 44.4643 91.3968C44.4107 91.6848 44.4511 91.9825 44.5794 92.2457C44.7561 92.5609 45.0021 92.8315 45.2987 93.0368C47.8149 94.9682 50.9486 95.9063 54.107 95.6739C56.7722 103.541 61.9971 110.278 68.9398 114.798C68.9398 115.039 68.9314 115.273 68.9146 115.499C68.9146 115.9 68.8823 116.297 68.8643 116.702C68.8643 116.792 68.8643 116.883 68.8643 116.973C68.8643 116.94 68.8643 116.904 68.8643 116.868C68.8643 116.832 56.3406 133.265 44.7664 133.876C38.5873 134.201 33.1958 138.388 29.11 143.174C24.2041 148.918 21.1756 155.521 20.9167 157.349C20.4383 160.702 17.1006 176.994 17.1006 176.994H113.255C112.118 182.86 110.586 190.335 110.586 190.335H266.248C265.888 185.31 265.489 180.664 265.118 176.73H284.688L284.666 176.849H374.943L380.669 168.219C379.249 143.073 364.481 129.248 346.814 127.716ZM122.056 99.6259C124.087 100.723 126.269 101.512 128.53 101.967C129.512 102.169 130.609 102.296 131.447 101.743C132.002 101.321 132.413 100.737 132.623 100.07L132.666 100.179C135.094 106.32 137.342 112.656 137.777 119.252C137.817 119.874 137.842 120.495 137.845 121.12C137.855 124.883 137.082 128.606 135.576 132.051C127.444 127.756 119.602 122.929 112.1 117.601L111.593 117.385C111.593 117.424 111.769 117.876 111.978 118.638C112.028 118.822 112.082 119.025 112.136 119.242C111.622 117.573 111.154 115.868 110.744 114.13C110.697 113.924 110.651 113.718 110.604 113.512C115.502 109.902 119.436 105.132 122.056 99.6259Z" fill="url(#paint0_linear)"/>
<path d="M289.786 29.0159C284.894 28.8681 279.48 29.4915 276.15 33.0806C273.601 35.8265 272.788 39.7976 270.455 42.7344C267.147 46.9037 261.362 48.3307 257.697 52.19C254.479 55.66 253.329 60.5725 254.673 65.1122C255.181 66.7554 256.009 68.2869 256.549 69.9193C258.813 76.7659 255.857 84.0558 254.029 91.0214C253.825 91.5926 253.788 92.2103 253.924 92.8015C254.205 93.6519 255.101 94.0988 255.839 94.6033C258.262 96.2573 259.5 99.2482 259.72 102.171C259.94 105.093 259.281 108.012 258.615 110.869C256.847 118.437 254.615 126.584 248.478 131.352C245.886 133.388 242.423 135.038 241.746 138.281C240.954 142.079 244.575 145.308 248.049 147.027C258.248 152.072 270.088 152.144 281.244 154.393C291.068 156.375 300.866 160.129 310.809 158.847C315.241 158.277 319.478 156.717 323.672 155.171L349.785 145.539C350.523 145.313 351.217 144.963 351.837 144.505C353.41 143.193 353.464 140.699 352.607 138.836C351.751 136.973 350.195 135.546 348.827 134.018C345.847 130.678 343.579 125.961 345.206 121.788C346.286 119.035 348.86 117.049 349.771 114.221C351.463 108.996 346.891 104.102 344.119 99.3671C341.555 94.9785 340.391 89.9102 340.785 84.8414C341.221 79.3929 343.449 74.1822 343.611 68.7193C343.762 63.6311 342.117 58.6799 340.49 53.8548C339.147 49.8694 337.779 45.837 335.508 42.2948C331.213 35.6031 323.585 31.3978 315.737 30.6987C312.033 30.3708 308.415 31.5744 304.776 31.1059C299.718 30.4825 294.937 29.1708 289.786 29.0159Z" fill="#BB9484"/>
<path d="M298.165 171.747C298.165 171.747 268.199 153.147 279.852 131.705C282.548 126.748 283.739 122.058 283.984 117.776C284.048 116.648 284.048 115.517 283.984 114.389C283.984 114.335 283.984 114.281 283.984 114.227C283.945 113.645 283.892 113.072 283.827 112.51C282.439 101.189 275.093 93.8122 275.093 93.8122C275.093 93.8122 324.797 79.451 316.475 92.3981C312.613 98.408 313.768 104.303 316.355 110.403C316.628 111.045 316.92 111.694 317.222 112.34C320.21 118.772 324.356 125.435 325.515 132.661C327.891 147.494 298.165 171.747 298.165 171.747Z" fill="#FFECE3"/>
<path opacity="0.1" d="M315.803 92.3116C312.004 98.2238 313.14 104.022 315.685 110.023C306.095 116.145 293.993 116.933 283.674 112.11C282.319 100.96 275.093 93.7027 275.093 93.7027C275.093 93.7027 323.994 79.5717 315.803 92.3116Z" fill="black"/>
<path d="M297.398 115.985C315.876 115.985 330.855 101.006 330.855 82.5279C330.855 64.05 315.876 49.0706 297.398 49.0706C278.92 49.0706 263.94 64.05 263.94 82.5279C263.94 101.006 278.92 115.985 297.398 115.985Z" fill="#FFECE3"/>
<path opacity="0.1" d="M283.272 113.989C283.272 113.933 283.272 113.877 283.272 113.822L283.312 113.755C283.29 113.836 283.275 113.914 283.272 113.989ZM297.185 171.747C297.185 171.747 267.789 153.129 279.22 131.666C281.865 126.704 283.034 122.01 283.273 117.724C283.942 123.025 287.563 129.615 294.154 138.736C297.014 142.708 298.243 148.262 298.633 153.812L299.287 154.292L302.504 152.328C302.861 146.189 304.091 139.985 307.001 135.587C314.646 124.032 316.462 118.255 315.898 112.268C318.829 118.706 322.896 125.375 324.033 132.608C326.346 147.471 297.185 171.747 297.185 171.747Z" fill="black"/>
<path d="M345.271 127.241C327.593 125.959 316.41 112.268 316.41 112.268C317.351 118.682 315.822 124.423 307.578 136.743C304.66 141.113 303.422 147.286 303.062 153.419L299.815 155.377L299.155 154.898C298.761 149.37 297.524 143.827 294.634 139.871C286.394 128.594 282.729 121.194 283.685 115.32C283.685 115.32 274.619 130.002 256.96 131.179C239.301 132.356 224.466 144.806 223.048 167.593L228.698 175.346H284.425L373.511 175.465L379.182 166.995C377.764 142.117 362.948 128.522 345.271 127.241Z" fill="#E3E829"/>
<path opacity="0.1" d="M320.634 65.8613C319.193 69.4323 316.634 72.4479 313.837 75.0955C309.973 78.7567 305.115 81.9815 299.803 81.7326C302.699 79.0323 304.795 75.585 305.861 71.7697C302.509 73.7248 299.976 76.8197 296.775 79.0237C293.575 81.2276 289.051 82.3638 285.923 80.0625C291.605 77.2035 296.325 72.7403 299.5 67.2248C291.902 69.1979 288.003 77.7612 281.158 81.6064C277.951 83.4099 274.199 84.0881 270.522 84.0087C267.909 83.9546 264.997 83.345 263.541 81.1735C262.691 79.911 262.492 78.3239 262.46 76.7981C262.301 69.8796 265.116 63.091 269.452 57.7056C273.788 52.3202 279.544 48.2261 285.7 45.0482C287.891 43.9156 290.176 42.884 292.616 42.5233C295.651 42.0832 298.743 42.7289 301.72 43.4142C305.591 44.3016 309.483 45.2755 313.048 47.0213C320.656 50.7908 323.979 57.6226 320.634 65.8613Z" fill="black"/>
<path d="M320.634 65.8613C319.193 69.4323 316.634 72.4479 313.837 75.0955C309.973 78.7567 305.115 81.9815 299.803 81.7326C302.699 79.0323 304.795 75.585 305.861 71.7697C302.509 73.7248 299.976 76.8197 296.775 79.0237C293.575 81.2276 289.051 82.3638 285.923 80.0625C291.605 77.2035 296.325 72.7403 299.5 67.2248C291.902 69.1979 288.003 77.7612 281.158 81.6064C277.951 83.4099 274.199 84.0881 270.522 84.0087C267.909 83.9546 264.997 83.345 263.541 81.1735C262.691 79.911 262.492 78.3239 262.46 76.7981C262.301 69.8796 265.116 63.091 269.452 57.7056C273.788 52.3202 279.544 48.2261 285.7 45.0482C287.891 43.9156 290.176 42.884 292.616 42.5233C295.651 42.0832 298.743 42.7289 301.72 43.4142C305.591 44.3016 309.483 45.2755 313.048 47.0213C320.656 50.7836 323.979 57.6226 320.634 65.8613Z" fill="#BB9484"/>
<path d="M91.0782 108.55C114.278 108.55 133.086 89.7428 133.086 66.5428C133.086 43.3427 114.278 24.5353 91.0782 24.5353C67.8782 24.5353 49.0708 43.3427 49.0708 66.5428C49.0708 89.7428 67.8782 108.55 91.0782 108.55Z" fill="#926B5A"/>
<path d="M129.368 148.542C129.368 148.542 90.6828 158.421 89.7247 159.354C88.7666 160.287 57.1603 161.942 66.3616 142.653C69.742 135.571 71.1485 125.952 71.5751 116.614C71.5932 116.218 71.6112 115.825 71.6257 115.432C72.2078 99.7803 70.1398 85.2562 70.1398 85.2562C70.1398 85.2562 114.971 67.5968 111.67 94.432C110.846 101.107 111.529 107.814 113.026 114.12C113.525 116.225 114.111 118.283 114.762 120.28C119.997 136.368 129.368 148.542 129.368 148.542Z" fill="#FCCBB5"/>
<path opacity="0.1" d="M112.268 114.072C100.236 123.058 83.9313 123.58 71.357 115.382C71.9322 99.7519 69.8887 85.2482 69.8887 85.2482C69.8887 85.2482 114.19 67.6135 110.928 94.4111C110.117 101.08 110.792 107.777 112.268 114.072Z" fill="black"/>
<path d="M92.1934 120.446C112.314 120.446 128.625 104.135 128.625 84.0149C128.625 63.8945 112.314 47.5836 92.1934 47.5836C72.073 47.5836 55.7622 63.8945 55.7622 84.0149C55.7622 104.135 72.073 120.446 92.1934 120.446Z" fill="#FCCBB5"/>
<path opacity="0.1" d="M129.368 148.572C129.368 148.572 90.6828 158.424 89.7247 159.355C88.7666 160.286 57.1603 161.936 66.3616 142.699C69.742 135.635 71.1485 126.042 71.5751 116.729C71.9366 121.596 74.735 133.382 75.0929 137.303C75.1157 137.533 75.1617 137.759 75.2303 137.979C75.7545 139.722 77.6237 141.732 79.8762 143.637L80.0099 143.748C85.7591 148.542 93.9676 149.088 100.307 145.096C103.523 143.082 106.609 140.871 109.548 138.475C113.757 135.021 115.069 130.366 115.232 126.254C115.299 124.28 115.141 122.305 114.762 120.366C119.997 136.43 129.368 148.572 129.368 148.572Z" fill="black"/>
<path d="M178.439 175.465H20.8179C20.8179 175.465 24.117 159.554 24.5862 156.277C24.8425 154.484 27.8348 148.031 32.6824 142.427C36.7178 137.766 42.0419 133.661 48.1456 133.342C59.5698 132.747 71.9396 116.729 71.9396 116.729C72.2139 121.389 75.1088 133.561 75.4733 137.555C75.4961 137.784 75.542 138.009 75.6105 138.229C76.1339 139.968 78 141.972 80.2487 143.872C86.1208 148.767 94.3166 149.313 100.646 145.331C103.856 143.321 106.937 141.116 109.872 138.727C114.074 135.282 115.384 130.639 115.546 126.538C115.629 123.816 115.297 121.098 114.561 118.475C114.355 117.729 114.2 117.291 114.178 117.252L114.68 117.464C114.68 117.464 136.023 132.88 155.576 139.183C157.867 139.924 160.03 141.012 161.986 142.409C163.571 143.547 165.031 144.849 166.34 146.292C168.986 149.265 171.176 152.61 172.837 156.219C177.37 165.763 178.439 175.465 178.439 175.465Z" fill="#E3E829"/>
<path opacity="0.1" d="M109.392 71.8279C110.337 75.4106 111.573 79.3911 114.821 81.2577C115.256 81.4632 115.657 81.7326 116.01 82.0567C116.81 82.9129 116.566 84.2493 116.446 85.4101C116.032 89.3941 117.77 93.4319 120.621 96.2873C123.472 99.1428 127.33 100.888 131.312 101.69C132.287 101.887 133.381 102.013 134.221 101.472C134.789 101.047 135.206 100.456 135.414 99.7841C136.523 96.8785 136.054 93.6146 135.127 90.6481C134.199 87.6816 132.832 84.8512 132.13 81.8238C130.461 74.6404 132.672 67.2169 133.668 59.9117C133.999 57.4826 134.192 54.9782 133.556 52.61C132.636 49.1778 130.097 46.4262 127.646 43.8215C126.326 42.4207 124.977 40.9948 123.283 40.0776C118.286 37.3869 111.854 39.7766 106.519 37.8169C104.384 37.0322 102.57 35.5991 100.537 34.5924C96.2206 32.4427 91.1041 32.3245 86.3732 33.3026C81.6422 34.2807 77.2094 36.2906 72.8202 38.2826L69.4638 39.7802C64.7365 41.9299 59.671 44.359 57.1255 48.8553C54.4163 53.6419 55.1691 59.7684 52.46 64.5549C51.6381 65.988 50.4927 67.3638 50.2781 69.0119C50.1327 70.2013 50.5036 71.3908 50.849 72.5409C51.6927 75.339 52.4272 78.2159 52.3618 81.1395C52.2963 84.063 51.3509 87.0582 49.249 89.1147C48.3617 89.9817 47.1762 91.0923 47.7217 92.1994C47.9007 92.5089 48.1495 92.7737 48.449 92.9733C51.9573 95.5983 56.5842 96.2741 60.7146 94.7647C62.3074 94.1664 63.8128 93.2062 64.7147 91.791C65.3142 90.7543 65.7484 89.6329 66.002 88.4662C67.1511 84.2493 68.3074 79.9607 68.2165 75.5934C68.1656 73.0854 67.7002 70.556 68.0711 68.0696C68.442 65.5832 69.9147 63.0215 72.3693 62.3372C74.1875 61.8249 76.133 62.4447 78.0312 62.4268C80.7658 62.4053 84.1186 59.4173 86.6532 60.295C88.835 61.0546 90.5623 65.1676 92.366 66.744C96.9406 70.7674 103.326 72.8705 109.392 71.8279Z" fill="black"/>
<path d="M109.393 71.1023C110.339 74.6851 111.576 78.6655 114.825 80.5321C115.254 80.7334 115.65 80.9966 116 81.3132C116.8 82.1694 116.557 83.5058 116.437 84.6666C116.022 88.6506 117.761 92.6884 120.613 95.5438C123.466 98.3993 127.326 100.144 131.31 100.947C132.285 101.144 133.38 101.269 134.22 100.728C134.788 100.303 135.206 99.7126 135.414 99.0406C136.523 96.135 136.054 92.8711 135.126 89.9046C134.198 86.9381 132.83 84.1077 132.128 81.0803C130.458 73.8969 132.67 66.4734 133.667 59.1682C133.998 56.7391 134.191 54.2347 133.554 51.8665C132.634 48.4343 130.094 45.6827 127.642 43.078C126.322 41.6772 124.972 40.2513 123.276 39.3341C118.278 36.6434 111.842 39.0331 106.504 37.0734C104.369 36.2887 102.553 34.8556 100.519 33.8489C96.2009 31.6992 91.0819 31.581 86.3486 32.5591C81.6153 33.5372 77.1803 35.5471 72.789 37.5391L69.4746 39.0439C64.745 41.1935 59.6769 43.6226 57.1302 48.119C54.4197 52.9055 55.1728 59.032 52.4624 63.8186C51.6401 65.2517 50.4941 66.6275 50.2794 68.2755C50.1339 69.465 50.505 70.6545 50.8506 71.8045C51.6947 74.6027 52.4296 77.4796 52.3641 80.4031C52.2986 83.3267 51.3527 86.3218 49.2498 88.3783C48.3621 89.2454 47.176 90.356 47.7218 91.4631C47.9008 91.7726 48.1498 92.0374 48.4494 92.237C51.9595 94.862 56.5887 95.5377 60.7211 94.0283C62.3146 93.43 63.8209 92.4698 64.7231 91.0546C65.3229 90.0179 65.7573 88.8966 66.011 87.7299C67.1607 83.513 68.3177 79.2244 68.2267 74.857C68.1758 72.3491 67.7101 69.8197 68.0812 67.3333C68.4523 64.8468 69.9258 62.2852 72.3816 61.6009C74.2007 61.0885 76.1471 61.7083 78.0462 61.6904C80.7822 61.6689 84.1366 58.6809 86.6724 59.5587C88.8554 60.3182 90.5835 64.4312 92.3881 66.0076C96.9358 70.0454 103.325 72.1485 109.393 71.1023Z" fill="#926B5A"/>
<path d="M229.74 86.9888H147.212V157.621H229.74V86.9888Z" fill="#463A3E"/>
<path opacity="0.05" d="M229.74 86.9888H147.212V157.621H229.74V86.9888Z" fill="black"/>
<path d="M217.844 188.848H147.212C148.124 183.703 150.79 178.064 155.987 171.985C160.09 167.206 163.446 161.833 165.94 156.049C166.61 154.503 167.211 152.954 167.742 151.401C169.303 146.791 170.365 142.026 170.91 137.189C170.91 137.052 170.942 136.915 170.957 136.778C171.321 133.435 171.468 130.073 171.396 126.711C171.396 126.47 171.396 126.235 171.396 125.99C171.144 117.742 169.78 109.566 167.342 101.682L167.252 101.401C166.484 98.9818 165.922 97.6225 165.922 97.6225C165.922 97.6225 167.324 96.8618 169.638 95.7405L169.832 95.6468C178.34 91.5582 198.481 83.0277 207.361 89.1065L207.505 89.2038C210.611 91.4176 212.283 95.4809 211.498 102.248C211.498 102.274 211.498 102.302 211.498 102.328C211.498 102.454 211.469 102.576 211.458 102.688C210.983 107.353 210.758 112.039 210.784 116.728C210.784 116.962 210.784 117.197 210.784 117.449C210.784 118.547 210.796 119.66 210.82 120.788C210.82 120.939 210.82 121.09 210.82 121.242C210.892 124.883 211.055 128.644 211.282 132.458C211.595 137.748 212.042 143.134 212.557 148.42C212.777 150.68 213.015 152.927 213.278 155.137C213.307 155.396 213.336 155.663 213.365 155.919C213.667 158.612 213.981 161.251 214.301 163.811L214.323 163.977C215.548 174.145 216.903 183.021 217.844 188.848Z" fill="#A1806D"/>
<path opacity="0.1" d="M210.96 102.229C210.96 102.255 210.96 102.283 210.96 102.309C210.448 107.093 210.206 111.902 210.234 116.714C210.234 116.948 210.234 117.182 210.234 117.434C200.431 128.72 184.415 132.454 170.57 126.682C170.57 126.441 170.57 126.207 170.57 125.962C170.315 117.624 168.91 109.361 166.395 101.401C165.622 98.9847 165.056 97.627 165.056 97.627C165.056 97.627 166.468 96.8671 168.799 95.7471C177.287 91.6776 197.999 82.8905 206.937 89.1999C210.063 91.4111 211.747 95.4698 210.96 102.229Z" fill="black"/>
<path d="M184.387 128.625C203.275 128.625 218.588 113.312 218.588 94.4238C218.588 75.5352 203.275 60.2231 184.387 60.2231C165.498 60.2231 150.186 75.5352 150.186 94.4238C150.186 113.312 165.498 128.625 184.387 128.625Z" fill="#A2806D"/>
<path opacity="0.1" d="M187.361 188.104H113.755C113.755 188.104 117.063 172.143 117.534 168.855C117.791 167.057 120.792 160.583 125.653 154.962C131.897 150.013 139.63 147.286 147.617 147.218C161.694 147.01 165.791 151.826 166.902 155.386C167.291 156.58 167.39 157.848 167.192 159.087L169.856 162.921L187.361 188.104Z" fill="black"/>
<path d="M185.874 188.848H112.268C112.268 188.848 115.576 172.886 116.047 169.599C116.304 167.801 119.304 161.327 124.165 155.705C130.409 150.756 138.143 148.03 146.13 147.962C160.206 147.753 164.304 152.569 165.415 156.13C165.803 157.324 165.903 158.592 165.705 159.831L168.369 163.664L185.874 188.848Z" fill="#E3E829"/>
<path opacity="0.1" d="M266.915 188.104H189.591C193.279 180.277 202.943 159.409 203.48 154.583C203.687 152.715 205.683 150.962 208.325 149.474C209.16 148.998 210.018 148.565 210.898 148.178L211.058 148.106C211.542 147.893 212.032 147.697 212.528 147.516C219.216 145.073 226.565 145.131 233.214 147.679C239.562 150.086 247.731 153.33 254.089 156.368L254.14 156.393C255.773 157.175 257.294 157.939 258.633 158.674C261.311 160.14 263.267 161.48 264.019 162.551C264.363 163.044 264.744 165.263 265.162 168.706C265.717 173.362 266.323 180.27 266.915 188.104Z" fill="black"/>
<path d="M266.915 188.848H189.591C193.279 181.02 202.943 160.152 203.48 155.326C203.687 153.458 205.683 151.706 208.325 150.218C209.16 149.741 210.018 149.309 210.898 148.922C211.542 148.637 212.032 148.44 212.528 148.259C219.216 145.817 226.565 145.874 233.214 148.422C239.562 150.83 247.731 154.074 254.089 157.111C255.773 157.918 257.294 158.682 258.633 159.417C261.311 160.884 263.267 162.223 264.019 163.295C264.363 163.787 264.744 166.006 265.162 169.449C265.721 174.105 266.323 181.017 266.915 188.848Z" fill="#E3E829"/>
<path opacity="0.1" d="M255.019 150.44C255.019 151.547 254.989 152.656 254.929 153.765C254.895 154.305 254.854 154.846 254.806 155.386C254.773 155.775 254.734 156.161 254.694 156.546L254.643 156.993C254.055 162.231 252.969 167.44 252.839 172.703C252.839 172.952 252.839 173.201 252.839 173.449C252.814 178.392 253.615 183.259 254.701 188.104H210.415C210.343 187.207 210.307 186.303 210.318 185.413C210.318 184.61 210.368 183.806 210.451 182.999C211.133 176.367 214.53 170.16 215.042 163.571L215.064 163.268C215.096 162.775 215.115 162.278 215.107 161.781C215.107 161.737 215.107 161.694 215.107 161.647C215.051 159.469 214.715 157.306 214.108 155.213C214.079 155.109 214.05 155.004 214.021 154.9C213.402 152.824 212.679 150.78 211.855 148.776L211.697 148.376C210.495 145.378 209.231 142.406 208.376 139.427C207.696 137.208 207.345 134.903 207.333 132.582C207.333 132.168 207.358 131.754 207.391 131.34C207.42 131.001 207.459 130.662 207.51 130.32C207.589 129.785 207.695 129.255 207.827 128.731C208.549 125.893 210.09 123.23 211.567 120.593C213.209 117.657 214.775 114.754 215.057 111.666C215.092 111.276 215.106 110.884 215.096 110.492C215.085 109.987 215.037 109.484 214.952 108.986C214.573 106.796 213.443 104.825 212.516 102.804C212.422 102.599 212.328 102.393 212.238 102.185C212.238 102.152 212.209 102.12 212.198 102.087C210.394 97.9264 209.347 93.4881 208.246 89.0715C208.199 88.8805 208.152 88.6896 208.102 88.5023C207.831 87.4215 207.553 86.3408 207.257 85.26C205.64 79.3663 203.337 73.4114 198.956 69.1569C194.574 64.9023 187.586 62.748 182.1 65.4571C177.354 67.8167 174.784 73.098 173.626 78.2568C172.467 83.4155 172.373 88.8013 170.868 93.8736C170.76 94.2434 170.64 94.6121 170.507 94.9796C170.442 95.1669 170.377 95.3398 170.312 95.5451C169.666 97.3824 168.869 99.2017 168.01 101.01L167.919 101.201C165.176 107.026 161.989 112.751 161.888 118.605V118.68C161.888 118.839 161.888 118.994 161.888 119.152C161.907 120.544 162.118 121.926 162.516 123.259C163.238 125.658 164.545 127.751 166.068 129.744C166.369 130.135 166.677 130.523 166.992 130.907C168.508 132.766 170.154 134.567 171.594 136.484L171.641 136.545C172.736 137.961 173.66 139.5 174.395 141.131C176.153 145.258 176.179 149.918 174.467 154.064C174.058 155.013 173.589 155.934 173.063 156.824C172.135 158.423 171.114 159.979 170.309 161.644C170.038 162.202 169.796 162.771 169.587 163.348C167.782 167.988 167.393 173.121 165.92 177.909C164.779 181.585 163.005 185.034 160.676 188.1H113.755C114.3 185.438 117.003 172.249 117.429 169.288C117.685 167.487 120.678 161.002 125.525 155.372C125.117 155.692 124.724 156.017 124.345 156.341C121.288 158.941 118.639 161.984 116.487 165.369C116.592 165.045 116.7 164.717 116.808 164.392C117.469 162.425 118.183 160.477 118.909 158.553C121.01 153.012 123.348 147.36 127.535 143.159C129.899 140.789 132.776 138.962 135.028 136.488C138.998 132.132 140.64 126.098 140.594 120.183C140.594 119.57 140.568 118.961 140.529 118.353C140.099 111.868 137.879 105.661 135.476 99.6196C134.183 96.3773 132.812 92.9694 132.873 89.5326C132.877 89.0505 132.912 88.5692 132.978 88.0916C133.971 80.9694 141.189 76.7041 145.524 70.9581C151.97 62.4094 152.439 49.7034 160.896 43.1396C167.393 38.0961 176.416 38.4059 184.62 38.9535C192.25 39.4651 199.136 40.4558 206.709 41.5149C214.281 42.574 221.965 44.5626 228.039 49.2206C231.963 52.2251 235.023 56.2059 237.741 60.3307C241.379 65.857 244.559 71.9596 244.996 78.5558C245.028 79.0277 245.046 79.496 245.046 79.9607C245.122 87.6701 241.769 95.1417 241.325 102.883C241.307 103.244 241.293 103.604 241.289 103.964C241.287 103.983 241.287 104.003 241.289 104.022C241.21 110.733 243.79 117.78 247.302 123.475C252.292 131.592 254.96 140.917 255.019 150.44Z" fill="black"/>
<path d="M253.531 150.558C253.531 151.506 253.495 152.458 253.441 153.402C253.407 153.941 253.367 154.48 253.318 155.018C253.27 155.557 253.216 156.091 253.156 156.62C252.568 161.842 251.483 167.036 251.353 172.283C251.353 172.685 251.353 173.091 251.353 173.494C251.378 178.418 252.215 183.273 253.318 188.104H209.002C208.919 187.21 208.868 186.308 208.861 185.421C208.851 184.462 208.896 183.502 208.994 182.548C209.676 175.936 213.07 169.747 213.582 163.178C213.618 162.697 213.643 162.216 213.647 161.742C213.647 161.631 213.647 161.516 213.647 161.404C213.601 159.08 213.238 156.772 212.568 154.544C211.95 152.474 211.228 150.437 210.404 148.439C209.157 145.317 207.819 142.218 206.924 139.1C206.294 137.033 205.943 134.892 205.882 132.733C205.872 132.162 205.891 131.591 205.94 131.023C205.968 130.685 206.008 130.348 206.059 130.007C206.137 129.474 206.243 128.945 206.376 128.423C207.097 125.593 208.637 122.938 210.112 120.309C211.757 117.379 213.329 114.477 213.607 111.395C213.629 111.162 213.64 110.924 213.647 110.677C213.664 110.016 213.615 109.356 213.502 108.705C213.124 106.521 211.995 104.557 211.068 102.542C210.974 102.337 210.881 102.132 210.79 101.924C208.962 97.7505 207.905 93.3041 206.802 88.8506C206.484 87.5792 206.16 86.3077 205.817 85.0471C204.201 79.1712 201.9 73.2343 197.522 68.9927C193.144 64.751 186.172 62.6464 180.694 65.3616C175.951 67.7141 173.384 72.9793 172.226 78.1225C171.068 83.2657 170.974 88.6351 169.471 93.692C169.305 94.2487 169.11 94.8054 168.926 95.3585C168.255 97.2513 167.418 99.1297 166.538 100.997C163.722 106.956 160.443 112.817 160.512 118.819V118.894C160.531 120.281 160.742 121.659 161.139 122.989C161.861 125.381 163.166 127.467 164.688 129.453C164.989 129.844 165.297 130.23 165.612 130.614C167.144 132.488 168.807 134.302 170.257 136.234C171.351 137.646 172.275 139.18 173.009 140.806C174.766 144.921 174.792 149.566 173.081 153.7C172.672 154.646 172.204 155.565 171.678 156.451C170.751 158.046 169.73 159.598 168.926 161.257C168.655 161.814 168.414 162.381 168.205 162.956C166.401 167.582 166.012 172.7 164.54 177.473C163.341 181.326 161.442 184.928 158.939 188.1H112.268C112.268 188.1 115.564 172.161 116.033 168.878C116.267 167.237 118.795 161.695 122.943 156.441C123.304 155.959 123.715 155.478 124.122 155.004C120.731 157.673 117.791 160.867 115.416 164.464L115.095 164.967C115.845 162.672 116.671 160.406 117.519 158.172C119.618 152.648 121.955 147.013 126.138 142.825C128.501 140.462 131.375 138.641 133.625 136.173C137.477 131.946 139.143 126.117 139.187 120.37C139.187 119.602 139.187 118.837 139.122 118.075C138.693 111.61 136.475 105.422 134.073 99.3991C132.843 96.3031 131.548 93.0779 131.472 89.7952C131.456 89.1625 131.491 88.5294 131.577 87.9024C132.572 80.8413 139.785 76.6069 144.117 70.8603C150.558 62.3375 151.027 49.6699 159.477 43.1261C165.969 38.0979 174.985 38.4067 183.183 38.9527C190.807 39.4627 197.688 40.4503 205.254 41.5063C212.821 42.5622 220.51 44.5412 226.573 49.1707C230.493 52.1841 233.551 56.1348 236.267 60.2508C239.902 65.7603 243.08 71.8444 243.516 78.4206C243.559 79.0455 243.576 79.6693 243.566 80.2918C243.505 87.809 240.281 95.1143 239.848 102.678C239.819 103.188 239.805 103.695 239.812 104.208C239.81 104.227 239.81 104.247 239.812 104.266C239.855 110.817 242.394 117.648 245.82 123.183C250.893 131.418 253.563 140.897 253.531 150.558Z" fill="#463A3E"/>
<defs>
<linearGradient id="paint0_linear" x1="198.878" y1="190.328" x2="198.878" y2="23.7935" gradientUnits="userSpaceOnUse">
<stop stop-color="#808080" stop-opacity="0.25"/>
<stop offset="0.54" stop-color="#808080" stop-opacity="0.12"/>
<stop offset="1" stop-color="#808080" stop-opacity="0.1"/>
</linearGradient>
</defs>
</svg>
