<svg width="24" height="24" viewBox="0 0 24 24" fill="none" xmlns="http://www.w3.org/2000/svg">
<path fill-rule="evenodd" clip-rule="evenodd" d="M20.5034 3.48755C19.3939 2.37759 18.0759 1.49802 16.6252 0.899491C15.1745 0.30096 13.6197 -0.00471772 12.0503 5.5039e-05C5.46428 5.5039e-05 0.102857 5.33469 0.100178 11.8929C0.0972648 13.9812 0.647729 16.0329 1.69553 17.8393L0 24L6.33481 22.3463C8.08832 23.2962 10.0512 23.7934 12.0455 23.7927H12.0503C18.6359 23.7927 23.9967 18.4575 24 11.8998C24.004 10.3359 23.6969 8.78671 23.0966 7.3425C22.4963 5.8983 21.6148 4.5879 20.5034 3.48755ZM12.0503 21.7854H12.0461C10.2682 21.7859 8.52272 21.3101 6.99106 20.4075L6.62838 20.1932L2.86928 21.1747L3.87267 17.527L3.63642 17.152C2.64235 15.5782 2.11567 13.7544 2.11768 11.8929C2.11768 6.44308 6.57535 2.00898 12.0541 2.00898C14.6823 2.00429 17.2047 3.04373 19.0666 4.89868C20.9285 6.75363 21.9774 9.27218 21.9825 11.9004C21.9803 17.3507 17.5248 21.7854 12.0503 21.7854ZM17.498 14.3823C17.1996 14.2334 15.7302 13.5145 15.458 13.4154C15.1859 13.3163 14.985 13.2665 14.7862 13.5643C14.5875 13.8622 14.0148 14.5286 13.8407 14.7295C13.6666 14.9304 13.4925 14.9523 13.1941 14.8034C12.8957 14.6545 11.933 14.3411 10.7925 13.3286C9.90481 12.5406 9.30588 11.5677 9.13177 11.2704C8.95766 10.9731 9.11302 10.8118 9.26248 10.664C9.39695 10.5306 9.56088 10.3168 9.71034 10.1432C9.85981 9.96968 9.90963 9.84539 10.0087 9.64718C10.1078 9.44896 10.0586 9.27539 9.98409 9.127C9.90963 8.97861 9.31231 7.51557 9.06374 6.9204C8.82106 6.34075 8.57516 6.41951 8.39195 6.4104C8.21784 6.40183 8.01695 6.39968 7.81927 6.39968C7.66815 6.40362 7.51947 6.43866 7.3825 6.50263C7.24553 6.5666 7.12322 6.65811 7.0232 6.77147C6.74945 7.06932 5.97803 7.78932 5.97803 9.25075C5.97803 10.7122 7.04945 12.1265 7.19731 12.3247C7.34517 12.5229 9.30266 15.5245 12.2978 16.8118C12.854 17.05 13.4223 17.2588 14.0003 17.4375C14.7155 17.6636 15.3664 17.632 15.8807 17.5554C16.4544 17.4702 17.6485 16.8364 17.8966 16.1422C18.1446 15.4479 18.1451 14.8532 18.0707 14.7295C17.9962 14.6057 17.7969 14.5307 17.498 14.3823Z" fill="#62BD23"/>
</svg>
